<svg width="533" height="306" viewBox="0 0 533 306" fill="none" xmlns="http://www.w3.org/2000/svg">
<rect width="522" height="306" rx="40" fill="#FF846B"/>
<path d="M496.207 44.2915C497.262 45.3414 497.262 47.042 496.207 48.0918C495.684 48.6167 494.992 48.8771 494.3 48.8771C493.608 48.8771 492.918 48.6146 492.391 48.0897L483.5 39.2441L474.609 48.0876C474.082 48.6167 473.391 48.8771 472.7 48.8771C472.009 48.8771 471.319 48.6167 470.791 48.0876C469.736 47.0378 469.736 45.3372 470.791 44.2874L479.684 35.4354L470.791 26.5876C469.736 25.5378 469.736 23.8372 470.791 22.7874C471.846 21.7375 473.554 21.7375 474.609 22.7874L483.5 31.6435L492.393 22.7916C493.448 21.7417 495.156 21.7417 496.211 22.7916C497.266 23.8414 497.266 25.542 496.211 26.5918L487.318 35.4438L496.207 44.2915Z" fill="white"/>
<path d="M48.296 102V66.864H35.112V57.2H72.872V66.864H59.24V102H48.296ZM91.2185 102V81.136C91.2185 79.3867 90.7278 78.1067 89.7465 77.296C88.8078 76.4427 87.4852 76.016 85.7785 76.016C84.1145 76.016 82.6212 76.336 81.2985 76.976C80.0185 77.5733 78.7812 78.576 77.5865 79.984L71.4425 74.032C73.4905 71.9413 75.8372 70.2987 78.4825 69.104C81.1278 67.9093 84.0078 67.312 87.1225 67.312C89.9812 67.312 92.4558 67.7387 94.5465 68.592C96.6372 69.4453 98.2585 70.7467 99.4105 72.496C100.563 74.2453 101.139 76.464 101.139 79.152V102H91.2185ZM82.3865 102.64C80.2532 102.64 78.3118 102.213 76.5625 101.36C74.8558 100.507 73.4905 99.3333 72.4665 97.84C71.4852 96.304 70.9945 94.512 70.9945 92.464C70.9945 90.7147 71.3145 89.1787 71.9545 87.856C72.5945 86.5333 73.5332 85.4453 74.7705 84.592C76.0505 83.696 77.6292 83.0347 79.5065 82.608C81.4265 82.1387 83.6452 81.904 86.1625 81.904H96.4665L95.8905 88.368H86.4185C85.5225 88.368 84.7332 88.4533 84.0505 88.624C83.3678 88.752 82.7918 88.9867 82.3225 89.328C81.8532 89.6267 81.4905 89.9893 81.2345 90.416C81.0212 90.8427 80.9145 91.3547 80.9145 91.952C80.9145 92.592 81.0852 93.1467 81.4265 93.616C81.7678 94.0853 82.2158 94.448 82.7705 94.704C83.3678 94.96 84.0505 95.088 84.8185 95.088C85.9278 95.088 86.9732 94.9173 87.9545 94.576C88.9785 94.192 89.8745 93.6587 90.6425 92.976C91.4532 92.2933 92.0932 91.504 92.5625 90.608L94.3545 95.216C93.4585 96.6667 92.3705 97.9467 91.0905 99.056C89.8532 100.165 88.4878 101.04 86.9945 101.68C85.5438 102.32 84.0078 102.64 82.3865 102.64ZM119.213 92.016L115.565 84.208L131.373 68.016H144.877L119.213 92.016ZM109.357 102V54.64H119.661V102H109.357ZM132.333 102L120.493 86.64L127.789 81.008L144.557 102H132.333ZM164.236 102.64C160.481 102.64 157.196 101.893 154.38 100.4C151.607 98.9067 149.452 96.8587 147.916 94.256C146.423 91.6107 145.676 88.6027 145.676 85.232C145.676 82.5867 146.103 80.176 146.956 78C147.809 75.7813 149.004 73.8827 150.54 72.304C152.119 70.7253 153.953 69.5093 156.044 68.656C158.177 67.76 160.503 67.312 163.02 67.312C165.409 67.312 167.585 67.7387 169.548 68.592C171.511 69.4453 173.217 70.64 174.668 72.176C176.119 73.712 177.228 75.5253 177.996 77.616C178.764 79.7067 179.127 81.9893 179.084 84.464L179.02 87.28H152.012L150.476 81.456H170.636L169.548 82.608V81.328C169.463 80.2613 169.121 79.344 168.524 78.576C167.969 77.7653 167.223 77.1253 166.284 76.656C165.388 76.1867 164.364 75.952 163.212 75.952C161.505 75.952 160.055 76.2933 158.86 76.976C157.708 77.616 156.833 78.5547 156.236 79.792C155.639 81.0293 155.34 82.5653 155.34 84.4C155.34 86.2347 155.724 87.856 156.492 89.264C157.303 90.672 158.455 91.76 159.948 92.528C161.484 93.296 163.297 93.68 165.388 93.68C166.796 93.68 168.076 93.4667 169.228 93.04C170.38 92.6133 171.617 91.888 172.94 90.864L177.74 97.648C176.417 98.7573 175.009 99.696 173.516 100.464C172.023 101.189 170.487 101.723 168.908 102.064C167.372 102.448 165.815 102.64 164.236 102.64ZM224.156 102V81.136C224.156 79.3867 223.665 78.1067 222.684 77.296C221.745 76.4427 220.423 76.016 218.716 76.016C217.052 76.016 215.559 76.336 214.236 76.976C212.956 77.5733 211.719 78.576 210.524 79.984L204.38 74.032C206.428 71.9413 208.775 70.2987 211.42 69.104C214.065 67.9093 216.945 67.312 220.06 67.312C222.919 67.312 225.393 67.7387 227.484 68.592C229.575 69.4453 231.196 70.7467 232.348 72.496C233.5 74.2453 234.076 76.464 234.076 79.152V102H224.156ZM215.324 102.64C213.191 102.64 211.249 102.213 209.5 101.36C207.793 100.507 206.428 99.3333 205.404 97.84C204.423 96.304 203.932 94.512 203.932 92.464C203.932 90.7147 204.252 89.1787 204.892 87.856C205.532 86.5333 206.471 85.4453 207.708 84.592C208.988 83.696 210.567 83.0347 212.444 82.608C214.364 82.1387 216.583 81.904 219.1 81.904H229.404L228.828 88.368H219.356C218.46 88.368 217.671 88.4533 216.988 88.624C216.305 88.752 215.729 88.9867 215.26 89.328C214.791 89.6267 214.428 89.9893 214.172 90.416C213.959 90.8427 213.852 91.3547 213.852 91.952C213.852 92.592 214.023 93.1467 214.364 93.616C214.705 94.0853 215.153 94.448 215.708 94.704C216.305 94.96 216.988 95.088 217.756 95.088C218.865 95.088 219.911 94.9173 220.892 94.576C221.916 94.192 222.812 93.6587 223.58 92.976C224.391 92.2933 225.031 91.504 225.5 90.608L227.292 95.216C226.396 96.6667 225.308 97.9467 224.028 99.056C222.791 100.165 221.425 101.04 219.932 101.68C218.481 102.32 216.945 102.64 215.324 102.64ZM263.756 102V57.2H283.596C286.71 57.2 289.313 57.648 291.404 58.544C293.537 59.3973 295.158 60.656 296.268 62.32C297.377 63.9413 297.932 65.9253 297.932 68.272C297.932 70.7893 297.292 72.9013 296.012 74.608C294.774 76.3147 292.982 77.5093 290.636 78.192L290.572 76.848C292.492 77.3173 294.177 78.1067 295.628 79.216C297.121 80.2827 298.273 81.6053 299.084 83.184C299.894 84.72 300.3 86.4693 300.3 88.432C300.3 90.6933 299.894 92.6773 299.084 94.384C298.316 96.0907 297.206 97.52 295.756 98.672C294.348 99.7813 292.662 100.613 290.7 101.168C288.78 101.723 286.646 102 284.3 102H263.756ZM274.124 92.848H283.852C285.644 92.848 287.03 92.4213 288.012 91.568C289.036 90.7147 289.548 89.4987 289.548 87.92C289.548 86.9387 289.292 86.1067 288.78 85.424C288.31 84.7413 287.628 84.2293 286.732 83.888C285.836 83.5467 284.769 83.376 283.532 83.376H274.124V92.848ZM274.124 75.12H282.124C283.233 75.12 284.172 74.9493 284.94 74.608C285.708 74.224 286.284 73.712 286.668 73.072C287.094 72.3893 287.308 71.6 287.308 70.704C287.308 69.3387 286.838 68.272 285.9 67.504C284.961 66.736 283.553 66.352 281.676 66.352H274.124V75.12ZM307.607 102V68.016H317.399L317.847 79.088L315.927 76.912C316.481 75.12 317.335 73.4987 318.487 72.048C319.639 70.5973 321.004 69.4453 322.583 68.592C324.204 67.7387 325.889 67.312 327.639 67.312C328.407 67.312 329.111 67.376 329.751 67.504C330.433 67.5893 331.031 67.7387 331.543 67.952L328.791 79.28C328.321 79.024 327.681 78.8107 326.871 78.64C326.103 78.4267 325.292 78.32 324.439 78.32C323.5 78.32 322.625 78.4907 321.815 78.832C321.047 79.1307 320.364 79.5787 319.767 80.176C319.212 80.7733 318.764 81.4773 318.423 82.288C318.124 83.0987 317.975 84.016 317.975 85.04V102H307.607ZM351.549 102.64C347.794 102.64 344.509 101.893 341.693 100.4C338.919 98.9067 336.765 96.8587 335.229 94.256C333.735 91.6107 332.989 88.6027 332.989 85.232C332.989 82.5867 333.415 80.176 334.269 78C335.122 75.7813 336.317 73.8827 337.853 72.304C339.431 70.7253 341.266 69.5093 343.357 68.656C345.49 67.76 347.815 67.312 350.333 67.312C352.722 67.312 354.898 67.7387 356.861 68.592C358.823 69.4453 360.53 70.64 361.981 72.176C363.431 73.712 364.541 75.5253 365.309 77.616C366.077 79.7067 366.439 81.9893 366.397 84.464L366.333 87.28H339.325L337.789 81.456H357.949L356.861 82.608V81.328C356.775 80.2613 356.434 79.344 355.837 78.576C355.282 77.7653 354.535 77.1253 353.597 76.656C352.701 76.1867 351.677 75.952 350.525 75.952C348.818 75.952 347.367 76.2933 346.173 76.976C345.021 77.616 344.146 78.5547 343.549 79.792C342.951 81.0293 342.653 82.5653 342.653 84.4C342.653 86.2347 343.037 87.856 343.805 89.264C344.615 90.672 345.767 91.76 347.26 92.528C348.797 93.296 350.61 93.68 352.701 93.68C354.109 93.68 355.389 93.4667 356.541 93.04C357.693 92.6133 358.93 91.888 360.253 90.864L365.053 97.648C363.73 98.7573 362.322 99.696 360.829 100.464C359.335 101.189 357.799 101.723 356.221 102.064C354.685 102.448 353.127 102.64 351.549 102.64ZM391.031 102V81.136C391.031 79.3867 390.54 78.1067 389.559 77.296C388.62 76.4427 387.298 76.016 385.591 76.016C383.927 76.016 382.434 76.336 381.111 76.976C379.831 77.5733 378.594 78.576 377.399 79.984L371.255 74.032C373.303 71.9413 375.65 70.2987 378.295 69.104C380.94 67.9093 383.82 67.312 386.935 67.312C389.794 67.312 392.268 67.7387 394.359 68.592C396.45 69.4453 398.071 70.7467 399.223 72.496C400.375 74.2453 400.951 76.464 400.951 79.152V102H391.031ZM382.199 102.64C380.066 102.64 378.124 102.213 376.375 101.36C374.668 100.507 373.303 99.3333 372.279 97.84C371.298 96.304 370.807 94.512 370.807 92.464C370.807 90.7147 371.127 89.1787 371.767 87.856C372.407 86.5333 373.346 85.4453 374.583 84.592C375.863 83.696 377.442 83.0347 379.319 82.608C381.239 82.1387 383.458 81.904 385.975 81.904H396.279L395.703 88.368H386.231C385.335 88.368 384.546 88.4533 383.863 88.624C383.18 88.752 382.604 88.9867 382.135 89.328C381.666 89.6267 381.303 89.9893 381.047 90.416C380.834 90.8427 380.727 91.3547 380.727 91.952C380.727 92.592 380.898 93.1467 381.239 93.616C381.58 94.0853 382.028 94.448 382.583 94.704C383.18 94.96 383.863 95.088 384.631 95.088C385.74 95.088 386.786 94.9173 387.767 94.576C388.791 94.192 389.687 93.6587 390.455 92.976C391.266 92.2933 391.906 91.504 392.375 90.608L394.167 95.216C393.271 96.6667 392.183 97.9467 390.903 99.056C389.666 100.165 388.3 101.04 386.807 101.68C385.356 102.32 383.82 102.64 382.199 102.64ZM419.025 92.016L415.377 84.208L431.185 68.016H444.689L419.025 92.016ZM409.169 102V54.64H419.473V102H409.169ZM432.145 102L420.305 86.64L427.601 81.008L444.369 102H432.145Z" fill="white"/>
<path d="M43.912 144L37.16 121.6H42.728L46.12 133.376C46.312 134.059 46.472 134.763 46.6 135.488C46.728 136.192 46.8347 136.853 46.92 137.472C47.0053 138.069 47.0587 138.539 47.08 138.88L46.344 138.912C46.4933 138.101 46.6107 137.387 46.696 136.768C46.7813 136.149 46.888 135.573 47.016 135.04C47.144 134.485 47.304 133.931 47.496 133.376L50.856 124.512H55.24L58.536 133.376C58.792 134.08 58.9947 134.752 59.144 135.392C59.3147 136.011 59.4427 136.597 59.528 137.152C59.6347 137.685 59.72 138.219 59.784 138.752L59.112 138.88C59.1547 138.475 59.1867 138.112 59.208 137.792C59.2507 137.472 59.2827 137.163 59.304 136.864C59.3253 136.544 59.3573 136.224 59.4 135.904C59.4427 135.563 59.5067 135.189 59.592 134.784C59.6773 134.357 59.7947 133.877 59.944 133.344L63.272 121.6H68.744L61.992 144H57.832L52.488 131.136L53.096 131.2L48.2 144H43.912ZM71.2095 144V120.32H76.2975V130.464L75.2415 130.848C75.4762 130.08 75.8922 129.387 76.4895 128.768C77.1082 128.128 77.8442 127.616 78.6975 127.232C79.5508 126.848 80.4468 126.656 81.3855 126.656C82.6655 126.656 83.7428 126.923 84.6175 127.456C85.4922 127.968 86.1428 128.747 86.5695 129.792C87.0175 130.816 87.2415 132.085 87.2415 133.6V144H82.0895V133.984C82.0895 133.301 81.9935 132.736 81.8015 132.288C81.6095 131.84 81.3215 131.509 80.9375 131.296C80.5535 131.083 80.0735 130.987 79.4975 131.008C79.0495 131.008 78.6335 131.083 78.2495 131.232C77.8655 131.36 77.5242 131.563 77.2255 131.84C76.9482 132.096 76.7348 132.395 76.5855 132.736C76.4362 133.077 76.3615 133.461 76.3615 133.888V144H73.7695C73.2148 144 72.7135 144 72.2655 144C71.8388 144 71.4868 144 71.2095 144ZM93.573 151.36L97.445 142.272L97.509 144.96L89.285 127.008H95.109L98.693 135.584C98.885 135.989 99.0663 136.448 99.237 136.96C99.4077 137.472 99.5357 137.952 99.621 138.4L98.885 138.816C99.013 138.496 99.1517 138.091 99.301 137.6C99.4717 137.109 99.653 136.587 99.845 136.032L102.981 127.008H108.837L101.637 144L98.725 151.36H93.573ZM121.491 144V127.008H126.387L126.579 130.464L125.523 130.848C125.757 130.08 126.173 129.387 126.771 128.768C127.389 128.128 128.125 127.616 128.979 127.232C129.832 126.848 130.728 126.656 131.667 126.656C132.947 126.656 134.024 126.923 134.899 127.456C135.773 127.968 136.424 128.747 136.851 129.792C137.299 130.816 137.523 132.085 137.523 133.6V144H132.371V133.984C132.371 133.301 132.275 132.736 132.083 132.288C131.891 131.84 131.603 131.509 131.219 131.296C130.835 131.083 130.355 130.987 129.779 131.008C129.331 131.008 128.915 131.083 128.531 131.232C128.147 131.36 127.805 131.563 127.507 131.84C127.229 132.096 127.016 132.395 126.867 132.736C126.717 133.077 126.643 133.461 126.643 133.888V144H124.051C123.496 144 122.995 144 122.547 144C122.12 144 121.768 144 121.491 144ZM149.803 144.32C148.053 144.32 146.485 143.947 145.099 143.2C143.712 142.432 142.624 141.387 141.835 140.064C141.045 138.72 140.651 137.205 140.651 135.52C140.651 133.792 141.045 132.267 141.835 130.944C142.624 129.6 143.712 128.555 145.099 127.808C146.485 127.04 148.053 126.656 149.803 126.656C151.573 126.656 153.141 127.04 154.507 127.808C155.893 128.555 156.981 129.6 157.771 130.944C158.56 132.267 158.955 133.792 158.955 135.52C158.955 137.205 158.56 138.72 157.771 140.064C156.981 141.387 155.893 142.432 154.507 143.2C153.141 143.947 151.573 144.32 149.803 144.32ZM149.803 139.904C150.571 139.904 151.243 139.712 151.819 139.328C152.416 138.944 152.885 138.421 153.227 137.76C153.568 137.099 153.728 136.352 153.707 135.52C153.728 134.645 153.568 133.877 153.227 133.216C152.885 132.533 152.416 132.011 151.819 131.648C151.243 131.264 150.571 131.072 149.803 131.072C149.056 131.072 148.384 131.264 147.786 131.648C147.189 132.032 146.72 132.555 146.379 133.216C146.037 133.877 145.867 134.645 145.867 135.52C145.867 136.352 146.037 137.099 146.379 137.76C146.72 138.421 147.189 138.944 147.786 139.328C148.384 139.712 149.056 139.904 149.803 139.904ZM163.711 144V122.72H168.863V144H163.711ZM160.703 131.52V127.008H172.127V131.52H160.703ZM193.079 151.36C191.714 151.36 190.338 151.157 188.951 150.752C187.586 150.368 186.477 149.856 185.623 149.216L187.415 145.568C188.098 146.037 188.866 146.4 189.719 146.656C190.594 146.933 191.501 147.072 192.439 147.072C193.527 147.072 194.413 146.912 195.095 146.592C195.778 146.272 196.279 145.792 196.599 145.152C196.941 144.512 197.111 143.712 197.111 142.752V139.936L198.071 140.128C197.943 140.789 197.581 141.408 196.983 141.984C196.407 142.56 195.693 143.019 194.839 143.36C193.986 143.701 193.09 143.872 192.151 143.872C190.615 143.872 189.239 143.52 188.023 142.816C186.807 142.091 185.847 141.099 185.143 139.84C184.461 138.56 184.119 137.088 184.119 135.424C184.119 133.717 184.461 132.203 185.143 130.88C185.847 129.557 186.797 128.523 187.991 127.776C189.186 127.029 190.53 126.656 192.023 126.656C192.642 126.656 193.239 126.731 193.815 126.88C194.413 127.008 194.957 127.2 195.447 127.456C195.959 127.712 196.407 128 196.791 128.32C197.197 128.64 197.527 128.992 197.783 129.376C198.039 129.76 198.199 130.144 198.263 130.528L197.207 130.848L197.399 127.008H202.295V142.592C202.295 143.979 202.082 145.216 201.655 146.304C201.25 147.392 200.642 148.309 199.831 149.056C199.042 149.803 198.082 150.368 196.951 150.752C195.821 151.157 194.53 151.36 193.079 151.36ZM193.207 139.872C194.039 139.872 194.754 139.691 195.351 139.328C195.97 138.965 196.439 138.453 196.759 137.792C197.101 137.131 197.271 136.363 197.271 135.488C197.271 134.571 197.101 133.781 196.759 133.12C196.439 132.459 195.97 131.947 195.351 131.584C194.754 131.2 194.039 131.008 193.207 131.008C192.418 131.008 191.725 131.2 191.127 131.584C190.53 131.947 190.061 132.459 189.719 133.12C189.399 133.781 189.239 134.56 189.239 135.456C189.239 136.352 189.399 137.131 189.719 137.792C190.061 138.453 190.53 138.965 191.127 139.328C191.725 139.691 192.418 139.872 193.207 139.872ZM214.709 144.32C212.959 144.32 211.391 143.947 210.005 143.2C208.618 142.432 207.53 141.387 206.741 140.064C205.951 138.72 205.557 137.205 205.557 135.52C205.557 133.792 205.951 132.267 206.741 130.944C207.53 129.6 208.618 128.555 210.005 127.808C211.391 127.04 212.959 126.656 214.709 126.656C216.479 126.656 218.047 127.04 219.413 127.808C220.799 128.555 221.887 129.6 222.677 130.944C223.466 132.267 223.861 133.792 223.861 135.52C223.861 137.205 223.466 138.72 222.677 140.064C221.887 141.387 220.799 142.432 219.413 143.2C218.047 143.947 216.479 144.32 214.709 144.32ZM214.709 139.904C215.477 139.904 216.149 139.712 216.725 139.328C217.322 138.944 217.791 138.421 218.133 137.76C218.474 137.099 218.634 136.352 218.613 135.52C218.634 134.645 218.474 133.877 218.133 133.216C217.791 132.533 217.322 132.011 216.725 131.648C216.149 131.264 215.477 131.072 214.709 131.072C213.962 131.072 213.29 131.264 212.693 131.648C212.095 132.032 211.626 132.555 211.285 133.216C210.943 133.877 210.773 134.645 210.773 135.52C210.773 136.352 210.943 137.099 211.285 137.76C211.626 138.421 212.095 138.944 212.693 139.328C213.29 139.712 213.962 139.904 214.709 139.904ZM245.396 144.32C243.647 144.32 242.079 143.947 240.692 143.2C239.306 142.432 238.218 141.387 237.428 140.064C236.639 138.72 236.244 137.205 236.244 135.52C236.244 133.792 236.639 132.267 237.428 130.944C238.218 129.6 239.306 128.555 240.692 127.808C242.079 127.04 243.647 126.656 245.396 126.656C247.167 126.656 248.735 127.04 250.1 127.808C251.487 128.555 252.575 129.6 253.364 130.944C254.154 132.267 254.548 133.792 254.548 135.52C254.548 137.205 254.154 138.72 253.364 140.064C252.575 141.387 251.487 142.432 250.1 143.2C248.735 143.947 247.167 144.32 245.396 144.32ZM245.396 139.904C246.164 139.904 246.836 139.712 247.412 139.328C248.01 138.944 248.479 138.421 248.82 137.76C249.162 137.099 249.322 136.352 249.3 135.52C249.322 134.645 249.162 133.877 248.82 133.216C248.479 132.533 248.01 132.011 247.412 131.648C246.836 131.264 246.164 131.072 245.396 131.072C244.65 131.072 243.978 131.264 243.38 131.648C242.783 132.032 242.314 132.555 241.972 133.216C241.631 133.877 241.46 134.645 241.46 135.52C241.46 136.352 241.631 137.099 241.972 137.76C242.314 138.421 242.783 138.944 243.38 139.328C243.978 139.712 244.65 139.904 245.396 139.904ZM263.689 144.32C262.452 144.32 261.385 144.053 260.489 143.52C259.593 142.965 258.9 142.187 258.409 141.184C257.94 140.16 257.705 138.933 257.705 137.504V127.008H262.857V136.736C262.857 137.781 263.102 138.603 263.593 139.2C264.105 139.776 264.809 140.064 265.705 140.064C266.153 140.064 266.558 140 266.921 139.872C267.284 139.723 267.593 139.52 267.849 139.264C268.126 138.987 268.34 138.667 268.489 138.304C268.638 137.941 268.713 137.547 268.713 137.12V127.008H273.865V144H269.033L268.841 140.512L269.769 140.128C269.534 140.917 269.108 141.632 268.489 142.272C267.892 142.912 267.177 143.413 266.345 143.776C265.513 144.139 264.628 144.32 263.689 144.32ZM279.868 144V122.72H285.02V144H279.868ZM276.86 131.52V127.008H288.284V131.52H276.86ZM310.516 144V133.568C310.516 132.693 310.27 132.053 309.78 131.648C309.31 131.221 308.649 131.008 307.796 131.008C306.964 131.008 306.217 131.168 305.556 131.488C304.916 131.787 304.297 132.288 303.7 132.992L300.628 130.016C301.652 128.971 302.825 128.149 304.148 127.552C305.47 126.955 306.91 126.656 308.468 126.656C309.897 126.656 311.134 126.869 312.18 127.296C313.225 127.723 314.036 128.373 314.612 129.248C315.188 130.123 315.476 131.232 315.476 132.576V144H310.516ZM306.1 144.32C305.033 144.32 304.062 144.107 303.188 143.68C302.334 143.253 301.652 142.667 301.14 141.92C300.649 141.152 300.404 140.256 300.404 139.232C300.404 138.357 300.564 137.589 300.884 136.928C301.204 136.267 301.673 135.723 302.292 135.296C302.932 134.848 303.721 134.517 304.66 134.304C305.62 134.069 306.729 133.952 307.988 133.952H313.14L312.852 137.184H308.116C307.668 137.184 307.273 137.227 306.932 137.312C306.59 137.376 306.302 137.493 306.068 137.664C305.833 137.813 305.652 137.995 305.524 138.208C305.417 138.421 305.364 138.677 305.364 138.976C305.364 139.296 305.449 139.573 305.62 139.808C305.79 140.043 306.014 140.224 306.292 140.352C306.59 140.48 306.932 140.544 307.316 140.544C307.87 140.544 308.393 140.459 308.884 140.288C309.396 140.096 309.844 139.829 310.228 139.488C310.633 139.147 310.953 138.752 311.188 138.304L312.084 140.608C311.636 141.333 311.092 141.973 310.452 142.528C309.833 143.083 309.15 143.52 308.404 143.84C307.678 144.16 306.91 144.32 306.1 144.32ZM319.585 144V127.008H324.481L324.673 130.464L323.617 130.848C323.851 130.08 324.267 129.387 324.865 128.768C325.483 128.128 326.219 127.616 327.073 127.232C327.926 126.848 328.822 126.656 329.761 126.656C331.041 126.656 332.118 126.923 332.993 127.456C333.867 127.968 334.518 128.747 334.944 129.792C335.393 130.816 335.617 132.085 335.617 133.6V144H330.465V133.984C330.465 133.301 330.369 132.736 330.177 132.288C329.985 131.84 329.697 131.509 329.313 131.296C328.929 131.083 328.449 130.987 327.873 131.008C327.425 131.008 327.009 131.083 326.625 131.232C326.241 131.36 325.899 131.563 325.601 131.84C325.323 132.096 325.11 132.395 324.961 132.736C324.811 133.077 324.737 133.461 324.737 133.888V144H322.145C321.59 144 321.089 144 320.641 144C320.214 144 319.862 144 319.585 144ZM346.392 144.32C344.942 144.32 343.63 143.947 342.456 143.2C341.304 142.453 340.398 141.419 339.736 140.096C339.075 138.752 338.744 137.227 338.744 135.52C338.744 133.813 339.075 132.299 339.736 130.976C340.398 129.632 341.304 128.576 342.456 127.808C343.63 127.04 344.952 126.656 346.424 126.656C347.192 126.656 347.928 126.773 348.632 127.008C349.358 127.243 349.998 127.563 350.552 127.968C351.128 128.373 351.598 128.832 351.96 129.344C352.323 129.856 352.547 130.4 352.632 130.976L351.384 131.264V120.32H356.536V144H351.736L351.448 140.16L352.472 140.352C352.43 140.864 352.238 141.365 351.896 141.856C351.555 142.325 351.096 142.752 350.52 143.136C349.966 143.499 349.336 143.787 348.632 144C347.928 144.213 347.182 144.32 346.392 144.32ZM347.672 140.064C348.462 140.064 349.134 139.883 349.688 139.52C350.264 139.136 350.712 138.603 351.032 137.92C351.352 137.237 351.512 136.437 351.512 135.52C351.512 134.581 351.352 133.771 351.032 133.088C350.712 132.405 350.264 131.883 349.688 131.52C349.134 131.136 348.462 130.944 347.672 130.944C346.904 130.944 346.232 131.136 345.656 131.52C345.102 131.883 344.664 132.405 344.344 133.088C344.024 133.771 343.864 134.581 343.864 135.52C343.864 136.437 344.024 137.237 344.344 137.92C344.664 138.603 345.102 139.136 345.656 139.52C346.232 139.883 346.904 140.064 347.672 140.064ZM47.368 184.32C45.4907 184.32 43.848 183.947 42.44 183.2C41.0533 182.453 39.976 181.429 39.208 180.128C38.4613 178.805 38.088 177.301 38.088 175.616C38.088 174.293 38.3013 173.088 38.728 172C39.1547 170.891 39.752 169.941 40.52 169.152C41.3093 168.363 42.2267 167.755 43.272 167.328C44.3387 166.88 45.5013 166.656 46.76 166.656C47.9547 166.656 49.0427 166.869 50.024 167.296C51.0053 167.723 51.8587 168.32 52.584 169.088C53.3093 169.856 53.864 170.763 54.248 171.808C54.632 172.853 54.8133 173.995 54.792 175.232L54.76 176.64H41.256L40.488 173.728H50.568L50.024 174.304V173.664C49.9813 173.131 49.8107 172.672 49.512 172.288C49.2347 171.883 48.8613 171.563 48.392 171.328C47.944 171.093 47.432 170.976 46.856 170.976C46.0027 170.976 45.2773 171.147 44.68 171.488C44.104 171.808 43.6667 172.277 43.368 172.896C43.0693 173.515 42.92 174.283 42.92 175.2C42.92 176.117 43.112 176.928 43.496 177.632C43.9013 178.336 44.4773 178.88 45.224 179.264C45.992 179.648 46.8987 179.84 47.944 179.84C48.648 179.84 49.288 179.733 49.864 179.52C50.44 179.307 51.0587 178.944 51.72 178.432L54.12 181.824C53.4587 182.379 52.7547 182.848 52.008 183.232C51.2613 183.595 50.4933 183.861 49.704 184.032C48.936 184.224 48.1573 184.32 47.368 184.32ZM68.4235 184L64.8075 178.528L63.1435 176.224L56.4235 167.008H62.5995L66.1195 172.256L67.8795 174.72L74.5355 184H68.4235ZM56.2635 184L63.1115 174.496L65.8635 177.792L62.3435 184H56.2635ZM67.5595 176.608L64.8075 173.312L68.1675 167.008H74.2155L67.5595 176.608ZM84.5243 184.32C82.6469 184.32 81.0043 183.947 79.5963 183.2C78.2096 182.453 77.1323 181.429 76.3643 180.128C75.6176 178.805 75.2443 177.301 75.2443 175.616C75.2443 174.293 75.4576 173.088 75.8843 172C76.3109 170.891 76.9083 169.941 77.6763 169.152C78.4656 168.363 79.3829 167.755 80.4283 167.328C81.4949 166.88 82.6576 166.656 83.9163 166.656C85.1109 166.656 86.1989 166.869 87.1803 167.296C88.1616 167.723 89.0149 168.32 89.7403 169.088C90.4656 169.856 91.0203 170.763 91.4043 171.808C91.7883 172.853 91.9696 173.995 91.9483 175.232L91.9163 176.64H78.4123L77.6443 173.728H87.7243L87.1803 174.304V173.664C87.1376 173.131 86.9669 172.672 86.6683 172.288C86.3909 171.883 86.0176 171.563 85.5483 171.328C85.1003 171.093 84.5883 170.976 84.0123 170.976C83.1589 170.976 82.4336 171.147 81.8363 171.488C81.2603 171.808 80.8229 172.277 80.5243 172.896C80.2256 173.515 80.0763 174.283 80.0763 175.2C80.0763 176.117 80.2683 176.928 80.6523 177.632C81.0576 178.336 81.6336 178.88 82.3802 179.264C83.1483 179.648 84.0549 179.84 85.1003 179.84C85.8043 179.84 86.4443 179.733 87.0203 179.52C87.5963 179.307 88.2149 178.944 88.8763 178.432L91.2763 181.824C90.6149 182.379 89.9109 182.848 89.1643 183.232C88.4176 183.595 87.6496 183.861 86.8603 184.032C86.0923 184.224 85.3136 184.32 84.5243 184.32ZM95.2095 184V167.008H100.106L100.33 172.544L99.3695 171.456C99.6468 170.56 100.074 169.749 100.65 169.024C101.226 168.299 101.908 167.723 102.698 167.296C103.508 166.869 104.351 166.656 105.226 166.656C105.61 166.656 105.962 166.688 106.282 166.752C106.623 166.795 106.922 166.869 107.178 166.976L105.802 172.64C105.567 172.512 105.247 172.405 104.842 172.32C104.458 172.213 104.052 172.16 103.626 172.16C103.156 172.16 102.719 172.245 102.314 172.416C101.93 172.565 101.588 172.789 101.29 173.088C101.012 173.387 100.788 173.739 100.618 174.144C100.468 174.549 100.394 175.008 100.394 175.52V184H95.2095ZM116.541 184.32C114.898 184.32 113.415 183.936 112.093 183.168C110.791 182.4 109.767 181.355 109.021 180.032C108.274 178.688 107.901 177.184 107.901 175.52C107.901 173.813 108.274 172.299 109.021 170.976C109.767 169.632 110.791 168.576 112.093 167.808C113.415 167.04 114.898 166.656 116.541 166.656C118.055 166.656 119.442 166.933 120.701 167.488C121.981 168.021 122.983 168.757 123.708 169.696L120.925 173.088C120.647 172.725 120.306 172.395 119.901 172.096C119.495 171.797 119.047 171.563 118.557 171.392C118.066 171.221 117.554 171.136 117.021 171.136C116.21 171.136 115.495 171.328 114.877 171.712C114.258 172.075 113.778 172.587 113.437 173.248C113.095 173.909 112.925 174.656 112.925 175.488C112.925 176.299 113.095 177.035 113.437 177.696C113.799 178.336 114.29 178.848 114.909 179.232C115.527 179.616 116.221 179.808 116.989 179.808C117.543 179.808 118.055 179.733 118.525 179.584C118.994 179.435 119.421 179.221 119.805 178.944C120.21 178.667 120.583 178.336 120.925 177.952L123.708 181.344C122.983 182.24 121.97 182.965 120.669 183.52C119.367 184.053 117.991 184.32 116.541 184.32ZM126.81 184V167.008H131.962V184H126.81ZM129.402 163.648C128.421 163.648 127.653 163.424 127.098 162.976C126.565 162.507 126.298 161.845 126.298 160.992C126.298 160.203 126.575 159.563 127.13 159.072C127.685 158.581 128.442 158.336 129.402 158.336C130.341 158.336 131.077 158.571 131.61 159.04C132.165 159.488 132.442 160.139 132.442 160.992C132.442 161.781 132.165 162.421 131.61 162.912C131.077 163.403 130.341 163.648 129.402 163.648ZM142.531 184.32C140.91 184.32 139.459 184.064 138.179 183.552C136.899 183.019 135.875 182.293 135.107 181.376L138.243 178.688C138.905 179.349 139.651 179.84 140.483 180.16C141.315 180.459 142.105 180.608 142.851 180.608C143.129 180.608 143.374 180.576 143.587 180.512C143.801 180.448 143.982 180.363 144.131 180.256C144.302 180.128 144.43 179.989 144.515 179.84C144.601 179.669 144.643 179.477 144.643 179.264C144.643 178.837 144.462 178.517 144.099 178.304C143.929 178.197 143.619 178.069 143.171 177.92C142.723 177.749 142.147 177.579 141.443 177.408C140.441 177.152 139.566 176.843 138.819 176.48C138.094 176.117 137.497 175.701 137.027 175.232C136.601 174.805 136.27 174.315 136.035 173.76C135.822 173.205 135.715 172.587 135.715 171.904C135.715 170.859 136.025 169.941 136.643 169.152C137.283 168.363 138.115 167.755 139.139 167.328C140.163 166.88 141.273 166.656 142.467 166.656C143.406 166.656 144.291 166.763 145.123 166.976C145.977 167.189 146.766 167.488 147.491 167.872C148.238 168.256 148.899 168.715 149.475 169.248L146.755 172.288C146.393 171.925 145.966 171.605 145.475 171.328C144.985 171.029 144.494 170.795 144.003 170.624C143.513 170.432 143.054 170.336 142.627 170.336C142.307 170.336 142.019 170.368 141.763 170.432C141.529 170.475 141.326 170.56 141.155 170.688C141.006 170.795 140.889 170.933 140.803 171.104C140.718 171.253 140.675 171.424 140.675 171.616C140.675 171.851 140.729 172.064 140.835 172.256C140.963 172.427 141.134 172.587 141.347 172.736C141.539 172.843 141.87 172.981 142.339 173.152C142.83 173.323 143.47 173.515 144.259 173.728C145.262 174.005 146.115 174.325 146.819 174.688C147.545 175.029 148.121 175.435 148.547 175.904C148.91 176.267 149.166 176.693 149.315 177.184C149.486 177.653 149.571 178.165 149.571 178.72C149.571 179.808 149.262 180.779 148.643 181.632C148.046 182.464 147.214 183.125 146.147 183.616C145.102 184.085 143.897 184.32 142.531 184.32ZM160.743 184.32C158.866 184.32 157.223 183.947 155.815 183.2C154.428 182.453 153.351 181.429 152.583 180.128C151.836 178.805 151.463 177.301 151.463 175.616C151.463 174.293 151.676 173.088 152.103 172C152.53 170.891 153.127 169.941 153.895 169.152C154.684 168.363 155.602 167.755 156.647 167.328C157.714 166.88 158.876 166.656 160.135 166.656C161.33 166.656 162.418 166.869 163.399 167.296C164.38 167.723 165.234 168.32 165.959 169.088C166.684 169.856 167.239 170.763 167.623 171.808C168.007 172.853 168.188 173.995 168.167 175.232L168.135 176.64H154.631L153.863 173.728H163.943L163.399 174.304V173.664C163.356 173.131 163.186 172.672 162.887 172.288C162.61 171.883 162.236 171.563 161.767 171.328C161.319 171.093 160.807 170.976 160.231 170.976C159.378 170.976 158.652 171.147 158.055 171.488C157.479 171.808 157.042 172.277 156.743 172.896C156.444 173.515 156.295 174.283 156.295 175.2C156.295 176.117 156.487 176.928 156.871 177.632C157.276 178.336 157.852 178.88 158.599 179.264C159.367 179.648 160.274 179.84 161.319 179.84C162.023 179.84 162.663 179.733 163.239 179.52C163.815 179.307 164.434 178.944 165.095 178.432L167.495 181.824C166.834 182.379 166.13 182.848 165.383 183.232C164.636 183.595 163.868 183.861 163.079 184.032C162.311 184.224 161.532 184.32 160.743 184.32ZM175.428 176.288L174.372 172.128C175.162 171.936 175.887 171.712 176.548 171.456C177.231 171.179 177.818 170.88 178.308 170.56C178.82 170.219 179.215 169.835 179.492 169.408C179.791 168.96 179.94 168.459 179.94 167.904C179.94 167.477 179.834 167.115 179.62 166.816C179.407 166.517 179.13 166.283 178.788 166.112C178.447 165.941 178.074 165.856 177.668 165.856C177.114 165.856 176.58 165.963 176.068 166.176C175.556 166.368 175.023 166.667 174.468 167.072C173.935 167.477 173.338 167.979 172.676 168.576L170.052 164.96C170.735 164.256 171.482 163.616 172.292 163.04C173.124 162.464 174.02 162.005 174.98 161.664C175.962 161.301 176.996 161.12 178.084 161.12C179.556 161.12 180.804 161.408 181.828 161.984C182.874 162.56 183.674 163.349 184.228 164.352C184.783 165.333 185.06 166.443 185.06 167.68C185.06 168.725 184.804 169.696 184.292 170.592C183.78 171.467 183.034 172.277 182.052 173.024C181.092 173.771 179.93 174.485 178.564 175.168L178.212 176.288H175.428ZM174.244 181.472C174.244 180.619 174.5 179.925 175.012 179.392C175.524 178.837 176.196 178.56 177.028 178.56C177.903 178.56 178.575 178.816 179.044 179.328C179.535 179.819 179.78 180.533 179.78 181.472C179.78 182.325 179.524 183.019 179.012 183.552C178.522 184.085 177.86 184.352 177.028 184.352C176.154 184.352 175.471 184.107 174.98 183.616C174.49 183.104 174.244 182.389 174.244 181.472Z" fill="#F0F0F0"/>
<path d="M403.304 296.288C402.493 296.288 401.731 296.139 401.016 295.84C400.301 295.541 399.677 295.125 399.144 294.592C398.611 294.048 398.189 293.419 397.88 292.704C397.581 291.989 397.432 291.221 397.432 290.4C397.432 289.579 397.581 288.811 397.88 288.096C398.189 287.381 398.611 286.757 399.144 286.224C399.677 285.68 400.301 285.259 401.016 284.96C401.731 284.661 402.493 284.512 403.304 284.512C404.125 284.512 404.888 284.661 405.592 284.96C406.307 285.259 406.931 285.68 407.464 286.224C408.008 286.757 408.429 287.381 408.728 288.096C409.037 288.811 409.192 289.579 409.192 290.4C409.192 291.221 409.037 291.989 408.728 292.704C408.429 293.419 408.008 294.048 407.464 294.592C406.931 295.125 406.307 295.541 405.592 295.84C404.888 296.139 404.125 296.288 403.304 296.288ZM403.576 293.712C402.947 293.712 402.371 293.568 401.848 293.28C401.336 292.992 400.925 292.597 400.616 292.096C400.317 291.595 400.168 291.029 400.168 290.4C400.168 289.792 400.317 289.237 400.616 288.736C400.925 288.235 401.336 287.835 401.848 287.536C402.371 287.237 402.947 287.088 403.576 287.088C403.96 287.088 404.333 287.157 404.696 287.296C405.059 287.424 405.405 287.611 405.736 287.856L404.952 289.552C404.707 289.371 404.488 289.248 404.296 289.184C404.104 289.12 403.928 289.088 403.768 289.088C403.501 289.088 403.261 289.147 403.048 289.264C402.835 289.381 402.669 289.541 402.552 289.744C402.435 289.936 402.376 290.155 402.376 290.4C402.376 290.667 402.435 290.901 402.552 291.104C402.669 291.307 402.835 291.467 403.048 291.584C403.261 291.691 403.501 291.744 403.768 291.744C403.949 291.744 404.147 291.712 404.36 291.648C404.573 291.573 404.787 291.451 405 291.28L405.8 293.008C405.469 293.243 405.112 293.419 404.728 293.536C404.355 293.653 403.971 293.712 403.576 293.712ZM403.304 295.088C403.955 295.088 404.563 294.971 405.128 294.736C405.693 294.491 406.189 294.155 406.616 293.728C407.053 293.291 407.389 292.789 407.624 292.224C407.869 291.659 407.992 291.051 407.992 290.4C407.992 289.739 407.869 289.125 407.624 288.56C407.389 287.995 407.053 287.499 406.616 287.072C406.189 286.645 405.693 286.315 405.128 286.08C404.563 285.835 403.955 285.712 403.304 285.712C402.653 285.712 402.045 285.835 401.48 286.08C400.925 286.315 400.435 286.645 400.008 287.072C399.581 287.499 399.245 287.995 399 288.56C398.765 289.125 398.648 289.739 398.648 290.4C398.648 291.051 398.765 291.659 399 292.224C399.245 292.789 399.576 293.291 399.992 293.728C400.419 294.155 400.915 294.491 401.48 294.736C402.045 294.971 402.653 295.088 403.304 295.088ZM418.51 296L414.958 287.504H417.79L419.902 293.792L419.278 293.872L421.454 287.504H424.27L420.526 296H418.51ZM425.749 296V287.504H428.325V296H425.749ZM427.045 285.824C426.554 285.824 426.17 285.712 425.893 285.488C425.626 285.253 425.493 284.923 425.493 284.496C425.493 284.101 425.631 283.781 425.909 283.536C426.186 283.291 426.565 283.168 427.045 283.168C427.514 283.168 427.882 283.285 428.149 283.52C428.426 283.744 428.565 284.069 428.565 284.496C428.565 284.891 428.426 285.211 428.149 285.456C427.882 285.701 427.514 285.824 427.045 285.824ZM435.977 296L434.169 293.264L433.337 292.112L429.977 287.504H433.065L434.825 290.128L435.705 291.36L439.033 296H435.977ZM429.897 296L433.321 291.248L434.697 292.896L432.937 296H429.897ZM435.545 292.304L434.169 290.656L435.849 287.504H438.873L435.545 292.304ZM445.696 296L443.888 293.264L443.056 292.112L439.696 287.504H442.784L444.544 290.128L445.424 291.36L448.752 296H445.696ZM439.616 296L443.04 291.248L444.416 292.896L442.656 296H439.616ZM445.264 292.304L443.888 290.656L445.568 287.504H448.592L445.264 292.304ZM451.271 299.68L453.207 295.136L453.239 296.48L449.127 287.504H452.039L453.831 291.792C453.927 291.995 454.018 292.224 454.103 292.48C454.188 292.736 454.252 292.976 454.295 293.2L453.927 293.408C453.991 293.248 454.06 293.045 454.135 292.8C454.22 292.555 454.311 292.293 454.407 292.016L455.975 287.504H458.903L455.303 296L453.847 299.68H451.271ZM460.392 296.176C459.954 296.176 459.613 296.053 459.368 295.808C459.133 295.552 459.016 295.195 459.016 294.736C459.016 294.309 459.138 293.963 459.384 293.696C459.64 293.419 459.976 293.28 460.392 293.28C460.829 293.28 461.17 293.408 461.416 293.664C461.661 293.909 461.784 294.267 461.784 294.736C461.784 295.163 461.65 295.509 461.384 295.776C461.128 296.043 460.797 296.176 460.392 296.176ZM468.102 296V290.784C468.102 290.347 467.979 290.027 467.734 289.824C467.499 289.611 467.168 289.504 466.742 289.504C466.326 289.504 465.952 289.584 465.622 289.744C465.302 289.893 464.992 290.144 464.694 290.496L463.158 289.008C463.67 288.485 464.256 288.075 464.918 287.776C465.579 287.477 466.299 287.328 467.078 287.328C467.792 287.328 468.411 287.435 468.934 287.648C469.456 287.861 469.862 288.187 470.15 288.624C470.438 289.061 470.582 289.616 470.582 290.288V296H468.102ZM465.894 296.16C465.36 296.16 464.875 296.053 464.438 295.84C464.011 295.627 463.67 295.333 463.414 294.96C463.168 294.576 463.046 294.128 463.046 293.616C463.046 293.179 463.126 292.795 463.286 292.464C463.446 292.133 463.68 291.861 463.99 291.648C464.31 291.424 464.704 291.259 465.174 291.152C465.654 291.035 466.208 290.976 466.838 290.976H469.414L469.27 292.592H466.902C466.678 292.592 466.48 292.613 466.31 292.656C466.139 292.688 465.995 292.747 465.878 292.832C465.76 292.907 465.67 292.997 465.606 293.104C465.552 293.211 465.526 293.339 465.526 293.488C465.526 293.648 465.568 293.787 465.654 293.904C465.739 294.021 465.851 294.112 465.99 294.176C466.139 294.24 466.31 294.272 466.502 294.272C466.779 294.272 467.04 294.229 467.286 294.144C467.542 294.048 467.766 293.915 467.958 293.744C468.16 293.573 468.32 293.376 468.438 293.152L468.886 294.304C468.662 294.667 468.39 294.987 468.07 295.264C467.76 295.541 467.419 295.76 467.046 295.92C466.683 296.08 466.299 296.16 465.894 296.16ZM472.636 299.52V287.504H475.084L475.196 289.376L474.7 289.232C474.764 288.891 474.94 288.581 475.228 288.304C475.527 288.016 475.895 287.787 476.332 287.616C476.769 287.435 477.233 287.344 477.724 287.344C478.449 287.344 479.095 287.531 479.66 287.904C480.225 288.277 480.668 288.8 480.988 289.472C481.319 290.133 481.484 290.896 481.484 291.76C481.484 292.603 481.319 293.355 480.988 294.016C480.668 294.677 480.22 295.2 479.644 295.584C479.079 295.957 478.433 296.144 477.708 296.144C477.217 296.144 476.753 296.053 476.316 295.872C475.879 295.68 475.511 295.435 475.212 295.136C474.913 294.837 474.721 294.512 474.636 294.16L475.228 293.92V299.52H472.636ZM477.084 293.968C477.468 293.968 477.799 293.877 478.076 293.696C478.364 293.515 478.583 293.259 478.732 292.928C478.892 292.587 478.972 292.197 478.972 291.76C478.972 291.312 478.892 290.923 478.732 290.592C478.583 290.251 478.364 289.989 478.076 289.808C477.799 289.616 477.468 289.52 477.084 289.52C476.689 289.52 476.348 289.616 476.06 289.808C475.772 289.989 475.548 290.245 475.388 290.576C475.228 290.907 475.148 291.301 475.148 291.76C475.148 292.197 475.228 292.587 475.388 292.928C475.548 293.259 475.772 293.515 476.06 293.696C476.348 293.877 476.689 293.968 477.084 293.968ZM483.167 299.52V287.504H485.615L485.727 289.376L485.231 289.232C485.295 288.891 485.471 288.581 485.759 288.304C486.058 288.016 486.426 287.787 486.863 287.616C487.301 287.435 487.765 287.344 488.255 287.344C488.981 287.344 489.626 287.531 490.191 287.904C490.757 288.277 491.199 288.8 491.519 289.472C491.85 290.133 492.015 290.896 492.015 291.76C492.015 292.603 491.85 293.355 491.519 294.016C491.199 294.677 490.751 295.2 490.175 295.584C489.61 295.957 488.965 296.144 488.239 296.144C487.749 296.144 487.285 296.053 486.847 295.872C486.41 295.68 486.042 295.435 485.743 295.136C485.445 294.837 485.253 294.512 485.167 294.16L485.759 293.92V299.52H483.167ZM487.615 293.968C487.999 293.968 488.33 293.877 488.607 293.696C488.895 293.515 489.114 293.259 489.263 292.928C489.423 292.587 489.503 292.197 489.503 291.76C489.503 291.312 489.423 290.923 489.263 290.592C489.114 290.251 488.895 289.989 488.607 289.808C488.33 289.616 487.999 289.52 487.615 289.52C487.221 289.52 486.879 289.616 486.591 289.808C486.303 289.989 486.079 290.245 485.919 290.576C485.759 290.907 485.679 291.301 485.679 291.76C485.679 292.197 485.759 292.587 485.919 292.928C486.079 293.259 486.303 293.515 486.591 293.696C486.879 293.877 487.221 293.968 487.615 293.968Z" fill="white"/>
</svg>
