<svg width="533" height="306" viewBox="0 0 533 306" fill="none" xmlns="http://www.w3.org/2000/svg">
<rect width="522" height="306" rx="40" fill="#FFCF76"/>
<path d="M496.207 44.2915C497.262 45.3414 497.262 47.042 496.207 48.0918C495.684 48.6167 494.992 48.8771 494.3 48.8771C493.608 48.8771 492.918 48.6146 492.391 48.0897L483.5 39.2441L474.609 48.0876C474.082 48.6167 473.391 48.8771 472.7 48.8771C472.009 48.8771 471.319 48.6167 470.791 48.0876C469.736 47.0378 469.736 45.3372 470.791 44.2874L479.684 35.4354L470.791 26.5876C469.736 25.5378 469.736 23.8372 470.791 22.7874C471.846 21.7375 473.554 21.7375 474.609 22.7874L483.5 31.6435L492.393 22.7916C493.448 21.7417 495.156 21.7417 496.211 22.7916C497.266 23.8414 497.266 25.542 496.211 26.5918L487.318 35.4438L496.207 44.2915Z" fill="white"/>
<path d="M66.408 102V57.2H77.352V102H66.408ZM38.568 102V57.2H49.512V102H38.568ZM42.92 84.592V74.736H72.168V84.592H42.92ZM105.594 102V81.136C105.594 79.3867 105.103 78.1067 104.122 77.296C103.183 76.4427 101.86 76.016 100.154 76.016C98.4895 76.016 96.9962 76.336 95.6735 76.976C94.3935 77.5733 93.1562 78.576 91.9615 79.984L85.8175 74.032C87.8655 71.9413 90.2122 70.2987 92.8575 69.104C95.5028 67.9093 98.3828 67.312 101.498 67.312C104.356 67.312 106.831 67.7387 108.922 68.592C111.012 69.4453 112.634 70.7467 113.786 72.496C114.938 74.2453 115.514 76.464 115.514 79.152V102H105.594ZM96.7615 102.64C94.6282 102.64 92.6868 102.213 90.9375 101.36C89.2308 100.507 87.8655 99.3333 86.8415 97.84C85.8602 96.304 85.3695 94.512 85.3695 92.464C85.3695 90.7147 85.6895 89.1787 86.3295 87.856C86.9695 86.5333 87.9082 85.4453 89.1455 84.592C90.4255 83.696 92.0042 83.0347 93.8815 82.608C95.8015 82.1387 98.0202 81.904 100.538 81.904H110.842L110.266 88.368H100.794C99.8975 88.368 99.1082 88.4533 98.4255 88.624C97.7428 88.752 97.1668 88.9867 96.6975 89.328C96.2282 89.6267 95.8655 89.9893 95.6095 90.416C95.3962 90.8427 95.2895 91.3547 95.2895 91.952C95.2895 92.592 95.4602 93.1467 95.8015 93.616C96.1428 94.0853 96.5908 94.448 97.1455 94.704C97.7428 94.96 98.4255 95.088 99.1935 95.088C100.303 95.088 101.348 94.9173 102.33 94.576C103.354 94.192 104.25 93.6587 105.018 92.976C105.828 92.2933 106.468 91.504 106.938 90.608L108.73 95.216C107.834 96.6667 106.746 97.9467 105.466 99.056C104.228 100.165 102.863 101.04 101.37 101.68C99.9188 102.32 98.3828 102.64 96.7615 102.64ZM133.478 102L119.27 68.016H130.598L139.046 93.168L136.55 93.488L145.254 68.016H156.518L141.542 102H133.478ZM177.111 102.64C173.356 102.64 170.071 101.893 167.255 100.4C164.482 98.9067 162.327 96.8587 160.791 94.256C159.298 91.6107 158.551 88.6027 158.551 85.232C158.551 82.5867 158.978 80.176 159.831 78C160.684 75.7813 161.879 73.8827 163.415 72.304C164.994 70.7253 166.828 69.5093 168.919 68.656C171.052 67.76 173.378 67.312 175.895 67.312C178.284 67.312 180.46 67.7387 182.423 68.592C184.386 69.4453 186.092 70.64 187.543 72.176C188.994 73.712 190.103 75.5253 190.871 77.616C191.639 79.7067 192.002 81.9893 191.959 84.464L191.895 87.28H164.887L163.351 81.456H183.511L182.423 82.608V81.328C182.338 80.2613 181.996 79.344 181.399 78.576C180.844 77.7653 180.098 77.1253 179.159 76.656C178.263 76.1867 177.239 75.952 176.087 75.952C174.38 75.952 172.93 76.2933 171.735 76.976C170.583 77.616 169.708 78.5547 169.111 79.792C168.514 81.0293 168.215 82.5653 168.215 84.4C168.215 86.2347 168.599 87.856 169.367 89.264C170.178 90.672 171.33 91.76 172.823 92.528C174.359 93.296 176.172 93.68 178.263 93.68C179.671 93.68 180.951 93.4667 182.103 93.04C183.255 92.6133 184.492 91.888 185.815 90.864L190.615 97.648C189.292 98.7573 187.884 99.696 186.391 100.464C184.898 101.189 183.362 101.723 181.783 102.064C180.247 102.448 178.69 102.64 177.111 102.64ZM237.031 102V81.136C237.031 79.3867 236.54 78.1067 235.559 77.296C234.62 76.4427 233.298 76.016 231.591 76.016C229.927 76.016 228.434 76.336 227.111 76.976C225.831 77.5733 224.594 78.576 223.399 79.984L217.255 74.032C219.303 71.9413 221.65 70.2987 224.295 69.104C226.94 67.9093 229.82 67.312 232.935 67.312C235.794 67.312 238.268 67.7387 240.359 68.592C242.45 69.4453 244.071 70.7467 245.223 72.496C246.375 74.2453 246.951 76.464 246.951 79.152V102H237.031ZM228.199 102.64C226.066 102.64 224.124 102.213 222.375 101.36C220.668 100.507 219.303 99.3333 218.279 97.84C217.298 96.304 216.807 94.512 216.807 92.464C216.807 90.7147 217.127 89.1787 217.767 87.856C218.407 86.5333 219.346 85.4453 220.583 84.592C221.863 83.696 223.442 83.0347 225.319 82.608C227.239 82.1387 229.458 81.904 231.975 81.904H242.279L241.703 88.368H232.231C231.335 88.368 230.546 88.4533 229.863 88.624C229.18 88.752 228.604 88.9867 228.135 89.328C227.666 89.6267 227.303 89.9893 227.047 90.416C226.834 90.8427 226.727 91.3547 226.727 91.952C226.727 92.592 226.898 93.1467 227.239 93.616C227.58 94.0853 228.028 94.448 228.583 94.704C229.18 94.96 229.863 95.088 230.631 95.088C231.74 95.088 232.786 94.9173 233.767 94.576C234.791 94.192 235.687 93.6587 236.455 92.976C237.266 92.2933 237.906 91.504 238.375 90.608L240.167 95.216C239.271 96.6667 238.183 97.9467 236.903 99.056C235.666 100.165 234.3 101.04 232.807 101.68C231.356 102.32 229.82 102.64 228.199 102.64ZM296.983 102.64C293.612 102.64 290.497 102.085 287.639 100.976C284.823 99.824 282.369 98.224 280.279 96.176C278.231 94.0853 276.631 91.632 275.479 88.816C274.369 85.9573 273.815 82.8427 273.815 79.472C273.815 76.144 274.391 73.072 275.543 70.256C276.737 67.44 278.401 64.9867 280.535 62.896C282.668 60.8053 285.164 59.184 288.023 58.032C290.924 56.88 294.06 56.304 297.431 56.304C299.564 56.304 301.655 56.5813 303.703 57.136C305.751 57.6907 307.649 58.5227 309.399 59.632C311.191 60.6987 312.727 62 314.007 63.536L307.287 71.152C305.964 69.7013 304.471 68.5707 302.807 67.76C301.185 66.9493 299.372 66.544 297.367 66.544C295.66 66.544 294.039 66.8427 292.503 67.44C291.009 68.0373 289.708 68.912 288.599 70.064C287.489 71.216 286.615 72.5813 285.975 74.16C285.335 75.7387 285.015 77.5307 285.015 79.536C285.015 81.4987 285.313 83.2907 285.911 84.912C286.551 86.4907 287.447 87.856 288.599 89.008C289.793 90.1173 291.201 90.9707 292.823 91.568C294.487 92.1653 296.321 92.464 298.327 92.464C299.649 92.464 300.908 92.2933 302.103 91.952C303.34 91.568 304.492 91.0347 305.559 90.352C306.625 89.6693 307.543 88.9013 308.311 88.048L313.623 96.496C312.599 97.648 311.191 98.6933 309.399 99.632C307.649 100.571 305.687 101.317 303.511 101.872C301.377 102.384 299.201 102.64 296.983 102.64ZM319.982 102V54.64H330.158V74.928L328.046 75.696C328.515 74.16 329.347 72.7733 330.542 71.536C331.779 70.256 333.251 69.232 334.958 68.464C336.664 67.696 338.456 67.312 340.334 67.312C342.894 67.312 345.048 67.8453 346.798 68.912C348.547 69.936 349.848 71.4933 350.701 73.584C351.598 75.632 352.046 78.1707 352.046 81.2V102H341.742V81.968C341.742 80.6027 341.55 79.472 341.166 78.576C340.782 77.68 340.206 77.0187 339.438 76.592C338.67 76.1653 337.71 75.9733 336.558 76.016C335.662 76.016 334.83 76.1653 334.062 76.464C333.294 76.72 332.611 77.1253 332.014 77.68C331.459 78.192 331.032 78.7893 330.734 79.472C330.435 80.1547 330.286 80.9227 330.286 81.776V102H325.102C323.992 102 322.99 102 322.094 102C321.24 102 320.536 102 319.982 102ZM378.781 102V81.136C378.781 79.3867 378.29 78.1067 377.309 77.296C376.37 76.4427 375.048 76.016 373.341 76.016C371.677 76.016 370.184 76.336 368.861 76.976C367.581 77.5733 366.344 78.576 365.149 79.984L359.005 74.032C361.053 71.9413 363.4 70.2987 366.045 69.104C368.69 67.9093 371.57 67.312 374.685 67.312C377.544 67.312 380.018 67.7387 382.109 68.592C384.2 69.4453 385.821 70.7467 386.973 72.496C388.125 74.2453 388.701 76.464 388.701 79.152V102H378.781ZM369.949 102.64C367.816 102.64 365.874 102.213 364.125 101.36C362.418 100.507 361.053 99.3333 360.029 97.84C359.048 96.304 358.557 94.512 358.557 92.464C358.557 90.7147 358.877 89.1787 359.517 87.856C360.157 86.5333 361.096 85.4453 362.333 84.592C363.613 83.696 365.192 83.0347 367.069 82.608C368.989 82.1387 371.208 81.904 373.725 81.904H384.029L383.453 88.368H373.981C373.085 88.368 372.296 88.4533 371.613 88.624C370.93 88.752 370.354 88.9867 369.885 89.328C369.416 89.6267 369.053 89.9893 368.797 90.416C368.584 90.8427 368.477 91.3547 368.477 91.952C368.477 92.592 368.648 93.1467 368.989 93.616C369.33 94.0853 369.778 94.448 370.333 94.704C370.93 94.96 371.613 95.088 372.381 95.088C373.49 95.088 374.536 94.9173 375.517 94.576C376.541 94.192 377.437 93.6587 378.205 92.976C379.016 92.2933 379.656 91.504 380.125 90.608L381.917 95.216C381.021 96.6667 379.933 97.9467 378.653 99.056C377.416 100.165 376.05 101.04 374.557 101.68C373.106 102.32 371.57 102.64 369.949 102.64ZM399.735 102V59.44H410.039V102H399.735ZM393.719 77.04V68.016H416.567V77.04H393.719Z" fill="white"/>
<path d="M39.368 144V139.392H43.144V126.208H39.368V121.6H52.392V126.208H48.616V139.392H52.392V144H39.368ZM58.43 144V122.72H63.582V144H58.43ZM55.422 131.52V127.008H66.846V131.52H55.422ZM76.1562 144.32C74.5349 144.32 73.0843 144.064 71.8043 143.552C70.5243 143.019 69.5003 142.293 68.7323 141.376L71.8683 138.688C72.5296 139.349 73.2763 139.84 74.1083 140.16C74.9403 140.459 75.7296 140.608 76.4763 140.608C76.7536 140.608 76.9989 140.576 77.2123 140.512C77.4256 140.448 77.6069 140.363 77.7563 140.256C77.9269 140.128 78.0549 139.989 78.1403 139.84C78.2256 139.669 78.2683 139.477 78.2683 139.264C78.2683 138.837 78.0869 138.517 77.7243 138.304C77.5536 138.197 77.2443 138.069 76.7963 137.92C76.3483 137.749 75.7723 137.579 75.0683 137.408C74.0656 137.152 73.1909 136.843 72.4443 136.48C71.7189 136.117 71.1216 135.701 70.6523 135.232C70.2256 134.805 69.8949 134.315 69.6603 133.76C69.4469 133.205 69.3403 132.587 69.3403 131.904C69.3403 130.859 69.6496 129.941 70.2682 129.152C70.9083 128.363 71.7403 127.755 72.7643 127.328C73.7883 126.88 74.8976 126.656 76.0923 126.656C77.0309 126.656 77.9163 126.763 78.7483 126.976C79.6016 127.189 80.3909 127.488 81.1163 127.872C81.8629 128.256 82.5243 128.715 83.1003 129.248L80.3803 132.288C80.0176 131.925 79.5909 131.605 79.1003 131.328C78.6096 131.029 78.1189 130.795 77.6283 130.624C77.1376 130.432 76.6789 130.336 76.2523 130.336C75.9323 130.336 75.6443 130.368 75.3883 130.432C75.1536 130.475 74.9509 130.56 74.7803 130.688C74.6309 130.795 74.5136 130.933 74.4283 131.104C74.3429 131.253 74.3003 131.424 74.3003 131.616C74.3003 131.851 74.3536 132.064 74.4603 132.256C74.5883 132.427 74.7589 132.587 74.9723 132.736C75.1643 132.843 75.4949 132.981 75.9643 133.152C76.4549 133.323 77.0949 133.515 77.8843 133.728C78.8869 134.005 79.7403 134.325 80.4443 134.688C81.1696 135.029 81.7456 135.435 82.1723 135.904C82.5349 136.267 82.7909 136.693 82.9403 137.184C83.1109 137.653 83.1963 138.165 83.1963 138.72C83.1963 139.808 82.8869 140.779 82.2683 141.632C81.6709 142.464 80.8389 143.125 79.7723 143.616C78.7269 144.085 77.5216 144.32 76.1562 144.32ZM104.267 151.36C102.901 151.36 101.525 151.157 100.139 150.752C98.7734 150.368 97.6641 149.856 96.8108 149.216L98.6028 145.568C99.2854 146.037 100.053 146.4 100.907 146.656C101.781 146.933 102.688 147.072 103.627 147.072C104.715 147.072 105.6 146.912 106.283 146.592C106.965 146.272 107.467 145.792 107.787 145.152C108.128 144.512 108.299 143.712 108.299 142.752V139.936L109.259 140.128C109.131 140.789 108.768 141.408 108.171 141.984C107.595 142.56 106.88 143.019 106.027 143.36C105.173 143.701 104.277 143.872 103.339 143.872C101.803 143.872 100.427 143.52 99.2108 142.816C97.9948 142.091 97.0348 141.099 96.3307 139.84C95.6481 138.56 95.3068 137.088 95.3068 135.424C95.3068 133.717 95.6481 132.203 96.3307 130.88C97.0348 129.557 97.9841 128.523 99.1788 127.776C100.373 127.029 101.717 126.656 103.211 126.656C103.829 126.656 104.427 126.731 105.003 126.88C105.6 127.008 106.144 127.2 106.635 127.456C107.147 127.712 107.595 128 107.979 128.32C108.384 128.64 108.715 128.992 108.971 129.376C109.227 129.76 109.387 130.144 109.451 130.528L108.395 130.848L108.587 127.008H113.483V142.592C113.483 143.979 113.269 145.216 112.843 146.304C112.437 147.392 111.829 148.309 111.019 149.056C110.229 149.803 109.269 150.368 108.139 150.752C107.008 151.157 105.717 151.36 104.267 151.36ZM104.395 139.872C105.227 139.872 105.941 139.691 106.539 139.328C107.157 138.965 107.627 138.453 107.947 137.792C108.288 137.131 108.459 136.363 108.459 135.488C108.459 134.571 108.288 133.781 107.947 133.12C107.627 132.459 107.157 131.947 106.539 131.584C105.941 131.2 105.227 131.008 104.395 131.008C103.605 131.008 102.912 131.2 102.315 131.584C101.717 131.947 101.248 132.459 100.907 133.12C100.587 133.781 100.427 134.56 100.427 135.456C100.427 136.352 100.587 137.131 100.907 137.792C101.248 138.453 101.717 138.965 102.315 139.328C102.912 139.691 103.605 139.872 104.395 139.872ZM125.896 144.32C124.147 144.32 122.579 143.947 121.192 143.2C119.806 142.432 118.718 141.387 117.928 140.064C117.139 138.72 116.744 137.205 116.744 135.52C116.744 133.792 117.139 132.267 117.928 130.944C118.718 129.6 119.806 128.555 121.192 127.808C122.579 127.04 124.147 126.656 125.896 126.656C127.667 126.656 129.235 127.04 130.6 127.808C131.987 128.555 133.075 129.6 133.864 130.944C134.654 132.267 135.048 133.792 135.048 135.52C135.048 137.205 134.654 138.72 133.864 140.064C133.075 141.387 131.987 142.432 130.6 143.2C129.235 143.947 127.667 144.32 125.896 144.32ZM125.896 139.904C126.664 139.904 127.336 139.712 127.912 139.328C128.51 138.944 128.979 138.421 129.32 137.76C129.662 137.099 129.822 136.352 129.8 135.52C129.822 134.645 129.662 133.877 129.32 133.216C128.979 132.533 128.51 132.011 127.912 131.648C127.336 131.264 126.664 131.072 125.896 131.072C125.15 131.072 124.478 131.264 123.88 131.648C123.283 132.032 122.814 132.555 122.472 133.216C122.131 133.877 121.96 134.645 121.96 135.52C121.96 136.352 122.131 137.099 122.472 137.76C122.814 138.421 123.283 138.944 123.88 139.328C124.478 139.712 125.15 139.904 125.896 139.904ZM146.365 144.32C144.616 144.32 143.048 143.947 141.661 143.2C140.274 142.432 139.186 141.387 138.397 140.064C137.608 138.72 137.213 137.205 137.213 135.52C137.213 133.792 137.608 132.267 138.397 130.944C139.186 129.6 140.274 128.555 141.661 127.808C143.048 127.04 144.616 126.656 146.365 126.656C148.136 126.656 149.704 127.04 151.069 127.808C152.456 128.555 153.544 129.6 154.333 130.944C155.122 132.267 155.517 133.792 155.517 135.52C155.517 137.205 155.122 138.72 154.333 140.064C153.544 141.387 152.456 142.432 151.069 143.2C149.704 143.947 148.136 144.32 146.365 144.32ZM146.365 139.904C147.133 139.904 147.805 139.712 148.381 139.328C148.978 138.944 149.448 138.421 149.789 137.76C150.13 137.099 150.29 136.352 150.269 135.52C150.29 134.645 150.13 133.877 149.789 133.216C149.448 132.533 148.978 132.011 148.381 131.648C147.805 131.264 147.133 131.072 146.365 131.072C145.618 131.072 144.946 131.264 144.349 131.648C143.752 132.032 143.282 132.555 142.941 133.216C142.6 133.877 142.429 134.645 142.429 135.52C142.429 136.352 142.6 137.099 142.941 137.76C143.282 138.421 143.752 138.944 144.349 139.328C144.946 139.712 145.618 139.904 146.365 139.904ZM165.33 144.32C163.879 144.32 162.567 143.947 161.394 143.2C160.242 142.453 159.335 141.419 158.674 140.096C158.012 138.752 157.682 137.227 157.682 135.52C157.682 133.813 158.012 132.299 158.674 130.976C159.335 129.632 160.242 128.576 161.394 127.808C162.567 127.04 163.89 126.656 165.362 126.656C166.13 126.656 166.866 126.773 167.57 127.008C168.295 127.243 168.935 127.563 169.49 127.968C170.066 128.373 170.535 128.832 170.898 129.344C171.26 129.856 171.484 130.4 171.57 130.976L170.322 131.264V120.32H175.474V144H170.674L170.386 140.16L171.41 140.352C171.367 140.864 171.175 141.365 170.834 141.856C170.492 142.325 170.034 142.752 169.458 143.136C168.903 143.499 168.274 143.787 167.57 144C166.866 144.213 166.119 144.32 165.33 144.32ZM166.61 140.064C167.399 140.064 168.071 139.883 168.626 139.52C169.202 139.136 169.65 138.603 169.97 137.92C170.29 137.237 170.45 136.437 170.45 135.52C170.45 134.581 170.29 133.771 169.97 133.088C169.65 132.405 169.202 131.883 168.626 131.52C168.071 131.136 167.399 130.944 166.61 130.944C165.842 130.944 165.17 131.136 164.594 131.52C164.039 131.883 163.602 132.405 163.282 133.088C162.962 133.771 162.802 134.581 162.802 135.52C162.802 136.437 162.962 137.237 163.282 137.92C163.602 138.603 164.039 139.136 164.594 139.52C165.17 139.883 165.842 140.064 166.61 140.064ZM191.43 144V122.72H196.582V144H191.43ZM188.422 131.52V127.008H199.846V131.52H188.422ZM210.615 144.32C208.866 144.32 207.298 143.947 205.911 143.2C204.524 142.432 203.436 141.387 202.647 140.064C201.858 138.72 201.463 137.205 201.463 135.52C201.463 133.792 201.858 132.267 202.647 130.944C203.436 129.6 204.524 128.555 205.911 127.808C207.298 127.04 208.866 126.656 210.615 126.656C212.386 126.656 213.954 127.04 215.319 127.808C216.706 128.555 217.794 129.6 218.583 130.944C219.372 132.267 219.767 133.792 219.767 135.52C219.767 137.205 219.372 138.72 218.583 140.064C217.794 141.387 216.706 142.432 215.319 143.2C213.954 143.947 212.386 144.32 210.615 144.32ZM210.615 139.904C211.383 139.904 212.055 139.712 212.631 139.328C213.228 138.944 213.698 138.421 214.039 137.76C214.38 137.099 214.54 136.352 214.519 135.52C214.54 134.645 214.38 133.877 214.039 133.216C213.698 132.533 213.228 132.011 212.631 131.648C212.055 131.264 211.383 131.072 210.615 131.072C209.868 131.072 209.196 131.264 208.599 131.648C208.002 132.032 207.532 132.555 207.191 133.216C206.85 133.877 206.679 134.645 206.679 135.52C206.679 136.352 206.85 137.099 207.191 137.76C207.532 138.421 208.002 138.944 208.599 139.328C209.196 139.712 209.868 139.904 210.615 139.904ZM243.543 144.32C242.775 144.32 242.039 144.213 241.335 144C240.652 143.787 240.023 143.509 239.447 143.168C238.871 142.805 238.391 142.389 238.007 141.92C237.644 141.451 237.409 140.96 237.303 140.448L238.423 140.064L238.135 143.936H233.335V120.32H238.519V130.976L237.463 130.624C237.591 130.091 237.836 129.589 238.199 129.12C238.561 128.651 239.009 128.235 239.543 127.872C240.097 127.488 240.705 127.189 241.367 126.976C242.028 126.763 242.711 126.656 243.415 126.656C244.887 126.656 246.188 127.04 247.319 127.808C248.471 128.576 249.377 129.632 250.039 130.976C250.7 132.299 251.031 133.813 251.031 135.52C251.031 137.227 250.7 138.741 250.039 140.064C249.399 141.387 248.513 142.432 247.383 143.2C246.252 143.947 244.972 144.32 243.543 144.32ZM242.199 140C242.967 140 243.628 139.819 244.183 139.456C244.759 139.072 245.207 138.549 245.527 137.888C245.847 137.205 246.007 136.416 246.007 135.52C246.007 134.603 245.847 133.813 245.527 133.152C245.228 132.469 244.791 131.947 244.215 131.584C243.639 131.2 242.967 131.008 242.199 131.008C241.431 131.008 240.759 131.2 240.183 131.584C239.607 131.947 239.159 132.469 238.839 133.152C238.519 133.813 238.359 134.603 238.359 135.52C238.359 136.416 238.519 137.205 238.839 137.888C239.159 138.549 239.607 139.072 240.183 139.456C240.759 139.819 241.431 140 242.199 140ZM262.493 144.32C260.616 144.32 258.973 143.947 257.565 143.2C256.178 142.453 255.101 141.429 254.333 140.128C253.586 138.805 253.213 137.301 253.213 135.616C253.213 134.293 253.426 133.088 253.853 132C254.28 130.891 254.877 129.941 255.645 129.152C256.434 128.363 257.352 127.755 258.397 127.328C259.464 126.88 260.626 126.656 261.885 126.656C263.08 126.656 264.168 126.869 265.149 127.296C266.13 127.723 266.984 128.32 267.709 129.088C268.434 129.856 268.989 130.763 269.373 131.808C269.757 132.853 269.938 133.995 269.917 135.232L269.885 136.64H256.381L255.613 133.728H265.693L265.149 134.304V133.664C265.106 133.131 264.936 132.672 264.637 132.288C264.36 131.883 263.986 131.563 263.517 131.328C263.069 131.093 262.557 130.976 261.981 130.976C261.128 130.976 260.402 131.147 259.805 131.488C259.229 131.808 258.792 132.277 258.493 132.896C258.194 133.515 258.045 134.283 258.045 135.2C258.045 136.117 258.237 136.928 258.621 137.632C259.026 138.336 259.602 138.88 260.349 139.264C261.117 139.648 262.024 139.84 263.069 139.84C263.773 139.84 264.413 139.733 264.989 139.52C265.565 139.307 266.184 138.944 266.845 138.432L269.245 141.824C268.584 142.379 267.88 142.848 267.133 143.232C266.386 143.595 265.618 143.861 264.829 144.032C264.061 144.224 263.282 144.32 262.493 144.32ZM289.125 144.32C287.504 144.32 286.053 144.064 284.773 143.552C283.493 143.019 282.469 142.293 281.701 141.376L284.837 138.688C285.498 139.349 286.245 139.84 287.077 140.16C287.909 140.459 288.698 140.608 289.445 140.608C289.722 140.608 289.968 140.576 290.181 140.512C290.394 140.448 290.576 140.363 290.725 140.256C290.896 140.128 291.024 139.989 291.109 139.84C291.194 139.669 291.237 139.477 291.237 139.264C291.237 138.837 291.056 138.517 290.693 138.304C290.522 138.197 290.213 138.069 289.765 137.92C289.317 137.749 288.741 137.579 288.037 137.408C287.034 137.152 286.16 136.843 285.413 136.48C284.688 136.117 284.09 135.701 283.621 135.232C283.194 134.805 282.864 134.315 282.629 133.76C282.416 133.205 282.309 132.587 282.309 131.904C282.309 130.859 282.618 129.941 283.237 129.152C283.877 128.363 284.709 127.755 285.733 127.328C286.757 126.88 287.866 126.656 289.061 126.656C290 126.656 290.885 126.763 291.717 126.976C292.57 127.189 293.36 127.488 294.085 127.872C294.832 128.256 295.493 128.715 296.069 129.248L293.349 132.288C292.986 131.925 292.56 131.605 292.069 131.328C291.578 131.029 291.088 130.795 290.597 130.624C290.106 130.432 289.648 130.336 289.221 130.336C288.901 130.336 288.613 130.368 288.357 130.432C288.122 130.475 287.92 130.56 287.749 130.688C287.6 130.795 287.482 130.933 287.397 131.104C287.312 131.253 287.269 131.424 287.269 131.616C287.269 131.851 287.322 132.064 287.429 132.256C287.557 132.427 287.728 132.587 287.941 132.736C288.133 132.843 288.464 132.981 288.933 133.152C289.424 133.323 290.064 133.515 290.853 133.728C291.856 134.005 292.709 134.325 293.413 134.688C294.138 135.029 294.714 135.435 295.141 135.904C295.504 136.267 295.76 136.693 295.909 137.184C296.08 137.653 296.165 138.165 296.165 138.72C296.165 139.808 295.856 140.779 295.237 141.632C294.64 142.464 293.808 143.125 292.741 143.616C291.696 144.085 290.49 144.32 289.125 144.32ZM307.209 144.32C305.459 144.32 303.891 143.947 302.505 143.2C301.118 142.432 300.03 141.387 299.241 140.064C298.451 138.72 298.057 137.205 298.057 135.52C298.057 133.792 298.451 132.267 299.241 130.944C300.03 129.6 301.118 128.555 302.505 127.808C303.891 127.04 305.459 126.656 307.209 126.656C308.979 126.656 310.547 127.04 311.913 127.808C313.299 128.555 314.387 129.6 315.177 130.944C315.966 132.267 316.361 133.792 316.361 135.52C316.361 137.205 315.966 138.72 315.177 140.064C314.387 141.387 313.299 142.432 311.913 143.2C310.547 143.947 308.979 144.32 307.209 144.32ZM307.209 139.904C307.977 139.904 308.649 139.712 309.225 139.328C309.822 138.944 310.291 138.421 310.633 137.76C310.974 137.099 311.134 136.352 311.113 135.52C311.134 134.645 310.974 133.877 310.633 133.216C310.291 132.533 309.822 132.011 309.225 131.648C308.649 131.264 307.977 131.072 307.209 131.072C306.462 131.072 305.79 131.264 305.193 131.648C304.595 132.032 304.126 132.555 303.785 133.216C303.443 133.877 303.273 134.645 303.273 135.52C303.273 136.352 303.443 137.099 303.785 137.76C304.126 138.421 304.595 138.944 305.193 139.328C305.79 139.712 306.462 139.904 307.209 139.904ZM327.166 144.32C325.523 144.32 324.04 143.936 322.718 143.168C321.416 142.4 320.392 141.355 319.646 140.032C318.899 138.688 318.526 137.184 318.526 135.52C318.526 133.813 318.899 132.299 319.646 130.976C320.392 129.632 321.416 128.576 322.718 127.808C324.04 127.04 325.523 126.656 327.166 126.656C328.68 126.656 330.067 126.933 331.326 127.488C332.606 128.021 333.608 128.757 334.333 129.696L331.55 133.088C331.272 132.725 330.931 132.395 330.526 132.096C330.12 131.797 329.672 131.563 329.182 131.392C328.691 131.221 328.179 131.136 327.646 131.136C326.835 131.136 326.12 131.328 325.502 131.712C324.883 132.075 324.403 132.587 324.062 133.248C323.72 133.909 323.55 134.656 323.55 135.488C323.55 136.299 323.72 137.035 324.062 137.696C324.424 138.336 324.915 138.848 325.534 139.232C326.152 139.616 326.846 139.808 327.614 139.808C328.168 139.808 328.68 139.733 329.15 139.584C329.619 139.435 330.046 139.221 330.43 138.944C330.835 138.667 331.208 138.336 331.55 137.952L334.333 141.344C333.608 142.24 332.595 142.965 331.294 143.52C329.992 144.053 328.616 144.32 327.166 144.32ZM337.435 144V127.008H342.587V144H337.435ZM340.027 123.648C339.046 123.648 338.278 123.424 337.723 122.976C337.19 122.507 336.923 121.845 336.923 120.992C336.923 120.203 337.2 119.563 337.755 119.072C338.31 118.581 339.067 118.336 340.027 118.336C340.966 118.336 341.702 118.571 342.235 119.04C342.79 119.488 343.067 120.139 343.067 120.992C343.067 121.781 342.79 122.421 342.235 122.912C341.702 123.403 340.966 123.648 340.027 123.648ZM356.484 144V133.568C356.484 132.693 356.239 132.053 355.748 131.648C355.279 131.221 354.618 131.008 353.764 131.008C352.932 131.008 352.186 131.168 351.524 131.488C350.884 131.787 350.266 132.288 349.668 132.992L346.596 130.016C347.62 128.971 348.794 128.149 350.116 127.552C351.439 126.955 352.879 126.656 354.436 126.656C355.866 126.656 357.103 126.869 358.148 127.296C359.194 127.723 360.004 128.373 360.58 129.248C361.156 130.123 361.444 131.232 361.444 132.576V144H356.484ZM352.068 144.32C351.002 144.32 350.031 144.107 349.156 143.68C348.303 143.253 347.62 142.667 347.108 141.92C346.618 141.152 346.372 140.256 346.372 139.232C346.372 138.357 346.532 137.589 346.852 136.928C347.172 136.267 347.642 135.723 348.26 135.296C348.9 134.848 349.69 134.517 350.628 134.304C351.588 134.069 352.698 133.952 353.956 133.952H359.108L358.82 137.184H354.084C353.636 137.184 353.242 137.227 352.9 137.312C352.559 137.376 352.271 137.493 352.036 137.664C351.802 137.813 351.62 137.995 351.492 138.208C351.386 138.421 351.332 138.677 351.332 138.976C351.332 139.296 351.418 139.573 351.588 139.808C351.759 140.043 351.983 140.224 352.26 140.352C352.559 140.48 352.9 140.544 353.284 140.544C353.839 140.544 354.362 140.459 354.852 140.288C355.364 140.096 355.812 139.829 356.196 139.488C356.602 139.147 356.922 138.752 357.156 138.304L358.052 140.608C357.604 141.333 357.06 141.973 356.42 142.528C355.802 143.083 355.119 143.52 354.372 143.84C353.647 144.16 352.879 144.32 352.068 144.32ZM365.553 144V120.32H370.705V144H365.553ZM45.736 184.32C44.2853 184.32 42.9733 183.947 41.8 183.2C40.648 182.453 39.7413 181.419 39.08 180.096C38.4187 178.752 38.088 177.227 38.088 175.52C38.088 173.813 38.4187 172.299 39.08 170.976C39.7413 169.632 40.648 168.576 41.8 167.808C42.9733 167.04 44.296 166.656 45.768 166.656C46.536 166.656 47.272 166.773 47.976 167.008C48.7013 167.243 49.3413 167.563 49.896 167.968C50.472 168.373 50.9413 168.832 51.304 169.344C51.6667 169.856 51.8907 170.4 51.976 170.976L50.728 171.264V160.32H55.88V184H51.08L50.792 180.16L51.816 180.352C51.7733 180.864 51.5813 181.365 51.24 181.856C50.8987 182.325 50.44 182.752 49.864 183.136C49.3093 183.499 48.68 183.787 47.976 184C47.272 184.213 46.5253 184.32 45.736 184.32ZM47.016 180.064C47.8053 180.064 48.4773 179.883 49.032 179.52C49.608 179.136 50.056 178.603 50.376 177.92C50.696 177.237 50.856 176.437 50.856 175.52C50.856 174.581 50.696 173.771 50.376 173.088C50.056 172.405 49.608 171.883 49.032 171.52C48.4773 171.136 47.8053 170.944 47.016 170.944C46.248 170.944 45.576 171.136 45 171.52C44.4453 171.883 44.008 172.405 43.688 173.088C43.368 173.771 43.208 174.581 43.208 175.52C43.208 176.437 43.368 177.237 43.688 177.92C44.008 178.603 44.4453 179.136 45 179.52C45.576 179.883 46.248 180.064 47.016 180.064ZM66.5015 184.32C65.2642 184.32 64.1975 184.053 63.3015 183.52C62.4055 182.965 61.7122 182.187 61.2215 181.184C60.7522 180.16 60.5175 178.933 60.5175 177.504V167.008H65.6695V176.736C65.6695 177.781 65.9148 178.603 66.4055 179.2C66.9175 179.776 67.6215 180.064 68.5175 180.064C68.9655 180.064 69.3708 180 69.7335 179.872C70.0962 179.723 70.4055 179.52 70.6615 179.264C70.9388 178.987 71.1522 178.667 71.3015 178.304C71.4508 177.941 71.5255 177.547 71.5255 177.12V167.008H76.6775V184H71.8455L71.6535 180.512L72.5815 180.128C72.3468 180.917 71.9202 181.632 71.3015 182.272C70.7042 182.912 69.9895 183.413 69.1575 183.776C68.3255 184.139 67.4402 184.32 66.5015 184.32ZM81.272 184V167.008H86.168L86.392 172.544L85.432 171.456C85.7093 170.56 86.136 169.749 86.712 169.024C87.288 168.299 87.9707 167.723 88.76 167.296C89.5707 166.869 90.4133 166.656 91.288 166.656C91.672 166.656 92.024 166.688 92.344 166.752C92.6853 166.795 92.984 166.869 93.24 166.976L91.864 172.64C91.6293 172.512 91.3093 172.405 90.904 172.32C90.52 172.213 90.1147 172.16 89.688 172.16C89.2187 172.16 88.7813 172.245 88.376 172.416C87.992 172.565 87.6507 172.789 87.352 173.088C87.0747 173.387 86.8507 173.739 86.68 174.144C86.5307 174.549 86.456 175.008 86.456 175.52V184H81.272ZM96.1538 184V167.008H101.306V184H96.1538ZM98.7458 163.648C97.7644 163.648 96.9964 163.424 96.4418 162.976C95.9084 162.507 95.6418 161.845 95.6418 160.992C95.6418 160.203 95.9191 159.563 96.4738 159.072C97.0284 158.581 97.7858 158.336 98.7458 158.336C99.6844 158.336 100.42 158.571 100.954 159.04C101.508 159.488 101.786 160.139 101.786 160.992C101.786 161.781 101.508 162.421 100.954 162.912C100.42 163.403 99.6844 163.648 98.7458 163.648ZM106.147 184V167.008H111.043L111.235 170.464L110.179 170.848C110.414 170.08 110.83 169.387 111.427 168.768C112.046 168.128 112.782 167.616 113.635 167.232C114.488 166.848 115.384 166.656 116.323 166.656C117.603 166.656 118.68 166.923 119.555 167.456C120.43 167.968 121.08 168.747 121.507 169.792C121.955 170.816 122.179 172.085 122.179 173.6V184H117.027V173.984C117.027 173.301 116.931 172.736 116.739 172.288C116.547 171.84 116.259 171.509 115.875 171.296C115.491 171.083 115.011 170.987 114.435 171.008C113.987 171.008 113.571 171.083 113.187 171.232C112.803 171.36 112.462 171.563 112.163 171.84C111.886 172.096 111.672 172.395 111.523 172.736C111.374 173.077 111.299 173.461 111.299 173.888V184H108.707C108.152 184 107.651 184 107.203 184C106.776 184 106.424 184 106.147 184ZM134.267 191.36C132.901 191.36 131.525 191.157 130.139 190.752C128.773 190.368 127.664 189.856 126.811 189.216L128.603 185.568C129.285 186.037 130.053 186.4 130.907 186.656C131.781 186.933 132.688 187.072 133.627 187.072C134.715 187.072 135.6 186.912 136.283 186.592C136.965 186.272 137.467 185.792 137.787 185.152C138.128 184.512 138.299 183.712 138.299 182.752V179.936L139.259 180.128C139.131 180.789 138.768 181.408 138.171 181.984C137.595 182.56 136.88 183.019 136.027 183.36C135.173 183.701 134.277 183.872 133.339 183.872C131.803 183.872 130.427 183.52 129.211 182.816C127.995 182.091 127.035 181.099 126.331 179.84C125.648 178.56 125.307 177.088 125.307 175.424C125.307 173.717 125.648 172.203 126.331 170.88C127.035 169.557 127.984 168.523 129.179 167.776C130.373 167.029 131.717 166.656 133.211 166.656C133.829 166.656 134.427 166.731 135.003 166.88C135.6 167.008 136.144 167.2 136.635 167.456C137.147 167.712 137.595 168 137.979 168.32C138.384 168.64 138.715 168.992 138.971 169.376C139.227 169.76 139.387 170.144 139.451 170.528L138.395 170.848L138.587 167.008H143.483V182.592C143.483 183.979 143.269 185.216 142.843 186.304C142.437 187.392 141.829 188.309 141.019 189.056C140.229 189.803 139.269 190.368 138.139 190.752C137.008 191.157 135.717 191.36 134.267 191.36ZM134.395 179.872C135.227 179.872 135.941 179.691 136.539 179.328C137.157 178.965 137.627 178.453 137.947 177.792C138.288 177.131 138.459 176.363 138.459 175.488C138.459 174.571 138.288 173.781 137.947 173.12C137.627 172.459 137.157 171.947 136.539 171.584C135.941 171.2 135.227 171.008 134.395 171.008C133.605 171.008 132.912 171.2 132.315 171.584C131.717 171.947 131.248 172.459 130.907 173.12C130.587 173.781 130.427 174.56 130.427 175.456C130.427 176.352 130.587 177.131 130.907 177.792C131.248 178.453 131.717 178.965 132.315 179.328C132.912 179.691 133.605 179.872 134.395 179.872ZM159.555 184V162.72H164.707V184H159.555ZM156.547 171.52V167.008H167.971V171.52H156.547ZM170.928 184V160.32H176.016V170.464L174.96 170.848C175.195 170.08 175.611 169.387 176.208 168.768C176.827 168.128 177.563 167.616 178.416 167.232C179.27 166.848 180.166 166.656 181.104 166.656C182.384 166.656 183.462 166.923 184.336 167.456C185.211 167.968 185.862 168.747 186.288 169.792C186.736 170.816 186.96 172.085 186.96 173.6V184H181.808V173.984C181.808 173.301 181.712 172.736 181.52 172.288C181.328 171.84 181.04 171.509 180.656 171.296C180.272 171.083 179.792 170.987 179.216 171.008C178.768 171.008 178.352 171.083 177.968 171.232C177.584 171.36 177.243 171.563 176.944 171.84C176.667 172.096 176.454 172.395 176.304 172.736C176.155 173.077 176.08 173.461 176.08 173.888V184H173.488C172.934 184 172.432 184 171.984 184C171.558 184 171.206 184 170.928 184ZM199.368 184.32C197.491 184.32 195.848 183.947 194.44 183.2C193.053 182.453 191.976 181.429 191.208 180.128C190.461 178.805 190.088 177.301 190.088 175.616C190.088 174.293 190.301 173.088 190.728 172C191.155 170.891 191.752 169.941 192.52 169.152C193.309 168.363 194.227 167.755 195.272 167.328C196.339 166.88 197.501 166.656 198.76 166.656C199.955 166.656 201.043 166.869 202.024 167.296C203.005 167.723 203.859 168.32 204.584 169.088C205.309 169.856 205.864 170.763 206.248 171.808C206.632 172.853 206.813 173.995 206.792 175.232L206.76 176.64H193.256L192.488 173.728H202.568L202.024 174.304V173.664C201.981 173.131 201.811 172.672 201.512 172.288C201.235 171.883 200.861 171.563 200.392 171.328C199.944 171.093 199.432 170.976 198.856 170.976C198.003 170.976 197.277 171.147 196.68 171.488C196.104 171.808 195.667 172.277 195.368 172.896C195.069 173.515 194.92 174.283 194.92 175.2C194.92 176.117 195.112 176.928 195.496 177.632C195.901 178.336 196.477 178.88 197.224 179.264C197.992 179.648 198.899 179.84 199.944 179.84C200.648 179.84 201.288 179.733 201.864 179.52C202.44 179.307 203.059 178.944 203.72 178.432L206.12 181.824C205.459 182.379 204.755 182.848 204.008 183.232C203.261 183.595 202.493 183.861 201.704 184.032C200.936 184.224 200.157 184.32 199.368 184.32ZM226.736 184.32C225.285 184.32 223.973 183.947 222.8 183.2C221.648 182.453 220.741 181.419 220.08 180.096C219.419 178.752 219.088 177.227 219.088 175.52C219.088 173.813 219.419 172.299 220.08 170.976C220.741 169.632 221.648 168.576 222.8 167.808C223.973 167.04 225.296 166.656 226.768 166.656C227.536 166.656 228.272 166.773 228.976 167.008C229.701 167.243 230.341 167.563 230.896 167.968C231.472 168.373 231.941 168.832 232.304 169.344C232.667 169.856 232.891 170.4 232.976 170.976L231.728 171.264V160.32H236.88V184H232.08L231.792 180.16L232.816 180.352C232.773 180.864 232.581 181.365 232.24 181.856C231.899 182.325 231.44 182.752 230.864 183.136C230.309 183.499 229.68 183.787 228.976 184C228.272 184.213 227.525 184.32 226.736 184.32ZM228.016 180.064C228.805 180.064 229.477 179.883 230.032 179.52C230.608 179.136 231.056 178.603 231.376 177.92C231.696 177.237 231.856 176.437 231.856 175.52C231.856 174.581 231.696 173.771 231.376 173.088C231.056 172.405 230.608 171.883 230.032 171.52C229.477 171.136 228.805 170.944 228.016 170.944C227.248 170.944 226.576 171.136 226 171.52C225.445 171.883 225.008 172.405 224.688 173.088C224.368 173.771 224.208 174.581 224.208 175.52C224.208 176.437 224.368 177.237 224.688 177.92C225.008 178.603 225.445 179.136 226 179.52C226.576 179.883 227.248 180.064 228.016 180.064ZM250.266 184V173.568C250.266 172.693 250.02 172.053 249.53 171.648C249.06 171.221 248.399 171.008 247.546 171.008C246.714 171.008 245.967 171.168 245.306 171.488C244.666 171.787 244.047 172.288 243.45 172.992L240.378 170.016C241.402 168.971 242.575 168.149 243.898 167.552C245.22 166.955 246.66 166.656 248.218 166.656C249.647 166.656 250.884 166.869 251.93 167.296C252.975 167.723 253.786 168.373 254.362 169.248C254.938 170.123 255.226 171.232 255.226 172.576V184H250.266ZM245.85 184.32C244.783 184.32 243.812 184.107 242.938 183.68C242.084 183.253 241.402 182.667 240.89 181.92C240.399 181.152 240.154 180.256 240.154 179.232C240.154 178.357 240.314 177.589 240.634 176.928C240.954 176.267 241.423 175.723 242.042 175.296C242.682 174.848 243.471 174.517 244.41 174.304C245.37 174.069 246.479 173.952 247.738 173.952H252.89L252.602 177.184H247.866C247.418 177.184 247.023 177.227 246.682 177.312C246.34 177.376 246.052 177.493 245.818 177.664C245.583 177.813 245.402 177.995 245.274 178.208C245.167 178.421 245.114 178.677 245.114 178.976C245.114 179.296 245.199 179.573 245.37 179.808C245.54 180.043 245.764 180.224 246.042 180.352C246.34 180.48 246.682 180.544 247.066 180.544C247.62 180.544 248.143 180.459 248.634 180.288C249.146 180.096 249.594 179.829 249.978 179.488C250.383 179.147 250.703 178.752 250.938 178.304L251.834 180.608C251.386 181.333 250.842 181.973 250.202 182.528C249.583 183.083 248.9 183.52 248.154 183.84C247.428 184.16 246.66 184.32 245.85 184.32ZM261.136 191.36L265.008 182.272L265.072 184.96L256.848 167.008H262.672L266.256 175.584C266.448 175.989 266.629 176.448 266.8 176.96C266.97 177.472 267.098 177.952 267.184 178.4L266.448 178.816C266.576 178.496 266.714 178.091 266.864 177.6C267.034 177.109 267.216 176.587 267.408 176.032L270.544 167.008H276.4L269.2 184L266.288 191.36H261.136ZM279.859 175.84C279.667 174.517 279.485 173.163 279.315 171.776C279.144 170.368 279.005 168.971 278.899 167.584C278.792 166.176 278.739 164.843 278.739 163.584V161.248H284.179V163.584C284.179 164.864 284.125 166.219 284.019 167.648C283.912 169.056 283.773 170.464 283.603 171.872C283.432 173.259 283.251 174.581 283.059 175.84H279.859ZM281.427 184.352C280.552 184.352 279.869 184.107 279.379 183.616C278.888 183.104 278.643 182.389 278.643 181.472C278.643 180.64 278.899 179.947 279.411 179.392C279.923 178.837 280.595 178.56 281.427 178.56C282.301 178.56 282.984 178.816 283.475 179.328C283.965 179.819 284.211 180.533 284.211 181.472C284.211 182.325 283.955 183.019 283.443 183.552C282.931 184.085 282.259 184.352 281.427 184.352Z" fill="#F0F0F0"/>
<path d="M403.304 296.288C402.493 296.288 401.731 296.139 401.016 295.84C400.301 295.541 399.677 295.125 399.144 294.592C398.611 294.048 398.189 293.419 397.88 292.704C397.581 291.989 397.432 291.221 397.432 290.4C397.432 289.579 397.581 288.811 397.88 288.096C398.189 287.381 398.611 286.757 399.144 286.224C399.677 285.68 400.301 285.259 401.016 284.96C401.731 284.661 402.493 284.512 403.304 284.512C404.125 284.512 404.888 284.661 405.592 284.96C406.307 285.259 406.931 285.68 407.464 286.224C408.008 286.757 408.429 287.381 408.728 288.096C409.037 288.811 409.192 289.579 409.192 290.4C409.192 291.221 409.037 291.989 408.728 292.704C408.429 293.419 408.008 294.048 407.464 294.592C406.931 295.125 406.307 295.541 405.592 295.84C404.888 296.139 404.125 296.288 403.304 296.288ZM403.576 293.712C402.947 293.712 402.371 293.568 401.848 293.28C401.336 292.992 400.925 292.597 400.616 292.096C400.317 291.595 400.168 291.029 400.168 290.4C400.168 289.792 400.317 289.237 400.616 288.736C400.925 288.235 401.336 287.835 401.848 287.536C402.371 287.237 402.947 287.088 403.576 287.088C403.96 287.088 404.333 287.157 404.696 287.296C405.059 287.424 405.405 287.611 405.736 287.856L404.952 289.552C404.707 289.371 404.488 289.248 404.296 289.184C404.104 289.12 403.928 289.088 403.768 289.088C403.501 289.088 403.261 289.147 403.048 289.264C402.835 289.381 402.669 289.541 402.552 289.744C402.435 289.936 402.376 290.155 402.376 290.4C402.376 290.667 402.435 290.901 402.552 291.104C402.669 291.307 402.835 291.467 403.048 291.584C403.261 291.691 403.501 291.744 403.768 291.744C403.949 291.744 404.147 291.712 404.36 291.648C404.573 291.573 404.787 291.451 405 291.28L405.8 293.008C405.469 293.243 405.112 293.419 404.728 293.536C404.355 293.653 403.971 293.712 403.576 293.712ZM403.304 295.088C403.955 295.088 404.563 294.971 405.128 294.736C405.693 294.491 406.189 294.155 406.616 293.728C407.053 293.291 407.389 292.789 407.624 292.224C407.869 291.659 407.992 291.051 407.992 290.4C407.992 289.739 407.869 289.125 407.624 288.56C407.389 287.995 407.053 287.499 406.616 287.072C406.189 286.645 405.693 286.315 405.128 286.08C404.563 285.835 403.955 285.712 403.304 285.712C402.653 285.712 402.045 285.835 401.48 286.08C400.925 286.315 400.435 286.645 400.008 287.072C399.581 287.499 399.245 287.995 399 288.56C398.765 289.125 398.648 289.739 398.648 290.4C398.648 291.051 398.765 291.659 399 292.224C399.245 292.789 399.576 293.291 399.992 293.728C400.419 294.155 400.915 294.491 401.48 294.736C402.045 294.971 402.653 295.088 403.304 295.088ZM418.51 296L414.958 287.504H417.79L419.902 293.792L419.278 293.872L421.454 287.504H424.27L420.526 296H418.51ZM425.749 296V287.504H428.325V296H425.749ZM427.045 285.824C426.554 285.824 426.17 285.712 425.893 285.488C425.626 285.253 425.493 284.923 425.493 284.496C425.493 284.101 425.631 283.781 425.909 283.536C426.186 283.291 426.565 283.168 427.045 283.168C427.514 283.168 427.882 283.285 428.149 283.52C428.426 283.744 428.565 284.069 428.565 284.496C428.565 284.891 428.426 285.211 428.149 285.456C427.882 285.701 427.514 285.824 427.045 285.824ZM435.977 296L434.169 293.264L433.337 292.112L429.977 287.504H433.065L434.825 290.128L435.705 291.36L439.033 296H435.977ZM429.897 296L433.321 291.248L434.697 292.896L432.937 296H429.897ZM435.545 292.304L434.169 290.656L435.849 287.504H438.873L435.545 292.304ZM445.696 296L443.888 293.264L443.056 292.112L439.696 287.504H442.784L444.544 290.128L445.424 291.36L448.752 296H445.696ZM439.616 296L443.04 291.248L444.416 292.896L442.656 296H439.616ZM445.264 292.304L443.888 290.656L445.568 287.504H448.592L445.264 292.304ZM451.271 299.68L453.207 295.136L453.239 296.48L449.127 287.504H452.039L453.831 291.792C453.927 291.995 454.018 292.224 454.103 292.48C454.188 292.736 454.252 292.976 454.295 293.2L453.927 293.408C453.991 293.248 454.06 293.045 454.135 292.8C454.22 292.555 454.311 292.293 454.407 292.016L455.975 287.504H458.903L455.303 296L453.847 299.68H451.271ZM460.392 296.176C459.954 296.176 459.613 296.053 459.368 295.808C459.133 295.552 459.016 295.195 459.016 294.736C459.016 294.309 459.138 293.963 459.384 293.696C459.64 293.419 459.976 293.28 460.392 293.28C460.829 293.28 461.17 293.408 461.416 293.664C461.661 293.909 461.784 294.267 461.784 294.736C461.784 295.163 461.65 295.509 461.384 295.776C461.128 296.043 460.797 296.176 460.392 296.176ZM468.102 296V290.784C468.102 290.347 467.979 290.027 467.734 289.824C467.499 289.611 467.168 289.504 466.742 289.504C466.326 289.504 465.952 289.584 465.622 289.744C465.302 289.893 464.992 290.144 464.694 290.496L463.158 289.008C463.67 288.485 464.256 288.075 464.918 287.776C465.579 287.477 466.299 287.328 467.078 287.328C467.792 287.328 468.411 287.435 468.934 287.648C469.456 287.861 469.862 288.187 470.15 288.624C470.438 289.061 470.582 289.616 470.582 290.288V296H468.102ZM465.894 296.16C465.36 296.16 464.875 296.053 464.438 295.84C464.011 295.627 463.67 295.333 463.414 294.96C463.168 294.576 463.046 294.128 463.046 293.616C463.046 293.179 463.126 292.795 463.286 292.464C463.446 292.133 463.68 291.861 463.99 291.648C464.31 291.424 464.704 291.259 465.174 291.152C465.654 291.035 466.208 290.976 466.838 290.976H469.414L469.27 292.592H466.902C466.678 292.592 466.48 292.613 466.31 292.656C466.139 292.688 465.995 292.747 465.878 292.832C465.76 292.907 465.67 292.997 465.606 293.104C465.552 293.211 465.526 293.339 465.526 293.488C465.526 293.648 465.568 293.787 465.654 293.904C465.739 294.021 465.851 294.112 465.99 294.176C466.139 294.24 466.31 294.272 466.502 294.272C466.779 294.272 467.04 294.229 467.286 294.144C467.542 294.048 467.766 293.915 467.958 293.744C468.16 293.573 468.32 293.376 468.438 293.152L468.886 294.304C468.662 294.667 468.39 294.987 468.07 295.264C467.76 295.541 467.419 295.76 467.046 295.92C466.683 296.08 466.299 296.16 465.894 296.16ZM472.636 299.52V287.504H475.084L475.196 289.376L474.7 289.232C474.764 288.891 474.94 288.581 475.228 288.304C475.527 288.016 475.895 287.787 476.332 287.616C476.769 287.435 477.233 287.344 477.724 287.344C478.449 287.344 479.095 287.531 479.66 287.904C480.225 288.277 480.668 288.8 480.988 289.472C481.319 290.133 481.484 290.896 481.484 291.76C481.484 292.603 481.319 293.355 480.988 294.016C480.668 294.677 480.22 295.2 479.644 295.584C479.079 295.957 478.433 296.144 477.708 296.144C477.217 296.144 476.753 296.053 476.316 295.872C475.879 295.68 475.511 295.435 475.212 295.136C474.913 294.837 474.721 294.512 474.636 294.16L475.228 293.92V299.52H472.636ZM477.084 293.968C477.468 293.968 477.799 293.877 478.076 293.696C478.364 293.515 478.583 293.259 478.732 292.928C478.892 292.587 478.972 292.197 478.972 291.76C478.972 291.312 478.892 290.923 478.732 290.592C478.583 290.251 478.364 289.989 478.076 289.808C477.799 289.616 477.468 289.52 477.084 289.52C476.689 289.52 476.348 289.616 476.06 289.808C475.772 289.989 475.548 290.245 475.388 290.576C475.228 290.907 475.148 291.301 475.148 291.76C475.148 292.197 475.228 292.587 475.388 292.928C475.548 293.259 475.772 293.515 476.06 293.696C476.348 293.877 476.689 293.968 477.084 293.968ZM483.167 299.52V287.504H485.615L485.727 289.376L485.231 289.232C485.295 288.891 485.471 288.581 485.759 288.304C486.058 288.016 486.426 287.787 486.863 287.616C487.301 287.435 487.765 287.344 488.255 287.344C488.981 287.344 489.626 287.531 490.191 287.904C490.757 288.277 491.199 288.8 491.519 289.472C491.85 290.133 492.015 290.896 492.015 291.76C492.015 292.603 491.85 293.355 491.519 294.016C491.199 294.677 490.751 295.2 490.175 295.584C489.61 295.957 488.965 296.144 488.239 296.144C487.749 296.144 487.285 296.053 486.847 295.872C486.41 295.68 486.042 295.435 485.743 295.136C485.445 294.837 485.253 294.512 485.167 294.16L485.759 293.92V299.52H483.167ZM487.615 293.968C487.999 293.968 488.33 293.877 488.607 293.696C488.895 293.515 489.114 293.259 489.263 292.928C489.423 292.587 489.503 292.197 489.503 291.76C489.503 291.312 489.423 290.923 489.263 290.592C489.114 290.251 488.895 289.989 488.607 289.808C488.33 289.616 487.999 289.52 487.615 289.52C487.221 289.52 486.879 289.616 486.591 289.808C486.303 289.989 486.079 290.245 485.919 290.576C485.759 290.907 485.679 291.301 485.679 291.76C485.679 292.197 485.759 292.587 485.919 292.928C486.079 293.259 486.303 293.515 486.591 293.696C486.879 293.877 487.221 293.968 487.615 293.968Z" fill="white"/>
</svg>
