<svg width="533" height="306" viewBox="0 0 533 306" fill="none" xmlns="http://www.w3.org/2000/svg">
<rect width="522" height="306" rx="40" fill="#8BD5FF"/>
<path d="M496.207 44.2915C497.262 45.3414 497.262 47.042 496.207 48.0918C495.684 48.6167 494.992 48.8771 494.3 48.8771C493.608 48.8771 492.918 48.6146 492.391 48.0897L483.5 39.2441L474.609 48.0876C474.082 48.6167 473.391 48.8771 472.7 48.8771C472.009 48.8771 471.319 48.6167 470.791 48.0876C469.736 47.0378 469.736 45.3372 470.791 44.2874L479.684 35.4354L470.791 26.5876C469.736 25.5378 469.736 23.8372 470.791 22.7874C471.846 21.7375 473.554 21.7375 474.609 22.7874L483.5 31.6435L492.393 22.7916C493.448 21.7417 495.156 21.7417 496.211 22.7916C497.266 23.8414 497.266 25.542 496.211 26.5918L487.318 35.4438L496.207 44.2915Z" fill="white"/>
<path d="M66.408 102V57.2H77.352V102H66.408ZM38.568 102V57.2H49.512V102H38.568ZM42.92 84.592V74.736H72.168V84.592H42.92ZM105.594 102V81.136C105.594 79.3867 105.103 78.1067 104.122 77.296C103.183 76.4427 101.86 76.016 100.154 76.016C98.4895 76.016 96.9962 76.336 95.6735 76.976C94.3935 77.5733 93.1562 78.576 91.9615 79.984L85.8175 74.032C87.8655 71.9413 90.2122 70.2987 92.8575 69.104C95.5028 67.9093 98.3828 67.312 101.498 67.312C104.356 67.312 106.831 67.7387 108.922 68.592C111.012 69.4453 112.634 70.7467 113.786 72.496C114.938 74.2453 115.514 76.464 115.514 79.152V102H105.594ZM96.7615 102.64C94.6282 102.64 92.6868 102.213 90.9375 101.36C89.2308 100.507 87.8655 99.3333 86.8415 97.84C85.8602 96.304 85.3695 94.512 85.3695 92.464C85.3695 90.7147 85.6895 89.1787 86.3295 87.856C86.9695 86.5333 87.9082 85.4453 89.1455 84.592C90.4255 83.696 92.0042 83.0347 93.8815 82.608C95.8015 82.1387 98.0202 81.904 100.538 81.904H110.842L110.266 88.368H100.794C99.8975 88.368 99.1082 88.4533 98.4255 88.624C97.7428 88.752 97.1668 88.9867 96.6975 89.328C96.2282 89.6267 95.8655 89.9893 95.6095 90.416C95.3962 90.8427 95.2895 91.3547 95.2895 91.952C95.2895 92.592 95.4602 93.1467 95.8015 93.616C96.1428 94.0853 96.5908 94.448 97.1455 94.704C97.7428 94.96 98.4255 95.088 99.1935 95.088C100.303 95.088 101.348 94.9173 102.33 94.576C103.354 94.192 104.25 93.6587 105.018 92.976C105.828 92.2933 106.468 91.504 106.938 90.608L108.73 95.216C107.834 96.6667 106.746 97.9467 105.466 99.056C104.228 100.165 102.863 101.04 101.37 101.68C99.9188 102.32 98.3828 102.64 96.7615 102.64ZM133.478 102L119.27 68.016H130.598L139.046 93.168L136.55 93.488L145.254 68.016H156.518L141.542 102H133.478ZM177.111 102.64C173.356 102.64 170.071 101.893 167.255 100.4C164.482 98.9067 162.327 96.8587 160.791 94.256C159.298 91.6107 158.551 88.6027 158.551 85.232C158.551 82.5867 158.978 80.176 159.831 78C160.684 75.7813 161.879 73.8827 163.415 72.304C164.994 70.7253 166.828 69.5093 168.919 68.656C171.052 67.76 173.378 67.312 175.895 67.312C178.284 67.312 180.46 67.7387 182.423 68.592C184.386 69.4453 186.092 70.64 187.543 72.176C188.994 73.712 190.103 75.5253 190.871 77.616C191.639 79.7067 192.002 81.9893 191.959 84.464L191.895 87.28H164.887L163.351 81.456H183.511L182.423 82.608V81.328C182.338 80.2613 181.996 79.344 181.399 78.576C180.844 77.7653 180.098 77.1253 179.159 76.656C178.263 76.1867 177.239 75.952 176.087 75.952C174.38 75.952 172.93 76.2933 171.735 76.976C170.583 77.616 169.708 78.5547 169.111 79.792C168.514 81.0293 168.215 82.5653 168.215 84.4C168.215 86.2347 168.599 87.856 169.367 89.264C170.178 90.672 171.33 91.76 172.823 92.528C174.359 93.296 176.172 93.68 178.263 93.68C179.671 93.68 180.951 93.4667 182.103 93.04C183.255 92.6133 184.492 91.888 185.815 90.864L190.615 97.648C189.292 98.7573 187.884 99.696 186.391 100.464C184.898 101.189 183.362 101.723 181.783 102.064C180.247 102.448 178.69 102.64 177.111 102.64ZM237.031 102V81.136C237.031 79.3867 236.54 78.1067 235.559 77.296C234.62 76.4427 233.298 76.016 231.591 76.016C229.927 76.016 228.434 76.336 227.111 76.976C225.831 77.5733 224.594 78.576 223.399 79.984L217.255 74.032C219.303 71.9413 221.65 70.2987 224.295 69.104C226.94 67.9093 229.82 67.312 232.935 67.312C235.794 67.312 238.268 67.7387 240.359 68.592C242.45 69.4453 244.071 70.7467 245.223 72.496C246.375 74.2453 246.951 76.464 246.951 79.152V102H237.031ZM228.199 102.64C226.066 102.64 224.124 102.213 222.375 101.36C220.668 100.507 219.303 99.3333 218.279 97.84C217.298 96.304 216.807 94.512 216.807 92.464C216.807 90.7147 217.127 89.1787 217.767 87.856C218.407 86.5333 219.346 85.4453 220.583 84.592C221.863 83.696 223.442 83.0347 225.319 82.608C227.239 82.1387 229.458 81.904 231.975 81.904H242.279L241.703 88.368H232.231C231.335 88.368 230.546 88.4533 229.863 88.624C229.18 88.752 228.604 88.9867 228.135 89.328C227.666 89.6267 227.303 89.9893 227.047 90.416C226.834 90.8427 226.727 91.3547 226.727 91.952C226.727 92.592 226.898 93.1467 227.239 93.616C227.58 94.0853 228.028 94.448 228.583 94.704C229.18 94.96 229.863 95.088 230.631 95.088C231.74 95.088 232.786 94.9173 233.767 94.576C234.791 94.192 235.687 93.6587 236.455 92.976C237.266 92.2933 237.906 91.504 238.375 90.608L240.167 95.216C239.271 96.6667 238.183 97.9467 236.903 99.056C235.666 100.165 234.3 101.04 232.807 101.68C231.356 102.32 229.82 102.64 228.199 102.64ZM276.631 102V57.2H296.919C299.82 57.2 302.423 57.8187 304.727 59.056C307.031 60.2933 308.844 62 310.167 64.176C311.532 66.3093 312.215 68.7627 312.215 71.536C312.215 74.352 311.532 76.8693 310.167 79.088C308.844 81.3067 307.031 83.0773 304.727 84.4C302.423 85.68 299.82 86.32 296.919 86.32H287.062V102H276.631ZM301.527 102L290.135 81.712L301.335 80.112L314.007 102.064L301.527 102ZM287.062 77.808H295.959C297.068 77.808 298.028 77.5733 298.839 77.104C299.692 76.592 300.332 75.9093 300.759 75.056C301.228 74.2027 301.463 73.2213 301.463 72.112C301.463 70.96 301.185 69.9573 300.631 69.104C300.119 68.2507 299.372 67.5893 298.391 67.12C297.452 66.608 296.321 66.352 294.999 66.352H287.062V77.808ZM335.611 102.64C331.856 102.64 328.571 101.893 325.755 100.4C322.982 98.9067 320.827 96.8587 319.291 94.256C317.798 91.6107 317.051 88.6027 317.051 85.232C317.051 82.5867 317.478 80.176 318.331 78C319.184 75.7813 320.379 73.8827 321.915 72.304C323.494 70.7253 325.328 69.5093 327.419 68.656C329.552 67.76 331.878 67.312 334.395 67.312C336.784 67.312 338.96 67.7387 340.923 68.592C342.886 69.4453 344.592 70.64 346.043 72.176C347.494 73.712 348.603 75.5253 349.371 77.616C350.139 79.7067 350.502 81.9893 350.459 84.464L350.395 87.28H323.387L321.851 81.456H342.011L340.923 82.608V81.328C340.838 80.2613 340.496 79.344 339.899 78.576C339.344 77.7653 338.598 77.1253 337.659 76.656C336.763 76.1867 335.739 75.952 334.587 75.952C332.88 75.952 331.43 76.2933 330.235 76.976C329.083 77.616 328.208 78.5547 327.611 79.792C327.014 81.0293 326.715 82.5653 326.715 84.4C326.715 86.2347 327.099 87.856 327.867 89.264C328.678 90.672 329.83 91.76 331.323 92.528C332.859 93.296 334.672 93.68 336.763 93.68C338.171 93.68 339.451 93.4667 340.603 93.04C341.755 92.6133 342.992 91.888 344.315 90.864L349.115 97.648C347.792 98.7573 346.384 99.696 344.891 100.464C343.398 101.189 341.862 101.723 340.283 102.064C338.747 102.448 337.19 102.64 335.611 102.64ZM368.438 102.64C365.195 102.64 362.294 102.128 359.734 101.104C357.174 100.037 355.126 98.5867 353.59 96.752L359.862 91.376C361.184 92.6987 362.678 93.68 364.342 94.32C366.006 94.9173 367.584 95.216 369.078 95.216C369.632 95.216 370.123 95.152 370.55 95.024C370.976 94.896 371.339 94.7253 371.638 94.512C371.979 94.256 372.235 93.9787 372.406 93.68C372.576 93.3387 372.662 92.9547 372.662 92.528C372.662 91.6747 372.299 91.0347 371.574 90.608C371.232 90.3947 370.614 90.1387 369.718 89.84C368.822 89.4987 367.67 89.1573 366.262 88.816C364.256 88.304 362.507 87.6853 361.014 86.96C359.563 86.2347 358.368 85.4027 357.43 84.464C356.576 83.6107 355.915 82.6293 355.446 81.52C355.019 80.4107 354.806 79.1733 354.806 77.808C354.806 75.7173 355.424 73.8827 356.661 72.304C357.942 70.7253 359.606 69.5093 361.654 68.656C363.702 67.76 365.92 67.312 368.31 67.312C370.187 67.312 371.958 67.5253 373.622 67.952C375.328 68.3787 376.907 68.976 378.358 69.744C379.851 70.512 381.174 71.4293 382.326 72.496L376.886 78.576C376.16 77.8507 375.307 77.2107 374.326 76.656C373.344 76.0587 372.363 75.5893 371.382 75.248C370.4 74.864 369.483 74.672 368.63 74.672C367.99 74.672 367.414 74.736 366.902 74.864C366.432 74.9493 366.027 75.12 365.686 75.376C365.387 75.5893 365.152 75.8667 364.982 76.208C364.811 76.5067 364.726 76.848 364.726 77.232C364.726 77.7013 364.832 78.128 365.046 78.512C365.302 78.8533 365.643 79.1733 366.07 79.472C366.454 79.6853 367.115 79.9627 368.054 80.304C369.035 80.6453 370.315 81.0293 371.894 81.456C373.899 82.0107 375.606 82.6507 377.014 83.376C378.464 84.0587 379.616 84.8693 380.47 85.808C381.195 86.5333 381.707 87.3867 382.006 88.368C382.347 89.3067 382.518 90.3307 382.518 91.44C382.518 93.616 381.899 95.5573 380.662 97.264C379.467 98.928 377.803 100.251 375.67 101.232C373.579 102.171 371.168 102.64 368.438 102.64ZM391.485 102V59.44H401.789V102H391.485ZM385.469 77.04V68.016H408.317V77.04H385.469Z" fill="white"/>
<path d="M43.912 144L37.16 121.6H42.728L46.12 133.376C46.312 134.059 46.472 134.763 46.6 135.488C46.728 136.192 46.8347 136.853 46.92 137.472C47.0053 138.069 47.0587 138.539 47.08 138.88L46.344 138.912C46.4933 138.101 46.6107 137.387 46.696 136.768C46.7813 136.149 46.888 135.573 47.016 135.04C47.144 134.485 47.304 133.931 47.496 133.376L50.856 124.512H55.24L58.536 133.376C58.792 134.08 58.9947 134.752 59.144 135.392C59.3147 136.011 59.4427 136.597 59.528 137.152C59.6347 137.685 59.72 138.219 59.784 138.752L59.112 138.88C59.1547 138.475 59.1867 138.112 59.208 137.792C59.2507 137.472 59.2827 137.163 59.304 136.864C59.3253 136.544 59.3573 136.224 59.4 135.904C59.4427 135.563 59.5067 135.189 59.592 134.784C59.6773 134.357 59.7947 133.877 59.944 133.344L63.272 121.6H68.744L61.992 144H57.832L52.488 131.136L53.096 131.2L48.2 144H43.912ZM71.2095 144V120.32H76.2975V130.464L75.2415 130.848C75.4762 130.08 75.8922 129.387 76.4895 128.768C77.1082 128.128 77.8442 127.616 78.6975 127.232C79.5508 126.848 80.4468 126.656 81.3855 126.656C82.6655 126.656 83.7428 126.923 84.6175 127.456C85.4922 127.968 86.1428 128.747 86.5695 129.792C87.0175 130.816 87.2415 132.085 87.2415 133.6V144H82.0895V133.984C82.0895 133.301 81.9935 132.736 81.8015 132.288C81.6095 131.84 81.3215 131.509 80.9375 131.296C80.5535 131.083 80.0735 130.987 79.4975 131.008C79.0495 131.008 78.6335 131.083 78.2495 131.232C77.8655 131.36 77.5242 131.563 77.2255 131.84C76.9482 132.096 76.7348 132.395 76.5855 132.736C76.4362 133.077 76.3615 133.461 76.3615 133.888V144H73.7695C73.2148 144 72.7135 144 72.2655 144C71.8388 144 71.4868 144 71.2095 144ZM93.573 151.36L97.445 142.272L97.509 144.96L89.285 127.008H95.109L98.693 135.584C98.885 135.989 99.0663 136.448 99.237 136.96C99.4077 137.472 99.5357 137.952 99.621 138.4L98.885 138.816C99.013 138.496 99.1517 138.091 99.301 137.6C99.4717 137.109 99.653 136.587 99.845 136.032L102.981 127.008H108.837L101.637 144L98.725 151.36H93.573ZM121.491 144V127.008H126.387L126.579 130.464L125.523 130.848C125.757 130.08 126.173 129.387 126.771 128.768C127.389 128.128 128.125 127.616 128.979 127.232C129.832 126.848 130.728 126.656 131.667 126.656C132.947 126.656 134.024 126.923 134.899 127.456C135.773 127.968 136.424 128.747 136.851 129.792C137.299 130.816 137.523 132.085 137.523 133.6V144H132.371V133.984C132.371 133.301 132.275 132.736 132.083 132.288C131.891 131.84 131.603 131.509 131.219 131.296C130.835 131.083 130.355 130.987 129.779 131.008C129.331 131.008 128.915 131.083 128.531 131.232C128.147 131.36 127.805 131.563 127.507 131.84C127.229 132.096 127.016 132.395 126.867 132.736C126.717 133.077 126.643 133.461 126.643 133.888V144H124.051C123.496 144 122.995 144 122.547 144C122.12 144 121.768 144 121.491 144ZM149.803 144.32C148.053 144.32 146.485 143.947 145.099 143.2C143.712 142.432 142.624 141.387 141.835 140.064C141.045 138.72 140.651 137.205 140.651 135.52C140.651 133.792 141.045 132.267 141.835 130.944C142.624 129.6 143.712 128.555 145.099 127.808C146.485 127.04 148.053 126.656 149.803 126.656C151.573 126.656 153.141 127.04 154.507 127.808C155.893 128.555 156.981 129.6 157.771 130.944C158.56 132.267 158.955 133.792 158.955 135.52C158.955 137.205 158.56 138.72 157.771 140.064C156.981 141.387 155.893 142.432 154.507 143.2C153.141 143.947 151.573 144.32 149.803 144.32ZM149.803 139.904C150.571 139.904 151.243 139.712 151.819 139.328C152.416 138.944 152.885 138.421 153.227 137.76C153.568 137.099 153.728 136.352 153.707 135.52C153.728 134.645 153.568 133.877 153.227 133.216C152.885 132.533 152.416 132.011 151.819 131.648C151.243 131.264 150.571 131.072 149.803 131.072C149.056 131.072 148.384 131.264 147.786 131.648C147.189 132.032 146.72 132.555 146.379 133.216C146.037 133.877 145.867 134.645 145.867 135.52C145.867 136.352 146.037 137.099 146.379 137.76C146.72 138.421 147.189 138.944 147.786 139.328C148.384 139.712 149.056 139.904 149.803 139.904ZM163.711 144V122.72H168.863V144H163.711ZM160.703 131.52V127.008H172.127V131.52H160.703ZM185.271 144V127.008H190.167L190.327 130.08L189.623 130.144C189.858 129.589 190.178 129.099 190.583 128.672C190.989 128.245 191.437 127.893 191.927 127.616C192.439 127.317 192.973 127.093 193.527 126.944C194.082 126.773 194.637 126.688 195.191 126.688C196.045 126.688 196.802 126.816 197.463 127.072C198.146 127.328 198.733 127.744 199.223 128.32C199.735 128.896 200.141 129.664 200.439 130.624L199.671 130.496L199.895 130.048C200.194 129.536 200.557 129.077 200.983 128.672C201.431 128.245 201.922 127.883 202.455 127.584C202.989 127.285 203.533 127.061 204.087 126.912C204.663 126.763 205.218 126.688 205.751 126.688C207.095 126.688 208.215 126.955 209.111 127.488C210.007 128.021 210.679 128.811 211.127 129.856C211.575 130.88 211.799 132.149 211.799 133.664V144H206.647V134.048C206.647 133.045 206.434 132.299 206.007 131.808C205.602 131.296 204.983 131.04 204.151 131.04C203.703 131.04 203.287 131.115 202.903 131.264C202.541 131.392 202.221 131.595 201.943 131.872C201.687 132.128 201.485 132.427 201.335 132.768C201.186 133.109 201.111 133.493 201.111 133.92V144H195.959V134.016C195.959 133.056 195.735 132.32 195.287 131.808C194.861 131.296 194.253 131.04 193.463 131.04C193.037 131.04 192.631 131.115 192.247 131.264C191.885 131.392 191.565 131.595 191.287 131.872C191.031 132.128 190.829 132.427 190.679 132.768C190.53 133.109 190.455 133.493 190.455 133.92V144H185.271ZM225.141 144V133.568C225.141 132.693 224.895 132.053 224.405 131.648C223.935 131.221 223.274 131.008 222.421 131.008C221.589 131.008 220.842 131.168 220.181 131.488C219.541 131.787 218.922 132.288 218.325 132.992L215.253 130.016C216.277 128.971 217.45 128.149 218.773 127.552C220.095 126.955 221.535 126.656 223.093 126.656C224.522 126.656 225.759 126.869 226.805 127.296C227.85 127.723 228.661 128.373 229.237 129.248C229.813 130.123 230.101 131.232 230.101 132.576V144H225.141ZM220.725 144.32C219.658 144.32 218.687 144.107 217.812 143.68C216.959 143.253 216.277 142.667 215.765 141.92C215.274 141.152 215.029 140.256 215.029 139.232C215.029 138.357 215.189 137.589 215.509 136.928C215.829 136.267 216.298 135.723 216.917 135.296C217.557 134.848 218.346 134.517 219.285 134.304C220.245 134.069 221.354 133.952 222.613 133.952H227.765L227.477 137.184H222.741C222.293 137.184 221.898 137.227 221.557 137.312C221.215 137.376 220.927 137.493 220.693 137.664C220.458 137.813 220.277 137.995 220.149 138.208C220.042 138.421 219.989 138.677 219.989 138.976C219.989 139.296 220.074 139.573 220.245 139.808C220.415 140.043 220.639 140.224 220.917 140.352C221.215 140.48 221.557 140.544 221.941 140.544C222.495 140.544 223.018 140.459 223.509 140.288C224.021 140.096 224.469 139.829 224.853 139.488C225.258 139.147 225.578 138.752 225.813 138.304L226.709 140.608C226.261 141.333 225.717 141.973 225.077 142.528C224.458 143.083 223.775 143.52 223.029 143.84C222.303 144.16 221.535 144.32 220.725 144.32ZM239.138 139.008L237.314 135.104L245.218 127.008H251.97L239.138 139.008ZM234.21 144V120.32H239.362V144H234.21ZM245.698 144L239.778 136.32L243.426 133.504L251.81 144H245.698ZM261.649 144.32C259.772 144.32 258.129 143.947 256.721 143.2C255.335 142.453 254.257 141.429 253.489 140.128C252.743 138.805 252.369 137.301 252.369 135.616C252.369 134.293 252.583 133.088 253.009 132C253.436 130.891 254.033 129.941 254.801 129.152C255.591 128.363 256.508 127.755 257.553 127.328C258.62 126.88 259.783 126.656 261.041 126.656C262.236 126.656 263.324 126.869 264.305 127.296C265.287 127.723 266.14 128.32 266.865 129.088C267.591 129.856 268.145 130.763 268.529 131.808C268.913 132.853 269.095 133.995 269.073 135.232L269.041 136.64H255.537L254.769 133.728H264.849L264.305 134.304V133.664C264.263 133.131 264.092 132.672 263.793 132.288C263.516 131.883 263.143 131.563 262.673 131.328C262.225 131.093 261.713 130.976 261.137 130.976C260.284 130.976 259.559 131.147 258.961 131.488C258.385 131.808 257.948 132.277 257.649 132.896C257.351 133.515 257.201 134.283 257.201 135.2C257.201 136.117 257.393 136.928 257.777 137.632C258.183 138.336 258.759 138.88 259.505 139.264C260.273 139.648 261.18 139.84 262.225 139.84C262.929 139.84 263.569 139.733 264.145 139.52C264.721 139.307 265.34 138.944 266.001 138.432L268.401 141.824C267.74 142.379 267.036 142.848 266.289 143.232C265.543 143.595 264.775 143.861 263.985 144.032C263.217 144.224 262.439 144.32 261.649 144.32ZM283.961 144V122.72H289.113V144H283.961ZM280.953 131.52V127.008H292.377V131.52H280.953ZM303.146 144.32C301.397 144.32 299.829 143.947 298.442 143.2C297.056 142.432 295.968 141.387 295.178 140.064C294.389 138.72 293.994 137.205 293.994 135.52C293.994 133.792 294.389 132.267 295.178 130.944C295.968 129.6 297.056 128.555 298.442 127.808C299.829 127.04 301.397 126.656 303.146 126.656C304.917 126.656 306.485 127.04 307.85 127.808C309.237 128.555 310.325 129.6 311.114 130.944C311.904 132.267 312.298 133.792 312.298 135.52C312.298 137.205 311.904 138.72 311.114 140.064C310.325 141.387 309.237 142.432 307.85 143.2C306.485 143.947 304.917 144.32 303.146 144.32ZM303.146 139.904C303.914 139.904 304.586 139.712 305.162 139.328C305.76 138.944 306.229 138.421 306.57 137.76C306.912 137.099 307.072 136.352 307.05 135.52C307.072 134.645 306.912 133.877 306.57 133.216C306.229 132.533 305.76 132.011 305.162 131.648C304.586 131.264 303.914 131.072 303.146 131.072C302.4 131.072 301.728 131.264 301.13 131.648C300.533 132.032 300.064 132.555 299.722 133.216C299.381 133.877 299.21 134.645 299.21 135.52C299.21 136.352 299.381 137.099 299.722 137.76C300.064 138.421 300.533 138.944 301.13 139.328C301.728 139.712 302.4 139.904 303.146 139.904ZM322.111 144.32C320.66 144.32 319.348 143.947 318.175 143.2C317.023 142.453 316.116 141.419 315.455 140.096C314.794 138.752 314.463 137.227 314.463 135.52C314.463 133.813 314.794 132.299 315.455 130.976C316.116 129.632 317.023 128.576 318.175 127.808C319.348 127.04 320.671 126.656 322.143 126.656C322.911 126.656 323.647 126.773 324.351 127.008C325.076 127.243 325.716 127.563 326.271 127.968C326.847 128.373 327.316 128.832 327.679 129.344C328.042 129.856 328.266 130.4 328.351 130.976L327.103 131.264V120.32H332.255V144H327.455L327.167 140.16L328.191 140.352C328.148 140.864 327.956 141.365 327.615 141.856C327.274 142.325 326.815 142.752 326.239 143.136C325.684 143.499 325.055 143.787 324.351 144C323.647 144.213 322.9 144.32 322.111 144.32ZM323.391 140.064C324.18 140.064 324.852 139.883 325.407 139.52C325.983 139.136 326.431 138.603 326.751 137.92C327.071 137.237 327.231 136.437 327.231 135.52C327.231 134.581 327.071 133.771 326.751 133.088C326.431 132.405 325.983 131.883 325.407 131.52C324.852 131.136 324.18 130.944 323.391 130.944C322.623 130.944 321.951 131.136 321.375 131.52C320.82 131.883 320.383 132.405 320.063 133.088C319.743 133.771 319.583 134.581 319.583 135.52C319.583 136.437 319.743 137.237 320.063 137.92C320.383 138.603 320.82 139.136 321.375 139.52C321.951 139.883 322.623 140.064 323.391 140.064ZM345.641 144V133.568C345.641 132.693 345.395 132.053 344.905 131.648C344.435 131.221 343.774 131.008 342.921 131.008C342.089 131.008 341.342 131.168 340.681 131.488C340.041 131.787 339.422 132.288 338.825 132.992L335.753 130.016C336.777 128.971 337.95 128.149 339.273 127.552C340.595 126.955 342.035 126.656 343.593 126.656C345.022 126.656 346.259 126.869 347.305 127.296C348.35 127.723 349.161 128.373 349.737 129.248C350.313 130.123 350.601 131.232 350.601 132.576V144H345.641ZM341.225 144.32C340.158 144.32 339.187 144.107 338.312 143.68C337.459 143.253 336.777 142.667 336.265 141.92C335.774 141.152 335.529 140.256 335.529 139.232C335.529 138.357 335.689 137.589 336.009 136.928C336.329 136.267 336.798 135.723 337.417 135.296C338.057 134.848 338.846 134.517 339.785 134.304C340.745 134.069 341.854 133.952 343.113 133.952H348.265L347.977 137.184H343.241C342.793 137.184 342.398 137.227 342.057 137.312C341.715 137.376 341.427 137.493 341.193 137.664C340.958 137.813 340.777 137.995 340.649 138.208C340.542 138.421 340.489 138.677 340.489 138.976C340.489 139.296 340.574 139.573 340.745 139.808C340.915 140.043 341.139 140.224 341.417 140.352C341.715 140.48 342.057 140.544 342.441 140.544C342.995 140.544 343.518 140.459 344.009 140.288C344.521 140.096 344.969 139.829 345.353 139.488C345.758 139.147 346.078 138.752 346.313 138.304L347.209 140.608C346.761 141.333 346.217 141.973 345.577 142.528C344.958 143.083 344.275 143.52 343.529 143.84C342.803 144.16 342.035 144.32 341.225 144.32ZM356.511 151.36L360.383 142.272L360.447 144.96L352.223 127.008H358.047L361.631 135.584C361.823 135.989 362.004 136.448 362.175 136.96C362.345 137.472 362.473 137.952 362.559 138.4L361.823 138.816C361.951 138.496 362.089 138.091 362.239 137.6C362.409 137.109 362.591 136.587 362.783 136.032L365.919 127.008H371.775L364.575 144L361.663 151.36H356.511ZM39.272 191.04V167.008H44.168L44.392 170.752L43.4 170.464C43.528 169.781 43.88 169.163 44.456 168.608C45.0533 168.032 45.7893 167.573 46.664 167.232C47.5387 166.869 48.4667 166.688 49.448 166.688C50.8987 166.688 52.1893 167.061 53.32 167.808C54.4507 168.555 55.336 169.6 55.976 170.944C56.6373 172.267 56.968 173.792 56.968 175.52C56.968 177.205 56.6373 178.709 55.976 180.032C55.336 181.355 54.44 182.4 53.288 183.168C52.1573 183.915 50.8667 184.288 49.416 184.288C48.4347 184.288 47.5067 184.107 46.632 183.744C45.7573 183.36 45.0213 182.869 44.424 182.272C43.8267 181.675 43.4427 181.024 43.272 180.32L44.456 179.84V191.04H39.272ZM48.168 179.936C48.936 179.936 49.5973 179.755 50.152 179.392C50.728 179.029 51.1653 178.517 51.464 177.856C51.784 177.173 51.944 176.395 51.944 175.52C51.944 174.624 51.784 173.845 51.464 173.184C51.1653 172.501 50.728 171.979 50.152 171.616C49.5973 171.232 48.936 171.04 48.168 171.04C47.3787 171.04 46.696 171.232 46.12 171.616C45.544 171.979 45.096 172.491 44.776 173.152C44.456 173.813 44.296 174.603 44.296 175.52C44.296 176.395 44.456 177.173 44.776 177.856C45.096 178.517 45.544 179.029 46.12 179.392C46.696 179.755 47.3787 179.936 48.168 179.936ZM60.3345 184V167.008H65.2305L65.4545 172.544L64.4945 171.456C64.7718 170.56 65.1985 169.749 65.7745 169.024C66.3505 168.299 67.0332 167.723 67.8225 167.296C68.6332 166.869 69.4758 166.656 70.3505 166.656C70.7345 166.656 71.0865 166.688 71.4065 166.752C71.7478 166.795 72.0465 166.869 72.3025 166.976L70.9265 172.64C70.6918 172.512 70.3718 172.405 69.9665 172.32C69.5825 172.213 69.1772 172.16 68.7505 172.16C68.2812 172.16 67.8438 172.245 67.4385 172.416C67.0545 172.565 66.7132 172.789 66.4145 173.088C66.1372 173.387 65.9132 173.739 65.7425 174.144C65.5932 174.549 65.5185 175.008 65.5185 175.52V184H60.3345ZM82.1775 184.32C80.4282 184.32 78.8602 183.947 77.4735 183.2C76.0868 182.432 74.9988 181.387 74.2095 180.064C73.4202 178.72 73.0255 177.205 73.0255 175.52C73.0255 173.792 73.4202 172.267 74.2095 170.944C74.9988 169.6 76.0868 168.555 77.4735 167.808C78.8602 167.04 80.4282 166.656 82.1775 166.656C83.9482 166.656 85.5162 167.04 86.8815 167.808C88.2682 168.555 89.3562 169.6 90.1455 170.944C90.9348 172.267 91.3295 173.792 91.3295 175.52C91.3295 177.205 90.9348 178.72 90.1455 180.064C89.3562 181.387 88.2682 182.432 86.8815 183.2C85.5162 183.947 83.9482 184.32 82.1775 184.32ZM82.1775 179.904C82.9455 179.904 83.6175 179.712 84.1935 179.328C84.7908 178.944 85.2602 178.421 85.6015 177.76C85.9428 177.099 86.1028 176.352 86.0815 175.52C86.1028 174.645 85.9428 173.877 85.6015 173.216C85.2602 172.533 84.7908 172.011 84.1935 171.648C83.6175 171.264 82.9455 171.072 82.1775 171.072C81.4308 171.072 80.7588 171.264 80.1615 171.648C79.5642 172.032 79.0948 172.555 78.7535 173.216C78.4122 173.877 78.2415 174.645 78.2415 175.52C78.2415 176.352 78.4122 177.099 78.7535 177.76C79.0948 178.421 79.5642 178.944 80.1615 179.328C80.7588 179.712 81.4308 179.904 82.1775 179.904ZM101.142 184.32C99.6916 184.32 98.3796 183.947 97.2063 183.2C96.0543 182.453 95.1476 181.419 94.4863 180.096C93.8249 178.752 93.4943 177.227 93.4943 175.52C93.4943 173.813 93.8249 172.299 94.4863 170.976C95.1476 169.632 96.0543 168.576 97.2063 167.808C98.3796 167.04 99.7023 166.656 101.174 166.656C101.942 166.656 102.678 166.773 103.382 167.008C104.108 167.243 104.748 167.563 105.302 167.968C105.878 168.373 106.348 168.832 106.71 169.344C107.073 169.856 107.297 170.4 107.382 170.976L106.134 171.264V160.32H111.286V184H106.486L106.198 180.16L107.222 180.352C107.18 180.864 106.988 181.365 106.646 181.856C106.305 182.325 105.846 182.752 105.27 183.136C104.716 183.499 104.086 183.787 103.382 184C102.678 184.213 101.932 184.32 101.142 184.32ZM102.422 180.064C103.212 180.064 103.884 179.883 104.438 179.52C105.014 179.136 105.462 178.603 105.782 177.92C106.102 177.237 106.262 176.437 106.262 175.52C106.262 174.581 106.102 173.771 105.782 173.088C105.462 172.405 105.014 171.883 104.438 171.52C103.884 171.136 103.212 170.944 102.422 170.944C101.654 170.944 100.982 171.136 100.406 171.52C99.8516 171.883 99.4143 172.405 99.0943 173.088C98.7743 173.771 98.6143 174.581 98.6143 175.52C98.6143 176.437 98.7743 177.237 99.0943 177.92C99.4143 178.603 99.8516 179.136 100.406 179.52C100.982 179.883 101.654 180.064 102.422 180.064ZM121.908 184.32C120.67 184.32 119.604 184.053 118.708 183.52C117.812 182.965 117.118 182.187 116.628 181.184C116.158 180.16 115.924 178.933 115.924 177.504V167.008H121.076V176.736C121.076 177.781 121.321 178.603 121.812 179.2C122.324 179.776 123.028 180.064 123.924 180.064C124.372 180.064 124.777 180 125.14 179.872C125.502 179.723 125.812 179.52 126.068 179.264C126.345 178.987 126.558 178.667 126.708 178.304C126.857 177.941 126.932 177.547 126.932 177.12V167.008H132.084V184H127.252L127.06 180.512L127.988 180.128C127.753 180.917 127.326 181.632 126.708 182.272C126.11 182.912 125.396 183.413 124.564 183.776C123.732 184.139 122.846 184.32 121.908 184.32ZM144.134 184.32C142.492 184.32 141.009 183.936 139.686 183.168C138.385 182.4 137.361 181.355 136.614 180.032C135.868 178.688 135.494 177.184 135.494 175.52C135.494 173.813 135.868 172.299 136.614 170.976C137.361 169.632 138.385 168.576 139.686 167.808C141.009 167.04 142.492 166.656 144.134 166.656C145.649 166.656 147.036 166.933 148.294 167.488C149.574 168.021 150.577 168.757 151.302 169.696L148.518 173.088C148.241 172.725 147.9 172.395 147.494 172.096C147.089 171.797 146.641 171.563 146.15 171.392C145.66 171.221 145.148 171.136 144.614 171.136C143.804 171.136 143.089 171.328 142.47 171.712C141.852 172.075 141.372 172.587 141.03 173.248C140.689 173.909 140.518 174.656 140.518 175.488C140.518 176.299 140.689 177.035 141.03 177.696C141.393 178.336 141.884 178.848 142.502 179.232C143.121 179.616 143.814 179.808 144.582 179.808C145.137 179.808 145.649 179.733 146.118 179.584C146.588 179.435 147.014 179.221 147.398 178.944C147.804 178.667 148.177 178.336 148.518 177.952L151.302 181.344C150.577 182.24 149.564 182.965 148.262 183.52C146.961 184.053 145.585 184.32 144.134 184.32ZM155.524 184V162.72H160.676V184H155.524ZM152.516 171.52V167.008H163.94V171.52H152.516ZM167.185 184V167.008H172.337V184H167.185ZM169.777 163.648C168.796 163.648 168.028 163.424 167.473 162.976C166.94 162.507 166.673 161.845 166.673 160.992C166.673 160.203 166.95 159.563 167.505 159.072C168.06 158.581 168.817 158.336 169.777 158.336C170.716 158.336 171.452 158.571 171.985 159.04C172.54 159.488 172.817 160.139 172.817 160.992C172.817 161.781 172.54 162.421 171.985 162.912C171.452 163.403 170.716 163.648 169.777 163.648ZM182.426 184L175.322 167.008H180.986L185.21 179.584L183.962 179.744L188.314 167.008H193.946L186.458 184H182.426ZM204.243 184.32C202.366 184.32 200.723 183.947 199.315 183.2C197.928 182.453 196.851 181.429 196.083 180.128C195.336 178.805 194.963 177.301 194.963 175.616C194.963 174.293 195.176 173.088 195.603 172C196.03 170.891 196.627 169.941 197.395 169.152C198.184 168.363 199.102 167.755 200.147 167.328C201.214 166.88 202.376 166.656 203.635 166.656C204.83 166.656 205.918 166.869 206.899 167.296C207.88 167.723 208.734 168.32 209.459 169.088C210.184 169.856 210.739 170.763 211.123 171.808C211.507 172.853 211.688 173.995 211.667 175.232L211.635 176.64H198.131L197.363 173.728H207.443L206.899 174.304V173.664C206.856 173.131 206.686 172.672 206.387 172.288C206.11 171.883 205.736 171.563 205.267 171.328C204.819 171.093 204.307 170.976 203.731 170.976C202.878 170.976 202.152 171.147 201.555 171.488C200.979 171.808 200.542 172.277 200.243 172.896C199.944 173.515 199.795 174.283 199.795 175.2C199.795 176.117 199.987 176.928 200.371 177.632C200.776 178.336 201.352 178.88 202.099 179.264C202.867 179.648 203.774 179.84 204.819 179.84C205.523 179.84 206.163 179.733 206.739 179.52C207.315 179.307 207.934 178.944 208.595 178.432L210.995 181.824C210.334 182.379 209.63 182.848 208.883 183.232C208.136 183.595 207.368 183.861 206.579 184.032C205.811 184.224 205.032 184.32 204.243 184.32ZM218.928 176.288L217.872 172.128C218.662 171.936 219.387 171.712 220.048 171.456C220.731 171.179 221.318 170.88 221.808 170.56C222.32 170.219 222.715 169.835 222.992 169.408C223.291 168.96 223.44 168.459 223.44 167.904C223.44 167.477 223.334 167.115 223.12 166.816C222.907 166.517 222.63 166.283 222.288 166.112C221.947 165.941 221.574 165.856 221.168 165.856C220.614 165.856 220.08 165.963 219.568 166.176C219.056 166.368 218.523 166.667 217.968 167.072C217.435 167.477 216.838 167.979 216.176 168.576L213.552 164.96C214.235 164.256 214.982 163.616 215.792 163.04C216.624 162.464 217.52 162.005 218.48 161.664C219.462 161.301 220.496 161.12 221.584 161.12C223.056 161.12 224.304 161.408 225.328 161.984C226.374 162.56 227.174 163.349 227.728 164.352C228.283 165.333 228.56 166.443 228.56 167.68C228.56 168.725 228.304 169.696 227.792 170.592C227.28 171.467 226.534 172.277 225.552 173.024C224.592 173.771 223.43 174.485 222.064 175.168L221.712 176.288H218.928ZM217.744 181.472C217.744 180.619 218 179.925 218.512 179.392C219.024 178.837 219.696 178.56 220.528 178.56C221.403 178.56 222.075 178.816 222.544 179.328C223.035 179.819 223.28 180.533 223.28 181.472C223.28 182.325 223.024 183.019 222.512 183.552C222.022 184.085 221.36 184.352 220.528 184.352C219.654 184.352 218.971 184.107 218.48 183.616C217.99 183.104 217.744 182.389 217.744 181.472Z" fill="#F0F0F0"/>
<path d="M403.304 296.288C402.493 296.288 401.731 296.139 401.016 295.84C400.301 295.541 399.677 295.125 399.144 294.592C398.611 294.048 398.189 293.419 397.88 292.704C397.581 291.989 397.432 291.221 397.432 290.4C397.432 289.579 397.581 288.811 397.88 288.096C398.189 287.381 398.611 286.757 399.144 286.224C399.677 285.68 400.301 285.259 401.016 284.96C401.731 284.661 402.493 284.512 403.304 284.512C404.125 284.512 404.888 284.661 405.592 284.96C406.307 285.259 406.931 285.68 407.464 286.224C408.008 286.757 408.429 287.381 408.728 288.096C409.037 288.811 409.192 289.579 409.192 290.4C409.192 291.221 409.037 291.989 408.728 292.704C408.429 293.419 408.008 294.048 407.464 294.592C406.931 295.125 406.307 295.541 405.592 295.84C404.888 296.139 404.125 296.288 403.304 296.288ZM403.576 293.712C402.947 293.712 402.371 293.568 401.848 293.28C401.336 292.992 400.925 292.597 400.616 292.096C400.317 291.595 400.168 291.029 400.168 290.4C400.168 289.792 400.317 289.237 400.616 288.736C400.925 288.235 401.336 287.835 401.848 287.536C402.371 287.237 402.947 287.088 403.576 287.088C403.96 287.088 404.333 287.157 404.696 287.296C405.059 287.424 405.405 287.611 405.736 287.856L404.952 289.552C404.707 289.371 404.488 289.248 404.296 289.184C404.104 289.12 403.928 289.088 403.768 289.088C403.501 289.088 403.261 289.147 403.048 289.264C402.835 289.381 402.669 289.541 402.552 289.744C402.435 289.936 402.376 290.155 402.376 290.4C402.376 290.667 402.435 290.901 402.552 291.104C402.669 291.307 402.835 291.467 403.048 291.584C403.261 291.691 403.501 291.744 403.768 291.744C403.949 291.744 404.147 291.712 404.36 291.648C404.573 291.573 404.787 291.451 405 291.28L405.8 293.008C405.469 293.243 405.112 293.419 404.728 293.536C404.355 293.653 403.971 293.712 403.576 293.712ZM403.304 295.088C403.955 295.088 404.563 294.971 405.128 294.736C405.693 294.491 406.189 294.155 406.616 293.728C407.053 293.291 407.389 292.789 407.624 292.224C407.869 291.659 407.992 291.051 407.992 290.4C407.992 289.739 407.869 289.125 407.624 288.56C407.389 287.995 407.053 287.499 406.616 287.072C406.189 286.645 405.693 286.315 405.128 286.08C404.563 285.835 403.955 285.712 403.304 285.712C402.653 285.712 402.045 285.835 401.48 286.08C400.925 286.315 400.435 286.645 400.008 287.072C399.581 287.499 399.245 287.995 399 288.56C398.765 289.125 398.648 289.739 398.648 290.4C398.648 291.051 398.765 291.659 399 292.224C399.245 292.789 399.576 293.291 399.992 293.728C400.419 294.155 400.915 294.491 401.48 294.736C402.045 294.971 402.653 295.088 403.304 295.088ZM418.51 296L414.958 287.504H417.79L419.902 293.792L419.278 293.872L421.454 287.504H424.27L420.526 296H418.51ZM425.749 296V287.504H428.325V296H425.749ZM427.045 285.824C426.554 285.824 426.17 285.712 425.893 285.488C425.626 285.253 425.493 284.923 425.493 284.496C425.493 284.101 425.631 283.781 425.909 283.536C426.186 283.291 426.565 283.168 427.045 283.168C427.514 283.168 427.882 283.285 428.149 283.52C428.426 283.744 428.565 284.069 428.565 284.496C428.565 284.891 428.426 285.211 428.149 285.456C427.882 285.701 427.514 285.824 427.045 285.824ZM435.977 296L434.169 293.264L433.337 292.112L429.977 287.504H433.065L434.825 290.128L435.705 291.36L439.033 296H435.977ZM429.897 296L433.321 291.248L434.697 292.896L432.937 296H429.897ZM435.545 292.304L434.169 290.656L435.849 287.504H438.873L435.545 292.304ZM445.696 296L443.888 293.264L443.056 292.112L439.696 287.504H442.784L444.544 290.128L445.424 291.36L448.752 296H445.696ZM439.616 296L443.04 291.248L444.416 292.896L442.656 296H439.616ZM445.264 292.304L443.888 290.656L445.568 287.504H448.592L445.264 292.304ZM451.271 299.68L453.207 295.136L453.239 296.48L449.127 287.504H452.039L453.831 291.792C453.927 291.995 454.018 292.224 454.103 292.48C454.188 292.736 454.252 292.976 454.295 293.2L453.927 293.408C453.991 293.248 454.06 293.045 454.135 292.8C454.22 292.555 454.311 292.293 454.407 292.016L455.975 287.504H458.903L455.303 296L453.847 299.68H451.271ZM460.392 296.176C459.954 296.176 459.613 296.053 459.368 295.808C459.133 295.552 459.016 295.195 459.016 294.736C459.016 294.309 459.138 293.963 459.384 293.696C459.64 293.419 459.976 293.28 460.392 293.28C460.829 293.28 461.17 293.408 461.416 293.664C461.661 293.909 461.784 294.267 461.784 294.736C461.784 295.163 461.65 295.509 461.384 295.776C461.128 296.043 460.797 296.176 460.392 296.176ZM468.102 296V290.784C468.102 290.347 467.979 290.027 467.734 289.824C467.499 289.611 467.168 289.504 466.742 289.504C466.326 289.504 465.952 289.584 465.622 289.744C465.302 289.893 464.992 290.144 464.694 290.496L463.158 289.008C463.67 288.485 464.256 288.075 464.918 287.776C465.579 287.477 466.299 287.328 467.078 287.328C467.792 287.328 468.411 287.435 468.934 287.648C469.456 287.861 469.862 288.187 470.15 288.624C470.438 289.061 470.582 289.616 470.582 290.288V296H468.102ZM465.894 296.16C465.36 296.16 464.875 296.053 464.438 295.84C464.011 295.627 463.67 295.333 463.414 294.96C463.168 294.576 463.046 294.128 463.046 293.616C463.046 293.179 463.126 292.795 463.286 292.464C463.446 292.133 463.68 291.861 463.99 291.648C464.31 291.424 464.704 291.259 465.174 291.152C465.654 291.035 466.208 290.976 466.838 290.976H469.414L469.27 292.592H466.902C466.678 292.592 466.48 292.613 466.31 292.656C466.139 292.688 465.995 292.747 465.878 292.832C465.76 292.907 465.67 292.997 465.606 293.104C465.552 293.211 465.526 293.339 465.526 293.488C465.526 293.648 465.568 293.787 465.654 293.904C465.739 294.021 465.851 294.112 465.99 294.176C466.139 294.24 466.31 294.272 466.502 294.272C466.779 294.272 467.04 294.229 467.286 294.144C467.542 294.048 467.766 293.915 467.958 293.744C468.16 293.573 468.32 293.376 468.438 293.152L468.886 294.304C468.662 294.667 468.39 294.987 468.07 295.264C467.76 295.541 467.419 295.76 467.046 295.92C466.683 296.08 466.299 296.16 465.894 296.16ZM472.636 299.52V287.504H475.084L475.196 289.376L474.7 289.232C474.764 288.891 474.94 288.581 475.228 288.304C475.527 288.016 475.895 287.787 476.332 287.616C476.769 287.435 477.233 287.344 477.724 287.344C478.449 287.344 479.095 287.531 479.66 287.904C480.225 288.277 480.668 288.8 480.988 289.472C481.319 290.133 481.484 290.896 481.484 291.76C481.484 292.603 481.319 293.355 480.988 294.016C480.668 294.677 480.22 295.2 479.644 295.584C479.079 295.957 478.433 296.144 477.708 296.144C477.217 296.144 476.753 296.053 476.316 295.872C475.879 295.68 475.511 295.435 475.212 295.136C474.913 294.837 474.721 294.512 474.636 294.16L475.228 293.92V299.52H472.636ZM477.084 293.968C477.468 293.968 477.799 293.877 478.076 293.696C478.364 293.515 478.583 293.259 478.732 292.928C478.892 292.587 478.972 292.197 478.972 291.76C478.972 291.312 478.892 290.923 478.732 290.592C478.583 290.251 478.364 289.989 478.076 289.808C477.799 289.616 477.468 289.52 477.084 289.52C476.689 289.52 476.348 289.616 476.06 289.808C475.772 289.989 475.548 290.245 475.388 290.576C475.228 290.907 475.148 291.301 475.148 291.76C475.148 292.197 475.228 292.587 475.388 292.928C475.548 293.259 475.772 293.515 476.06 293.696C476.348 293.877 476.689 293.968 477.084 293.968ZM483.167 299.52V287.504H485.615L485.727 289.376L485.231 289.232C485.295 288.891 485.471 288.581 485.759 288.304C486.058 288.016 486.426 287.787 486.863 287.616C487.301 287.435 487.765 287.344 488.255 287.344C488.981 287.344 489.626 287.531 490.191 287.904C490.757 288.277 491.199 288.8 491.519 289.472C491.85 290.133 492.015 290.896 492.015 291.76C492.015 292.603 491.85 293.355 491.519 294.016C491.199 294.677 490.751 295.2 490.175 295.584C489.61 295.957 488.965 296.144 488.239 296.144C487.749 296.144 487.285 296.053 486.847 295.872C486.41 295.68 486.042 295.435 485.743 295.136C485.445 294.837 485.253 294.512 485.167 294.16L485.759 293.92V299.52H483.167ZM487.615 293.968C487.999 293.968 488.33 293.877 488.607 293.696C488.895 293.515 489.114 293.259 489.263 292.928C489.423 292.587 489.503 292.197 489.503 291.76C489.503 291.312 489.423 290.923 489.263 290.592C489.114 290.251 488.895 289.989 488.607 289.808C488.33 289.616 487.999 289.52 487.615 289.52C487.221 289.52 486.879 289.616 486.591 289.808C486.303 289.989 486.079 290.245 485.919 290.576C485.759 290.907 485.679 291.301 485.679 291.76C485.679 292.197 485.759 292.587 485.919 292.928C486.079 293.259 486.303 293.515 486.591 293.696C486.879 293.877 487.221 293.968 487.615 293.968Z" fill="white"/>
</svg>
