<svg width="533" height="306" viewBox="0 0 533 306" fill="none" xmlns="http://www.w3.org/2000/svg">
<rect width="522" height="306" rx="40" fill="#AAAAFF"/>
<path d="M496.207 44.2915C497.262 45.3414 497.262 47.042 496.207 48.0918C495.684 48.6167 494.992 48.8771 494.3 48.8771C493.608 48.8771 492.918 48.6146 492.391 48.0897L483.5 39.2441L474.609 48.0876C474.082 48.6167 473.391 48.8771 472.7 48.8771C472.009 48.8771 471.319 48.6167 470.791 48.0876C469.736 47.0378 469.736 45.3372 470.791 44.2874L479.684 35.4354L470.791 26.5876C469.736 25.5378 469.736 23.8372 470.791 22.7874C471.846 21.7375 473.554 21.7375 474.609 22.7874L483.5 31.6435L492.393 22.7916C493.448 21.7417 495.156 21.7417 496.211 22.7916C497.266 23.8414 497.266 25.542 496.211 26.5918L487.318 35.4438L496.207 44.2915Z" fill="white"/>
<path d="M59.368 102.64C55.784 102.64 52.5413 102.064 49.64 100.912C46.7813 99.76 44.3067 98.1387 42.216 96.048C40.1253 93.9573 38.5253 91.504 37.416 88.688C36.3067 85.872 35.752 82.8 35.752 79.472C35.752 76.144 36.3493 73.072 37.544 70.256C38.7387 67.44 40.4027 64.9867 42.536 62.896C44.712 60.8053 47.272 59.184 50.216 58.032C53.2027 56.88 56.4667 56.304 60.008 56.304C62.44 56.304 64.744 56.624 66.92 57.264C69.1387 57.904 71.144 58.7787 72.936 59.888C74.7707 60.9973 76.2853 62.256 77.48 63.664L70.76 70.704C69.224 69.2533 67.56 68.1227 65.768 67.312C64.0187 66.4587 62.0347 66.032 59.816 66.032C57.9813 66.032 56.2747 66.3733 54.696 67.056C53.16 67.696 51.7947 68.6347 50.6 69.872C49.448 71.0667 48.552 72.496 47.912 74.16C47.272 75.7813 46.952 77.552 46.952 79.472C46.952 81.392 47.2933 83.1627 47.976 84.784C48.6587 86.4053 49.5973 87.8347 50.792 89.072C52.0293 90.2667 53.4587 91.2053 55.08 91.888C56.7013 92.5707 58.4507 92.912 60.328 92.912C61.6507 92.912 62.8667 92.72 63.976 92.336C65.128 91.9093 66.1307 91.3547 66.984 90.672C67.88 89.9467 68.5627 89.1147 69.032 88.176C69.544 87.1947 69.8 86.1493 69.8 85.04V83.376L71.208 85.552H58.984V76.912H80.04C80.1253 77.3813 80.1893 78.0213 80.232 78.832C80.2747 79.6427 80.296 80.432 80.296 81.2C80.3387 81.9253 80.36 82.5013 80.36 82.928C80.36 85.8293 79.8267 88.496 78.76 90.928C77.736 93.3173 76.264 95.3867 74.344 97.136C72.4667 98.8853 70.248 100.251 67.688 101.232C65.128 102.171 62.3547 102.64 59.368 102.64ZM103.48 102.64C99.9813 102.64 96.8453 101.893 94.072 100.4C91.2987 98.864 89.1227 96.7733 87.544 94.128C85.9653 91.44 85.176 88.4107 85.176 85.04C85.176 81.584 85.9653 78.5333 87.544 75.888C89.1227 73.2 91.2987 71.1093 94.072 69.616C96.8453 68.08 99.9813 67.312 103.48 67.312C107.021 67.312 110.157 68.08 112.888 69.616C115.661 71.1093 117.837 73.2 119.416 75.888C120.995 78.5333 121.784 81.584 121.784 85.04C121.784 88.4107 120.995 91.44 119.416 94.128C117.837 96.7733 115.661 98.864 112.888 100.4C110.157 101.893 107.021 102.64 103.48 102.64ZM103.48 93.808C105.016 93.808 106.36 93.424 107.512 92.656C108.707 91.888 109.645 90.8427 110.328 89.52C111.011 88.1973 111.331 86.704 111.288 85.04C111.331 83.2907 111.011 81.7547 110.328 80.432C109.645 79.0667 108.707 78.0213 107.512 77.296C106.36 76.528 105.016 76.144 103.48 76.144C101.987 76.144 100.643 76.528 99.448 77.296C98.2533 78.064 97.3147 79.1093 96.632 80.432C95.9493 81.7547 95.608 83.2907 95.608 85.04C95.608 86.704 95.9493 88.1973 96.632 89.52C97.3147 90.8427 98.2533 91.888 99.448 92.656C100.643 93.424 101.987 93.808 103.48 93.808ZM151.735 102V59.44H162.039V102H151.735ZM145.719 77.04V68.016H168.567V77.04H145.719ZM190.105 102.64C186.606 102.64 183.47 101.893 180.697 100.4C177.924 98.864 175.748 96.7733 174.169 94.128C172.59 91.44 171.801 88.4107 171.801 85.04C171.801 81.584 172.59 78.5333 174.169 75.888C175.748 73.2 177.924 71.1093 180.697 69.616C183.47 68.08 186.606 67.312 190.105 67.312C193.646 67.312 196.782 68.08 199.513 69.616C202.286 71.1093 204.462 73.2 206.041 75.888C207.62 78.5333 208.409 81.584 208.409 85.04C208.409 88.4107 207.62 91.44 206.041 94.128C204.462 96.7733 202.286 98.864 199.513 100.4C196.782 101.893 193.646 102.64 190.105 102.64ZM190.105 93.808C191.641 93.808 192.985 93.424 194.137 92.656C195.332 91.888 196.27 90.8427 196.953 89.52C197.636 88.1973 197.956 86.704 197.913 85.04C197.956 83.2907 197.636 81.7547 196.953 80.432C196.27 79.0667 195.332 78.0213 194.137 77.296C192.985 76.528 191.641 76.144 190.105 76.144C188.612 76.144 187.268 76.528 186.073 77.296C184.878 78.064 183.94 79.1093 183.257 80.432C182.574 81.7547 182.233 83.2907 182.233 85.04C182.233 86.704 182.574 88.1973 183.257 89.52C183.94 90.8427 184.878 91.888 186.073 92.656C187.268 93.424 188.612 93.808 190.105 93.808ZM251.48 102.64C247.043 102.64 243.288 101.872 240.216 100.336C237.187 98.7573 234.584 96.5387 232.408 93.68L239.064 86.192C241.155 89.0507 243.267 90.9707 245.4 91.952C247.533 92.9333 249.731 93.424 251.992 93.424C253.144 93.424 254.168 93.2747 255.064 92.976C256.003 92.6773 256.728 92.2507 257.24 91.696C257.795 91.0987 258.072 90.3947 258.072 89.584C258.072 88.944 257.901 88.368 257.56 87.856C257.261 87.344 256.835 86.896 256.28 86.512C255.725 86.128 255.085 85.7867 254.36 85.488C253.635 85.1467 252.824 84.8693 251.928 84.656C251.075 84.4427 250.2 84.2507 249.304 84.08C246.829 83.568 244.675 82.9067 242.84 82.096C241.048 81.2427 239.533 80.24 238.296 79.088C237.101 77.8933 236.205 76.5493 235.608 75.056C235.011 73.52 234.712 71.792 234.712 69.872C234.712 67.1413 235.48 64.752 237.016 62.704C238.595 60.656 240.664 59.056 243.224 57.904C245.784 56.752 248.557 56.176 251.544 56.176C255.896 56.176 259.395 56.88 262.04 58.288C264.728 59.6533 266.861 61.552 268.44 63.984L261.656 70.576C260.333 68.8693 258.819 67.5893 257.112 66.736C255.448 65.8827 253.699 65.456 251.864 65.456C250.627 65.456 249.539 65.6053 248.6 65.904C247.661 66.2027 246.936 66.6507 246.424 67.248C245.955 67.8027 245.72 68.4853 245.72 69.296C245.72 69.9787 245.912 70.5973 246.296 71.152C246.723 71.664 247.299 72.112 248.024 72.496C248.749 72.88 249.581 73.2213 250.52 73.52C251.459 73.776 252.44 73.9893 253.464 74.16C255.811 74.6293 257.923 75.248 259.8 76.016C261.72 76.784 263.363 77.744 264.728 78.896C266.093 80.0053 267.139 81.328 267.864 82.864C268.632 84.3573 269.016 86.0853 269.016 88.048C269.016 91.12 268.269 93.744 266.776 95.92C265.283 98.096 263.213 99.76 260.568 100.912C257.923 102.064 254.893 102.64 251.48 102.64ZM276.169 102V54.64H286.473V102H276.169ZM311.174 102.64C307.419 102.64 304.134 101.893 301.318 100.4C298.544 98.9067 296.39 96.8587 294.854 94.256C293.36 91.6107 292.614 88.6027 292.614 85.232C292.614 82.5867 293.04 80.176 293.894 78C294.747 75.7813 295.942 73.8827 297.478 72.304C299.056 70.7253 300.891 69.5093 302.982 68.656C305.115 67.76 307.44 67.312 309.958 67.312C312.347 67.312 314.523 67.7387 316.486 68.592C318.448 69.4453 320.155 70.64 321.606 72.176C323.056 73.712 324.166 75.5253 324.934 77.616C325.702 79.7067 326.064 81.9893 326.022 84.464L325.958 87.28H298.95L297.414 81.456H317.574L316.486 82.608V81.328C316.4 80.2613 316.059 79.344 315.462 78.576C314.907 77.7653 314.16 77.1253 313.222 76.656C312.326 76.1867 311.302 75.952 310.15 75.952C308.443 75.952 306.992 76.2933 305.798 76.976C304.646 77.616 303.771 78.5547 303.174 79.792C302.576 81.0293 302.278 82.5653 302.278 84.4C302.278 86.2347 302.662 87.856 303.43 89.264C304.24 90.672 305.392 91.76 306.885 92.528C308.422 93.296 310.235 93.68 312.326 93.68C313.734 93.68 315.014 93.4667 316.166 93.04C317.318 92.6133 318.555 91.888 319.878 90.864L324.678 97.648C323.355 98.7573 321.947 99.696 320.454 100.464C318.96 101.189 317.424 101.723 315.846 102.064C314.31 102.448 312.752 102.64 311.174 102.64ZM348.736 102.64C344.981 102.64 341.696 101.893 338.88 100.4C336.107 98.9067 333.952 96.8587 332.416 94.256C330.923 91.6107 330.176 88.6027 330.176 85.232C330.176 82.5867 330.603 80.176 331.456 78C332.309 75.7813 333.504 73.8827 335.04 72.304C336.619 70.7253 338.453 69.5093 340.544 68.656C342.677 67.76 345.003 67.312 347.52 67.312C349.909 67.312 352.085 67.7387 354.048 68.592C356.011 69.4453 357.717 70.64 359.168 72.176C360.619 73.712 361.728 75.5253 362.496 77.616C363.264 79.7067 363.627 81.9893 363.584 84.464L363.52 87.28H336.512L334.976 81.456H355.136L354.048 82.608V81.328C353.963 80.2613 353.621 79.344 353.024 78.576C352.469 77.7653 351.723 77.1253 350.784 76.656C349.888 76.1867 348.864 75.952 347.712 75.952C346.005 75.952 344.555 76.2933 343.36 76.976C342.208 77.616 341.333 78.5547 340.736 79.792C340.139 81.0293 339.84 82.5653 339.84 84.4C339.84 86.2347 340.224 87.856 340.992 89.264C341.803 90.672 342.955 91.76 344.448 92.528C345.984 93.296 347.797 93.68 349.888 93.68C351.296 93.68 352.576 93.4667 353.728 93.04C354.88 92.6133 356.117 91.888 357.44 90.864L362.24 97.648C360.917 98.7573 359.509 99.696 358.016 100.464C356.523 101.189 354.987 101.723 353.408 102.064C351.872 102.448 350.315 102.64 348.736 102.64ZM370.107 116.08V68.016H379.899L380.347 75.504L378.363 74.928C378.619 73.5627 379.323 72.3253 380.475 71.216C381.669 70.064 383.141 69.1467 384.891 68.464C386.64 67.7387 388.496 67.376 390.459 67.376C393.36 67.376 395.941 68.1227 398.203 69.616C400.464 71.1093 402.235 73.2 403.515 75.888C404.837 78.5333 405.499 81.584 405.499 85.04C405.499 88.4107 404.837 91.4187 403.515 94.064C402.235 96.7093 400.443 98.8 398.139 100.336C395.877 101.829 393.296 102.576 390.395 102.576C388.432 102.576 386.576 102.213 384.827 101.488C383.077 100.72 381.605 99.7387 380.411 98.544C379.216 97.3493 378.448 96.048 378.107 94.64L380.475 93.68V116.08H370.107ZM387.899 93.872C389.435 93.872 390.757 93.5093 391.867 92.784C393.019 92.0587 393.893 91.0347 394.491 89.712C395.131 88.3467 395.451 86.7893 395.451 85.04C395.451 83.248 395.131 81.6907 394.491 80.368C393.893 79.0027 393.019 77.9573 391.867 77.232C390.757 76.464 389.435 76.08 387.899 76.08C386.32 76.08 384.955 76.464 383.803 77.232C382.651 77.9573 381.755 78.9813 381.115 80.304C380.475 81.6267 380.155 83.2053 380.155 85.04C380.155 86.7893 380.475 88.3467 381.115 89.712C381.755 91.0347 382.651 92.0587 383.803 92.784C384.955 93.5093 386.32 93.872 387.899 93.872Z" fill="white"/>
<path d="M35.368 144V139.392H39.144V126.208H35.368V121.6H48.392V126.208H44.616V139.392H48.392V144H35.368ZM54.43 144V122.72H59.582V144H54.43ZM51.422 131.52V127.008H62.846V131.52H51.422ZM72.1562 144.32C70.5349 144.32 69.0843 144.064 67.8043 143.552C66.5243 143.019 65.5003 142.293 64.7323 141.376L67.8683 138.688C68.5296 139.349 69.2763 139.84 70.1083 140.16C70.9403 140.459 71.7296 140.608 72.4763 140.608C72.7536 140.608 72.9989 140.576 73.2123 140.512C73.4256 140.448 73.6069 140.363 73.7563 140.256C73.9269 140.128 74.0549 139.989 74.1403 139.84C74.2256 139.669 74.2683 139.477 74.2683 139.264C74.2683 138.837 74.0869 138.517 73.7243 138.304C73.5536 138.197 73.2443 138.069 72.7963 137.92C72.3483 137.749 71.7723 137.579 71.0683 137.408C70.0656 137.152 69.1909 136.843 68.4443 136.48C67.7189 136.117 67.1216 135.701 66.6523 135.232C66.2256 134.805 65.8949 134.315 65.6603 133.76C65.4469 133.205 65.3403 132.587 65.3403 131.904C65.3403 130.859 65.6496 129.941 66.2682 129.152C66.9083 128.363 67.7403 127.755 68.7643 127.328C69.7883 126.88 70.8976 126.656 72.0923 126.656C73.0309 126.656 73.9163 126.763 74.7483 126.976C75.6016 127.189 76.3909 127.488 77.1163 127.872C77.8629 128.256 78.5243 128.715 79.1003 129.248L76.3803 132.288C76.0176 131.925 75.5909 131.605 75.1003 131.328C74.6096 131.029 74.1189 130.795 73.6283 130.624C73.1376 130.432 72.6789 130.336 72.2523 130.336C71.9323 130.336 71.6443 130.368 71.3883 130.432C71.1536 130.475 70.9509 130.56 70.7803 130.688C70.6309 130.795 70.5136 130.933 70.4283 131.104C70.3429 131.253 70.3003 131.424 70.3003 131.616C70.3003 131.851 70.3536 132.064 70.4603 132.256C70.5883 132.427 70.7589 132.587 70.9723 132.736C71.1643 132.843 71.4949 132.981 71.9643 133.152C72.4549 133.323 73.0949 133.515 73.8843 133.728C74.8869 134.005 75.7403 134.325 76.4443 134.688C77.1696 135.029 77.7456 135.435 78.1723 135.904C78.5349 136.267 78.7909 136.693 78.9403 137.184C79.1109 137.653 79.1963 138.165 79.1963 138.72C79.1963 139.808 78.8869 140.779 78.2683 141.632C77.6709 142.464 76.8389 143.125 75.7723 143.616C74.7269 144.085 73.5216 144.32 72.1562 144.32ZM92.1708 144L91.0828 141.312L97.5148 134.208C97.8988 133.803 98.3041 133.344 98.7308 132.832C99.1574 132.32 99.5628 131.797 99.9468 131.264C100.352 130.709 100.672 130.176 100.907 129.664C101.163 129.152 101.291 128.693 101.291 128.288C101.291 127.861 101.195 127.488 101.003 127.168C100.832 126.848 100.565 126.603 100.203 126.432C99.8614 126.24 99.4134 126.144 98.8588 126.144C98.3894 126.144 97.9308 126.272 97.4828 126.528C97.0348 126.784 96.6081 127.168 96.2028 127.68C95.8188 128.171 95.4561 128.8 95.1148 129.568L91.0828 127.328C91.5308 126.091 92.1601 125.003 92.9708 124.064C93.8028 123.125 94.7734 122.389 95.8828 121.856C96.9921 121.323 98.1761 121.067 99.4348 121.088C100.757 121.088 101.941 121.365 102.987 121.92C104.053 122.475 104.896 123.243 105.515 124.224C106.155 125.184 106.475 126.315 106.475 127.616C106.475 128.192 106.389 128.789 106.219 129.408C106.069 130.027 105.813 130.688 105.451 131.392C105.109 132.075 104.651 132.811 104.075 133.6C103.499 134.389 102.795 135.243 101.963 136.16L97.0028 141.568L96.3308 139.168H107.467V144H92.1708ZM119.078 144V133.568C119.078 132.693 118.833 132.053 118.342 131.648C117.873 131.221 117.211 131.008 116.358 131.008C115.526 131.008 114.779 131.168 114.118 131.488C113.478 131.787 112.859 132.288 112.262 132.992L109.19 130.016C110.214 128.971 111.387 128.149 112.71 127.552C114.033 126.955 115.473 126.656 117.03 126.656C118.459 126.656 119.697 126.869 120.742 127.296C121.787 127.723 122.598 128.373 123.174 129.248C123.75 130.123 124.038 131.232 124.038 132.576V144H119.078ZM114.662 144.32C113.595 144.32 112.625 144.107 111.75 143.68C110.897 143.253 110.214 142.667 109.702 141.92C109.211 141.152 108.966 140.256 108.966 139.232C108.966 138.357 109.126 137.589 109.446 136.928C109.766 136.267 110.235 135.723 110.854 135.296C111.494 134.848 112.283 134.517 113.222 134.304C114.182 134.069 115.291 133.952 116.55 133.952H121.702L121.414 137.184H116.678C116.23 137.184 115.835 137.227 115.494 137.312C115.153 137.376 114.865 137.493 114.63 137.664C114.395 137.813 114.214 137.995 114.086 138.208C113.979 138.421 113.926 138.677 113.926 138.976C113.926 139.296 114.011 139.573 114.182 139.808C114.353 140.043 114.577 140.224 114.854 140.352C115.153 140.48 115.494 140.544 115.878 140.544C116.433 140.544 116.955 140.459 117.446 140.288C117.958 140.096 118.406 139.829 118.79 139.488C119.195 139.147 119.515 138.752 119.75 138.304L120.646 140.608C120.198 141.333 119.654 141.973 119.014 142.528C118.395 143.083 117.713 143.52 116.966 143.84C116.241 144.16 115.473 144.32 114.662 144.32ZM128.115 144V127.008H133.011L133.171 130.08L132.467 130.144C132.702 129.589 133.022 129.099 133.427 128.672C133.832 128.245 134.28 127.893 134.771 127.616C135.283 127.317 135.816 127.093 136.371 126.944C136.926 126.773 137.48 126.688 138.035 126.688C138.888 126.688 139.646 126.816 140.307 127.072C140.99 127.328 141.576 127.744 142.067 128.32C142.579 128.896 142.984 129.664 143.283 130.624L142.515 130.496L142.739 130.048C143.038 129.536 143.4 129.077 143.827 128.672C144.275 128.245 144.766 127.883 145.299 127.584C145.832 127.285 146.376 127.061 146.931 126.912C147.507 126.763 148.062 126.688 148.595 126.688C149.939 126.688 151.059 126.955 151.955 127.488C152.851 128.021 153.523 128.811 153.971 129.856C154.419 130.88 154.643 132.149 154.643 133.664V144H149.491V134.048C149.491 133.045 149.278 132.299 148.851 131.808C148.446 131.296 147.827 131.04 146.995 131.04C146.547 131.04 146.131 131.115 145.747 131.264C145.384 131.392 145.064 131.595 144.787 131.872C144.531 132.128 144.328 132.427 144.179 132.768C144.03 133.109 143.955 133.493 143.955 133.92V144H138.803V134.016C138.803 133.056 138.579 132.32 138.131 131.808C137.704 131.296 137.096 131.04 136.307 131.04C135.88 131.04 135.475 131.115 135.091 131.264C134.728 131.392 134.408 131.595 134.131 131.872C133.875 132.128 133.672 132.427 133.523 132.768C133.374 133.109 133.299 133.493 133.299 133.92V144H128.115ZM159.376 150.432L157.872 148.608C158.747 148.203 159.44 147.701 159.952 147.104C160.486 146.507 160.752 146.005 160.752 145.6C160.752 145.387 160.699 145.173 160.592 144.96C160.486 144.747 160.251 144.491 159.888 144.192C159.398 143.829 159.056 143.477 158.864 143.136C158.694 142.773 158.608 142.379 158.608 141.952C158.608 141.269 158.854 140.747 159.344 140.384C159.835 140 160.454 139.808 161.2 139.808C161.84 139.808 162.406 139.979 162.896 140.32C163.408 140.661 163.803 141.141 164.08 141.76C164.379 142.357 164.528 143.061 164.528 143.872C164.528 144.576 164.4 145.269 164.144 145.952C163.888 146.635 163.526 147.275 163.056 147.872C162.587 148.469 162.043 148.981 161.424 149.408C160.806 149.856 160.123 150.197 159.376 150.432ZM186.142 151.36C184.776 151.36 183.4 151.157 182.014 150.752C180.648 150.368 179.539 149.856 178.686 149.216L180.478 145.568C181.16 146.037 181.928 146.4 182.782 146.656C183.656 146.933 184.563 147.072 185.502 147.072C186.59 147.072 187.475 146.912 188.158 146.592C188.84 146.272 189.342 145.792 189.662 145.152C190.003 144.512 190.174 143.712 190.174 142.752V139.936L191.134 140.128C191.006 140.789 190.643 141.408 190.046 141.984C189.47 142.56 188.755 143.019 187.902 143.36C187.048 143.701 186.152 143.872 185.214 143.872C183.678 143.872 182.302 143.52 181.086 142.816C179.87 142.091 178.91 141.099 178.206 139.84C177.523 138.56 177.182 137.088 177.182 135.424C177.182 133.717 177.523 132.203 178.206 130.88C178.91 129.557 179.859 128.523 181.054 127.776C182.248 127.029 183.592 126.656 185.086 126.656C185.704 126.656 186.302 126.731 186.878 126.88C187.475 127.008 188.019 127.2 188.51 127.456C189.022 127.712 189.47 128 189.854 128.32C190.259 128.64 190.59 128.992 190.846 129.376C191.102 129.76 191.262 130.144 191.326 130.528L190.27 130.848L190.462 127.008H195.358V142.592C195.358 143.979 195.144 145.216 194.718 146.304C194.312 147.392 193.704 148.309 192.894 149.056C192.104 149.803 191.144 150.368 190.014 150.752C188.883 151.157 187.592 151.36 186.142 151.36ZM186.27 139.872C187.102 139.872 187.816 139.691 188.414 139.328C189.032 138.965 189.502 138.453 189.822 137.792C190.163 137.131 190.334 136.363 190.334 135.488C190.334 134.571 190.163 133.781 189.822 133.12C189.502 132.459 189.032 131.947 188.414 131.584C187.816 131.2 187.102 131.008 186.27 131.008C185.48 131.008 184.787 131.2 184.19 131.584C183.592 131.947 183.123 132.459 182.782 133.12C182.462 133.781 182.302 134.56 182.302 135.456C182.302 136.352 182.462 137.131 182.782 137.792C183.123 138.453 183.592 138.965 184.19 139.328C184.787 139.691 185.48 139.872 186.27 139.872ZM207.899 144.32C206.022 144.32 204.379 143.947 202.971 143.2C201.585 142.453 200.507 141.429 199.739 140.128C198.993 138.805 198.619 137.301 198.619 135.616C198.619 134.293 198.833 133.088 199.259 132C199.686 130.891 200.283 129.941 201.051 129.152C201.841 128.363 202.758 127.755 203.803 127.328C204.87 126.88 206.033 126.656 207.291 126.656C208.486 126.656 209.574 126.869 210.555 127.296C211.537 127.723 212.39 128.32 213.115 129.088C213.841 129.856 214.395 130.763 214.779 131.808C215.163 132.853 215.345 133.995 215.323 135.232L215.291 136.64H201.787L201.019 133.728H211.099L210.555 134.304V133.664C210.513 133.131 210.342 132.672 210.043 132.288C209.766 131.883 209.393 131.563 208.923 131.328C208.475 131.093 207.963 130.976 207.387 130.976C206.534 130.976 205.809 131.147 205.211 131.488C204.635 131.808 204.198 132.277 203.899 132.896C203.601 133.515 203.451 134.283 203.451 135.2C203.451 136.117 203.643 136.928 204.027 137.632C204.433 138.336 205.009 138.88 205.755 139.264C206.523 139.648 207.43 139.84 208.475 139.84C209.179 139.84 209.819 139.733 210.395 139.52C210.971 139.307 211.59 138.944 212.251 138.432L214.651 141.824C213.99 142.379 213.286 142.848 212.539 143.232C211.793 143.595 211.025 143.861 210.235 144.032C209.467 144.224 208.689 144.32 207.899 144.32ZM219.993 144V122.72H225.145V144H219.993ZM216.985 131.52V127.008H228.409V131.52H216.985ZM247.312 144.32C245.691 144.32 244.241 144.064 242.961 143.552C241.681 143.019 240.657 142.293 239.889 141.376L243.025 138.688C243.686 139.349 244.433 139.84 245.265 140.16C246.097 140.459 246.886 140.608 247.633 140.608C247.91 140.608 248.155 140.576 248.369 140.512C248.582 140.448 248.763 140.363 248.913 140.256C249.083 140.128 249.211 139.989 249.297 139.84C249.382 139.669 249.425 139.477 249.425 139.264C249.425 138.837 249.243 138.517 248.881 138.304C248.71 138.197 248.401 138.069 247.953 137.92C247.505 137.749 246.929 137.579 246.225 137.408C245.222 137.152 244.347 136.843 243.601 136.48C242.875 136.117 242.278 135.701 241.809 135.232C241.382 134.805 241.051 134.315 240.817 133.76C240.603 133.205 240.497 132.587 240.497 131.904C240.497 130.859 240.806 129.941 241.424 129.152C242.065 128.363 242.897 127.755 243.921 127.328C244.945 126.88 246.054 126.656 247.249 126.656C248.187 126.656 249.073 126.763 249.905 126.976C250.758 127.189 251.547 127.488 252.273 127.872C253.019 128.256 253.681 128.715 254.257 129.248L251.537 132.288C251.174 131.925 250.747 131.605 250.257 131.328C249.766 131.029 249.275 130.795 248.785 130.624C248.294 130.432 247.835 130.336 247.409 130.336C247.089 130.336 246.801 130.368 246.545 130.432C246.31 130.475 246.107 130.56 245.937 130.688C245.787 130.795 245.67 130.933 245.585 131.104C245.499 131.253 245.457 131.424 245.457 131.616C245.457 131.851 245.51 132.064 245.617 132.256C245.745 132.427 245.915 132.587 246.129 132.736C246.321 132.843 246.651 132.981 247.121 133.152C247.611 133.323 248.251 133.515 249.041 133.728C250.043 134.005 250.897 134.325 251.601 134.688C252.326 135.029 252.902 135.435 253.329 135.904C253.691 136.267 253.947 136.693 254.097 137.184C254.267 137.653 254.353 138.165 254.353 138.72C254.353 139.808 254.043 140.779 253.425 141.632C252.827 142.464 251.995 143.125 250.929 143.616C249.883 144.085 248.678 144.32 247.312 144.32ZM265.396 144.32C263.647 144.32 262.079 143.947 260.692 143.2C259.306 142.432 258.218 141.387 257.428 140.064C256.639 138.72 256.244 137.205 256.244 135.52C256.244 133.792 256.639 132.267 257.428 130.944C258.218 129.6 259.306 128.555 260.692 127.808C262.079 127.04 263.647 126.656 265.396 126.656C267.167 126.656 268.735 127.04 270.1 127.808C271.487 128.555 272.575 129.6 273.364 130.944C274.154 132.267 274.548 133.792 274.548 135.52C274.548 137.205 274.154 138.72 273.364 140.064C272.575 141.387 271.487 142.432 270.1 143.2C268.735 143.947 267.167 144.32 265.396 144.32ZM265.396 139.904C266.164 139.904 266.836 139.712 267.412 139.328C268.01 138.944 268.479 138.421 268.82 137.76C269.162 137.099 269.322 136.352 269.3 135.52C269.322 134.645 269.162 133.877 268.82 133.216C268.479 132.533 268.01 132.011 267.412 131.648C266.836 131.264 266.164 131.072 265.396 131.072C264.65 131.072 263.978 131.264 263.38 131.648C262.783 132.032 262.314 132.555 261.972 133.216C261.631 133.877 261.46 134.645 261.46 135.52C261.46 136.352 261.631 137.099 261.972 137.76C262.314 138.421 262.783 138.944 263.38 139.328C263.978 139.712 264.65 139.904 265.396 139.904ZM277.865 144V127.008H282.761L282.921 130.08L282.217 130.144C282.452 129.589 282.772 129.099 283.177 128.672C283.582 128.245 284.03 127.893 284.521 127.616C285.033 127.317 285.566 127.093 286.121 126.944C286.676 126.773 287.23 126.688 287.785 126.688C288.638 126.688 289.396 126.816 290.057 127.072C290.74 127.328 291.326 127.744 291.817 128.32C292.329 128.896 292.734 129.664 293.033 130.624L292.265 130.496L292.489 130.048C292.788 129.536 293.15 129.077 293.577 128.672C294.025 128.245 294.516 127.883 295.049 127.584C295.582 127.285 296.126 127.061 296.681 126.912C297.257 126.763 297.812 126.688 298.345 126.688C299.689 126.688 300.809 126.955 301.705 127.488C302.601 128.021 303.273 128.811 303.721 129.856C304.169 130.88 304.393 132.149 304.393 133.664V144H299.241V134.048C299.241 133.045 299.028 132.299 298.601 131.808C298.196 131.296 297.577 131.04 296.745 131.04C296.297 131.04 295.881 131.115 295.497 131.264C295.134 131.392 294.814 131.595 294.537 131.872C294.281 132.128 294.078 132.427 293.929 132.768C293.78 133.109 293.705 133.493 293.705 133.92V144H288.553V134.016C288.553 133.056 288.329 132.32 287.881 131.808C287.454 131.296 286.846 131.04 286.057 131.04C285.63 131.04 285.225 131.115 284.841 131.264C284.478 131.392 284.158 131.595 283.881 131.872C283.625 132.128 283.422 132.427 283.273 132.768C283.124 133.109 283.049 133.493 283.049 133.92V144H277.865ZM316.774 144.32C314.897 144.32 313.254 143.947 311.846 143.2C310.46 142.453 309.382 141.429 308.614 140.128C307.868 138.805 307.494 137.301 307.494 135.616C307.494 134.293 307.708 133.088 308.134 132C308.561 130.891 309.158 129.941 309.926 129.152C310.716 128.363 311.633 127.755 312.678 127.328C313.745 126.88 314.908 126.656 316.166 126.656C317.361 126.656 318.449 126.869 319.43 127.296C320.412 127.723 321.265 128.32 321.99 129.088C322.716 129.856 323.27 130.763 323.654 131.808C324.038 132.853 324.22 133.995 324.198 135.232L324.166 136.64H310.662L309.894 133.728H319.974L319.43 134.304V133.664C319.388 133.131 319.217 132.672 318.918 132.288C318.641 131.883 318.268 131.563 317.798 131.328C317.35 131.093 316.838 130.976 316.262 130.976C315.409 130.976 314.684 131.147 314.086 131.488C313.51 131.808 313.073 132.277 312.774 132.896C312.476 133.515 312.326 134.283 312.326 135.2C312.326 136.117 312.518 136.928 312.902 137.632C313.308 138.336 313.884 138.88 314.63 139.264C315.398 139.648 316.305 139.84 317.35 139.84C318.054 139.84 318.694 139.733 319.27 139.52C319.846 139.307 320.465 138.944 321.126 138.432L323.526 141.824C322.865 142.379 322.161 142.848 321.414 143.232C320.668 143.595 319.9 143.861 319.11 144.032C318.342 144.224 317.564 144.32 316.774 144.32ZM337.678 144V127.008H342.574L342.798 132.544L341.838 131.456C342.116 130.56 342.542 129.749 343.118 129.024C343.694 128.299 344.377 127.723 345.166 127.296C345.977 126.869 346.82 126.656 347.694 126.656C348.078 126.656 348.43 126.688 348.75 126.752C349.092 126.795 349.39 126.869 349.646 126.976L348.27 132.64C348.036 132.512 347.716 132.405 347.31 132.32C346.926 132.213 346.521 132.16 346.094 132.16C345.625 132.16 345.188 132.245 344.782 132.416C344.398 132.565 344.057 132.789 343.758 133.088C343.481 133.387 343.257 133.739 343.086 134.144C342.937 134.549 342.862 135.008 342.862 135.52V144H337.678ZM359.649 144.32C357.772 144.32 356.129 143.947 354.721 143.2C353.335 142.453 352.257 141.429 351.489 140.128C350.743 138.805 350.369 137.301 350.369 135.616C350.369 134.293 350.583 133.088 351.009 132C351.436 130.891 352.033 129.941 352.801 129.152C353.591 128.363 354.508 127.755 355.553 127.328C356.62 126.88 357.783 126.656 359.041 126.656C360.236 126.656 361.324 126.869 362.305 127.296C363.287 127.723 364.14 128.32 364.865 129.088C365.591 129.856 366.145 130.763 366.529 131.808C366.913 132.853 367.095 133.995 367.073 135.232L367.041 136.64H353.537L352.769 133.728H362.849L362.305 134.304V133.664C362.263 133.131 362.092 132.672 361.793 132.288C361.516 131.883 361.143 131.563 360.673 131.328C360.225 131.093 359.713 130.976 359.137 130.976C358.284 130.976 357.559 131.147 356.961 131.488C356.385 131.808 355.948 132.277 355.649 132.896C355.351 133.515 355.201 134.283 355.201 135.2C355.201 136.117 355.393 136.928 355.777 137.632C356.183 138.336 356.759 138.88 357.505 139.264C358.273 139.648 359.18 139.84 360.225 139.84C360.929 139.84 361.569 139.733 362.145 139.52C362.721 139.307 363.34 138.944 364.001 138.432L366.401 141.824C365.74 142.379 365.036 142.848 364.289 143.232C363.543 143.595 362.775 143.861 361.985 144.032C361.217 144.224 360.439 144.32 359.649 144.32ZM376.062 144.32C374.441 144.32 372.991 144.064 371.711 143.552C370.431 143.019 369.407 142.293 368.639 141.376L371.775 138.688C372.436 139.349 373.183 139.84 374.015 140.16C374.847 140.459 375.636 140.608 376.383 140.608C376.66 140.608 376.905 140.576 377.119 140.512C377.332 140.448 377.513 140.363 377.663 140.256C377.833 140.128 377.961 139.989 378.047 139.84C378.132 139.669 378.175 139.477 378.175 139.264C378.175 138.837 377.993 138.517 377.631 138.304C377.46 138.197 377.151 138.069 376.703 137.92C376.255 137.749 375.679 137.579 374.975 137.408C373.972 137.152 373.097 136.843 372.351 136.48C371.625 136.117 371.028 135.701 370.559 135.232C370.132 134.805 369.801 134.315 369.567 133.76C369.353 133.205 369.247 132.587 369.247 131.904C369.247 130.859 369.556 129.941 370.174 129.152C370.815 128.363 371.647 127.755 372.671 127.328C373.695 126.88 374.804 126.656 375.999 126.656C376.937 126.656 377.823 126.763 378.655 126.976C379.508 127.189 380.297 127.488 381.023 127.872C381.769 128.256 382.431 128.715 383.007 129.248L380.287 132.288C379.924 131.925 379.497 131.605 379.007 131.328C378.516 131.029 378.025 130.795 377.535 130.624C377.044 130.432 376.585 130.336 376.159 130.336C375.839 130.336 375.551 130.368 375.295 130.432C375.06 130.475 374.857 130.56 374.687 130.688C374.537 130.795 374.42 130.933 374.335 131.104C374.249 131.253 374.207 131.424 374.207 131.616C374.207 131.851 374.26 132.064 374.367 132.256C374.495 132.427 374.665 132.587 374.879 132.736C375.071 132.843 375.401 132.981 375.871 133.152C376.361 133.323 377.001 133.515 377.791 133.728C378.793 134.005 379.647 134.325 380.351 134.688C381.076 135.029 381.652 135.435 382.079 135.904C382.441 136.267 382.697 136.693 382.847 137.184C383.017 137.653 383.103 138.165 383.103 138.72C383.103 139.808 382.793 140.779 382.175 141.632C381.577 142.464 380.745 143.125 379.679 143.616C378.633 144.085 377.428 144.32 376.062 144.32ZM387.586 144V122.72H392.738V144H387.586ZM384.578 131.52V127.008H396.002V131.52H384.578ZM36.36 184V166.176C36.36 165.067 36.5947 164.075 37.064 163.2C37.5547 162.304 38.2373 161.589 39.112 161.056C39.9867 160.523 41 160.256 42.152 160.256C42.9413 160.256 43.6773 160.384 44.36 160.64C45.0427 160.875 45.6507 161.205 46.184 161.632L44.712 165.376C44.4347 165.227 44.168 165.109 43.912 165.024C43.656 164.939 43.4213 164.896 43.208 164.896C42.824 164.896 42.504 164.96 42.248 165.088C41.992 165.216 41.8 165.408 41.672 165.664C41.5653 165.92 41.512 166.24 41.512 166.624V184H38.92C38.3653 184 37.864 184 37.416 184C36.9893 184 36.6373 184 36.36 184ZM33.864 171.776V167.488H45V171.776H33.864ZM55.24 184.32C53.4907 184.32 51.9227 183.947 50.536 183.2C49.1493 182.432 48.0613 181.387 47.272 180.064C46.4827 178.72 46.088 177.205 46.088 175.52C46.088 173.792 46.4827 172.267 47.272 170.944C48.0613 169.6 49.1493 168.555 50.536 167.808C51.9227 167.04 53.4907 166.656 55.24 166.656C57.0107 166.656 58.5787 167.04 59.944 167.808C61.3307 168.555 62.4187 169.6 63.208 170.944C63.9973 172.267 64.392 173.792 64.392 175.52C64.392 177.205 63.9973 178.72 63.208 180.064C62.4187 181.387 61.3307 182.432 59.944 183.2C58.5787 183.947 57.0107 184.32 55.24 184.32ZM55.24 179.904C56.008 179.904 56.68 179.712 57.256 179.328C57.8533 178.944 58.3227 178.421 58.664 177.76C59.0053 177.099 59.1653 176.352 59.144 175.52C59.1653 174.645 59.0053 173.877 58.664 173.216C58.3227 172.533 57.8533 172.011 57.256 171.648C56.68 171.264 56.008 171.072 55.24 171.072C54.4933 171.072 53.8213 171.264 53.224 171.648C52.6267 172.032 52.1573 172.555 51.816 173.216C51.4747 173.877 51.304 174.645 51.304 175.52C51.304 176.352 51.4747 177.099 51.816 177.76C52.1573 178.421 52.6267 178.944 53.224 179.328C53.8213 179.712 54.4933 179.904 55.24 179.904ZM67.7408 184V167.008H72.6368L72.8608 172.544L71.9008 171.456C72.1781 170.56 72.6048 169.749 73.1808 169.024C73.7568 168.299 74.4394 167.723 75.2288 167.296C76.0394 166.869 76.8821 166.656 77.7568 166.656C78.1408 166.656 78.4928 166.688 78.8128 166.752C79.1541 166.795 79.4528 166.869 79.7088 166.976L78.3328 172.64C78.0981 172.512 77.7781 172.405 77.3728 172.32C76.9888 172.213 76.5834 172.16 76.1568 172.16C75.6874 172.16 75.2501 172.245 74.8448 172.416C74.4608 172.565 74.1194 172.789 73.8208 173.088C73.5434 173.387 73.3194 173.739 73.1488 174.144C72.9994 174.549 72.9248 175.008 72.9248 175.52V184H67.7408ZM93.9613 184V162.72H99.1133V184H93.9613ZM90.9533 171.52V167.008H102.377V171.52H90.9533ZM113.146 184.32C111.397 184.32 109.829 183.947 108.442 183.2C107.056 182.432 105.968 181.387 105.178 180.064C104.389 178.72 103.994 177.205 103.994 175.52C103.994 173.792 104.389 172.267 105.178 170.944C105.968 169.6 107.056 168.555 108.442 167.808C109.829 167.04 111.397 166.656 113.146 166.656C114.917 166.656 116.485 167.04 117.85 167.808C119.237 168.555 120.325 169.6 121.114 170.944C121.904 172.267 122.298 173.792 122.298 175.52C122.298 177.205 121.904 178.72 121.114 180.064C120.325 181.387 119.237 182.432 117.85 183.2C116.485 183.947 114.917 184.32 113.146 184.32ZM113.146 179.904C113.914 179.904 114.586 179.712 115.162 179.328C115.76 178.944 116.229 178.421 116.57 177.76C116.912 177.099 117.072 176.352 117.05 175.52C117.072 174.645 116.912 173.877 116.57 173.216C116.229 172.533 115.76 172.011 115.162 171.648C114.586 171.264 113.914 171.072 113.146 171.072C112.4 171.072 111.728 171.264 111.13 171.648C110.533 172.032 110.064 172.555 109.722 173.216C109.381 173.877 109.21 174.645 109.21 175.52C109.21 176.352 109.381 177.099 109.722 177.76C110.064 178.421 110.533 178.944 111.13 179.328C111.728 179.712 112.4 179.904 113.146 179.904ZM125.615 184V167.008H130.511L130.671 170.08L129.967 170.144C130.202 169.589 130.522 169.099 130.927 168.672C131.332 168.245 131.78 167.893 132.271 167.616C132.783 167.317 133.316 167.093 133.871 166.944C134.426 166.773 134.98 166.688 135.535 166.688C136.388 166.688 137.146 166.816 137.807 167.072C138.49 167.328 139.076 167.744 139.567 168.32C140.079 168.896 140.484 169.664 140.783 170.624L140.015 170.496L140.239 170.048C140.538 169.536 140.9 169.077 141.327 168.672C141.775 168.245 142.266 167.883 142.799 167.584C143.332 167.285 143.876 167.061 144.431 166.912C145.007 166.763 145.562 166.688 146.095 166.688C147.439 166.688 148.559 166.955 149.455 167.488C150.351 168.021 151.023 168.811 151.471 169.856C151.919 170.88 152.143 172.149 152.143 173.664V184H146.991V174.048C146.991 173.045 146.778 172.299 146.351 171.808C145.946 171.296 145.327 171.04 144.495 171.04C144.047 171.04 143.631 171.115 143.247 171.264C142.884 171.392 142.564 171.595 142.287 171.872C142.031 172.128 141.828 172.427 141.679 172.768C141.53 173.109 141.455 173.493 141.455 173.92V184H136.303V174.016C136.303 173.056 136.079 172.32 135.631 171.808C135.204 171.296 134.596 171.04 133.807 171.04C133.38 171.04 132.975 171.115 132.591 171.264C132.228 171.392 131.908 171.595 131.631 171.872C131.375 172.128 131.172 172.427 131.023 172.768C130.874 173.109 130.799 173.493 130.799 173.92V184H125.615ZM164.396 184.32C162.647 184.32 161.079 183.947 159.692 183.2C158.306 182.432 157.218 181.387 156.428 180.064C155.639 178.72 155.244 177.205 155.244 175.52C155.244 173.792 155.639 172.267 156.428 170.944C157.218 169.6 158.306 168.555 159.692 167.808C161.079 167.04 162.647 166.656 164.396 166.656C166.167 166.656 167.735 167.04 169.1 167.808C170.487 168.555 171.575 169.6 172.364 170.944C173.154 172.267 173.548 173.792 173.548 175.52C173.548 177.205 173.154 178.72 172.364 180.064C171.575 181.387 170.487 182.432 169.1 183.2C167.735 183.947 166.167 184.32 164.396 184.32ZM164.396 179.904C165.164 179.904 165.836 179.712 166.412 179.328C167.01 178.944 167.479 178.421 167.82 177.76C168.162 177.099 168.322 176.352 168.3 175.52C168.322 174.645 168.162 173.877 167.82 173.216C167.479 172.533 167.01 172.011 166.412 171.648C165.836 171.264 165.164 171.072 164.396 171.072C163.65 171.072 162.978 171.264 162.38 171.648C161.783 172.032 161.314 172.555 160.972 173.216C160.631 173.877 160.46 174.645 160.46 175.52C160.46 176.352 160.631 177.099 160.972 177.76C161.314 178.421 161.783 178.944 162.38 179.328C162.978 179.712 163.65 179.904 164.396 179.904ZM176.897 184V167.008H181.793L182.017 172.544L181.057 171.456C181.334 170.56 181.761 169.749 182.337 169.024C182.913 168.299 183.596 167.723 184.385 167.296C185.196 166.869 186.038 166.656 186.913 166.656C187.297 166.656 187.649 166.688 187.969 166.752C188.31 166.795 188.609 166.869 188.865 166.976L187.489 172.64C187.254 172.512 186.934 172.405 186.529 172.32C186.145 172.213 185.74 172.16 185.313 172.16C184.844 172.16 184.406 172.245 184.001 172.416C183.617 172.565 183.276 172.789 182.977 173.088C182.7 173.387 182.476 173.739 182.305 174.144C182.156 174.549 182.081 175.008 182.081 175.52V184H176.897ZM191.491 184V167.008H196.387L196.611 172.544L195.651 171.456C195.928 170.56 196.355 169.749 196.931 169.024C197.507 168.299 198.189 167.723 198.979 167.296C199.789 166.869 200.632 166.656 201.507 166.656C201.891 166.656 202.243 166.688 202.563 166.752C202.904 166.795 203.203 166.869 203.459 166.976L202.083 172.64C201.848 172.512 201.528 172.405 201.123 172.32C200.739 172.213 200.333 172.16 199.907 172.16C199.437 172.16 199 172.245 198.595 172.416C198.211 172.565 197.869 172.789 197.571 173.088C197.293 173.387 197.069 173.739 196.899 174.144C196.749 174.549 196.675 175.008 196.675 175.52V184H191.491ZM213.334 184.32C211.584 184.32 210.016 183.947 208.63 183.2C207.243 182.432 206.155 181.387 205.366 180.064C204.576 178.72 204.182 177.205 204.182 175.52C204.182 173.792 204.576 172.267 205.366 170.944C206.155 169.6 207.243 168.555 208.63 167.808C210.016 167.04 211.584 166.656 213.334 166.656C215.104 166.656 216.672 167.04 218.038 167.808C219.424 168.555 220.512 169.6 221.302 170.944C222.091 172.267 222.486 173.792 222.486 175.52C222.486 177.205 222.091 178.72 221.302 180.064C220.512 181.387 219.424 182.432 218.038 183.2C216.672 183.947 215.104 184.32 213.334 184.32ZM213.334 179.904C214.102 179.904 214.774 179.712 215.35 179.328C215.947 178.944 216.416 178.421 216.758 177.76C217.099 177.099 217.259 176.352 217.238 175.52C217.259 174.645 217.099 173.877 216.758 173.216C216.416 172.533 215.947 172.011 215.35 171.648C214.774 171.264 214.102 171.072 213.334 171.072C212.587 171.072 211.915 171.264 211.318 171.648C210.72 172.032 210.251 172.555 209.91 173.216C209.568 173.877 209.398 174.645 209.398 175.52C209.398 176.352 209.568 177.099 209.91 177.76C210.251 178.421 210.72 178.944 211.318 179.328C211.915 179.712 212.587 179.904 213.334 179.904ZM228.922 184L223.354 167.008H228.762L231.898 177.984L231.194 177.856L234.714 169.344H237.722L241.466 177.888L240.698 177.952L243.834 167.008H249.242L243.45 184H239.674L235.962 174.912L236.378 174.976L232.73 184H228.922ZM252.921 175.84C252.729 174.517 252.548 173.163 252.377 171.776C252.206 170.368 252.068 168.971 251.961 167.584C251.854 166.176 251.801 164.843 251.801 163.584V161.248H257.241V163.584C257.241 164.864 257.188 166.219 257.081 167.648C256.974 169.056 256.836 170.464 256.665 171.872C256.494 173.259 256.313 174.581 256.121 175.84H252.921ZM254.489 184.352C253.614 184.352 252.932 184.107 252.441 183.616C251.95 183.104 251.705 182.389 251.705 181.472C251.705 180.64 251.961 179.947 252.473 179.392C252.985 178.837 253.657 178.56 254.489 178.56C255.364 178.56 256.046 178.816 256.537 179.328C257.028 179.819 257.273 180.533 257.273 181.472C257.273 182.325 257.017 183.019 256.505 183.552C255.993 184.085 255.321 184.352 254.489 184.352Z" fill="#F0F0F0"/>
<path d="M403.304 295.288C402.493 295.288 401.731 295.139 401.016 294.84C400.301 294.541 399.677 294.125 399.144 293.592C398.611 293.048 398.189 292.419 397.88 291.704C397.581 290.989 397.432 290.221 397.432 289.4C397.432 288.579 397.581 287.811 397.88 287.096C398.189 286.381 398.611 285.757 399.144 285.224C399.677 284.68 400.301 284.259 401.016 283.96C401.731 283.661 402.493 283.512 403.304 283.512C404.125 283.512 404.888 283.661 405.592 283.96C406.307 284.259 406.931 284.68 407.464 285.224C408.008 285.757 408.429 286.381 408.728 287.096C409.037 287.811 409.192 288.579 409.192 289.4C409.192 290.221 409.037 290.989 408.728 291.704C408.429 292.419 408.008 293.048 407.464 293.592C406.931 294.125 406.307 294.541 405.592 294.84C404.888 295.139 404.125 295.288 403.304 295.288ZM403.576 292.712C402.947 292.712 402.371 292.568 401.848 292.28C401.336 291.992 400.925 291.597 400.616 291.096C400.317 290.595 400.168 290.029 400.168 289.4C400.168 288.792 400.317 288.237 400.616 287.736C400.925 287.235 401.336 286.835 401.848 286.536C402.371 286.237 402.947 286.088 403.576 286.088C403.96 286.088 404.333 286.157 404.696 286.296C405.059 286.424 405.405 286.611 405.736 286.856L404.952 288.552C404.707 288.371 404.488 288.248 404.296 288.184C404.104 288.12 403.928 288.088 403.768 288.088C403.501 288.088 403.261 288.147 403.048 288.264C402.835 288.381 402.669 288.541 402.552 288.744C402.435 288.936 402.376 289.155 402.376 289.4C402.376 289.667 402.435 289.901 402.552 290.104C402.669 290.307 402.835 290.467 403.048 290.584C403.261 290.691 403.501 290.744 403.768 290.744C403.949 290.744 404.147 290.712 404.36 290.648C404.573 290.573 404.787 290.451 405 290.28L405.8 292.008C405.469 292.243 405.112 292.419 404.728 292.536C404.355 292.653 403.971 292.712 403.576 292.712ZM403.304 294.088C403.955 294.088 404.563 293.971 405.128 293.736C405.693 293.491 406.189 293.155 406.616 292.728C407.053 292.291 407.389 291.789 407.624 291.224C407.869 290.659 407.992 290.051 407.992 289.4C407.992 288.739 407.869 288.125 407.624 287.56C407.389 286.995 407.053 286.499 406.616 286.072C406.189 285.645 405.693 285.315 405.128 285.08C404.563 284.835 403.955 284.712 403.304 284.712C402.653 284.712 402.045 284.835 401.48 285.08C400.925 285.315 400.435 285.645 400.008 286.072C399.581 286.499 399.245 286.995 399 287.56C398.765 288.125 398.648 288.739 398.648 289.4C398.648 290.051 398.765 290.659 399 291.224C399.245 291.789 399.576 292.291 399.992 292.728C400.419 293.155 400.915 293.491 401.48 293.736C402.045 293.971 402.653 294.088 403.304 294.088ZM418.51 295L414.958 286.504H417.79L419.902 292.792L419.278 292.872L421.454 286.504H424.27L420.526 295H418.51ZM425.749 295V286.504H428.325V295H425.749ZM427.045 284.824C426.554 284.824 426.17 284.712 425.893 284.488C425.626 284.253 425.493 283.923 425.493 283.496C425.493 283.101 425.631 282.781 425.909 282.536C426.186 282.291 426.565 282.168 427.045 282.168C427.514 282.168 427.882 282.285 428.149 282.52C428.426 282.744 428.565 283.069 428.565 283.496C428.565 283.891 428.426 284.211 428.149 284.456C427.882 284.701 427.514 284.824 427.045 284.824ZM435.977 295L434.169 292.264L433.337 291.112L429.977 286.504H433.065L434.825 289.128L435.705 290.36L439.033 295H435.977ZM429.897 295L433.321 290.248L434.697 291.896L432.937 295H429.897ZM435.545 291.304L434.169 289.656L435.849 286.504H438.873L435.545 291.304ZM445.696 295L443.888 292.264L443.056 291.112L439.696 286.504H442.784L444.544 289.128L445.424 290.36L448.752 295H445.696ZM439.616 295L443.04 290.248L444.416 291.896L442.656 295H439.616ZM445.264 291.304L443.888 289.656L445.568 286.504H448.592L445.264 291.304ZM451.271 298.68L453.207 294.136L453.239 295.48L449.127 286.504H452.039L453.831 290.792C453.927 290.995 454.018 291.224 454.103 291.48C454.188 291.736 454.252 291.976 454.295 292.2L453.927 292.408C453.991 292.248 454.06 292.045 454.135 291.8C454.22 291.555 454.311 291.293 454.407 291.016L455.975 286.504H458.903L455.303 295L453.847 298.68H451.271ZM460.392 295.176C459.954 295.176 459.613 295.053 459.368 294.808C459.133 294.552 459.016 294.195 459.016 293.736C459.016 293.309 459.138 292.963 459.384 292.696C459.64 292.419 459.976 292.28 460.392 292.28C460.829 292.28 461.17 292.408 461.416 292.664C461.661 292.909 461.784 293.267 461.784 293.736C461.784 294.163 461.65 294.509 461.384 294.776C461.128 295.043 460.797 295.176 460.392 295.176ZM468.102 295V289.784C468.102 289.347 467.979 289.027 467.734 288.824C467.499 288.611 467.168 288.504 466.742 288.504C466.326 288.504 465.952 288.584 465.622 288.744C465.302 288.893 464.992 289.144 464.694 289.496L463.158 288.008C463.67 287.485 464.256 287.075 464.918 286.776C465.579 286.477 466.299 286.328 467.078 286.328C467.792 286.328 468.411 286.435 468.934 286.648C469.456 286.861 469.862 287.187 470.15 287.624C470.438 288.061 470.582 288.616 470.582 289.288V295H468.102ZM465.894 295.16C465.36 295.16 464.875 295.053 464.438 294.84C464.011 294.627 463.67 294.333 463.414 293.96C463.168 293.576 463.046 293.128 463.046 292.616C463.046 292.179 463.126 291.795 463.286 291.464C463.446 291.133 463.68 290.861 463.99 290.648C464.31 290.424 464.704 290.259 465.174 290.152C465.654 290.035 466.208 289.976 466.838 289.976H469.414L469.27 291.592H466.902C466.678 291.592 466.48 291.613 466.31 291.656C466.139 291.688 465.995 291.747 465.878 291.832C465.76 291.907 465.67 291.997 465.606 292.104C465.552 292.211 465.526 292.339 465.526 292.488C465.526 292.648 465.568 292.787 465.654 292.904C465.739 293.021 465.851 293.112 465.99 293.176C466.139 293.24 466.31 293.272 466.502 293.272C466.779 293.272 467.04 293.229 467.286 293.144C467.542 293.048 467.766 292.915 467.958 292.744C468.16 292.573 468.32 292.376 468.438 292.152L468.886 293.304C468.662 293.667 468.39 293.987 468.07 294.264C467.76 294.541 467.419 294.76 467.046 294.92C466.683 295.08 466.299 295.16 465.894 295.16ZM472.636 298.52V286.504H475.084L475.196 288.376L474.7 288.232C474.764 287.891 474.94 287.581 475.228 287.304C475.527 287.016 475.895 286.787 476.332 286.616C476.769 286.435 477.233 286.344 477.724 286.344C478.449 286.344 479.095 286.531 479.66 286.904C480.225 287.277 480.668 287.8 480.988 288.472C481.319 289.133 481.484 289.896 481.484 290.76C481.484 291.603 481.319 292.355 480.988 293.016C480.668 293.677 480.22 294.2 479.644 294.584C479.079 294.957 478.433 295.144 477.708 295.144C477.217 295.144 476.753 295.053 476.316 294.872C475.879 294.68 475.511 294.435 475.212 294.136C474.913 293.837 474.721 293.512 474.636 293.16L475.228 292.92V298.52H472.636ZM477.084 292.968C477.468 292.968 477.799 292.877 478.076 292.696C478.364 292.515 478.583 292.259 478.732 291.928C478.892 291.587 478.972 291.197 478.972 290.76C478.972 290.312 478.892 289.923 478.732 289.592C478.583 289.251 478.364 288.989 478.076 288.808C477.799 288.616 477.468 288.52 477.084 288.52C476.689 288.52 476.348 288.616 476.06 288.808C475.772 288.989 475.548 289.245 475.388 289.576C475.228 289.907 475.148 290.301 475.148 290.76C475.148 291.197 475.228 291.587 475.388 291.928C475.548 292.259 475.772 292.515 476.06 292.696C476.348 292.877 476.689 292.968 477.084 292.968ZM483.167 298.52V286.504H485.615L485.727 288.376L485.231 288.232C485.295 287.891 485.471 287.581 485.759 287.304C486.058 287.016 486.426 286.787 486.863 286.616C487.301 286.435 487.765 286.344 488.255 286.344C488.981 286.344 489.626 286.531 490.191 286.904C490.757 287.277 491.199 287.8 491.519 288.472C491.85 289.133 492.015 289.896 492.015 290.76C492.015 291.603 491.85 292.355 491.519 293.016C491.199 293.677 490.751 294.2 490.175 294.584C489.61 294.957 488.965 295.144 488.239 295.144C487.749 295.144 487.285 295.053 486.847 294.872C486.41 294.68 486.042 294.435 485.743 294.136C485.445 293.837 485.253 293.512 485.167 293.16L485.759 292.92V298.52H483.167ZM487.615 292.968C487.999 292.968 488.33 292.877 488.607 292.696C488.895 292.515 489.114 292.259 489.263 291.928C489.423 291.587 489.503 291.197 489.503 290.76C489.503 290.312 489.423 289.923 489.263 289.592C489.114 289.251 488.895 288.989 488.607 288.808C488.33 288.616 487.999 288.52 487.615 288.52C487.221 288.52 486.879 288.616 486.591 288.808C486.303 288.989 486.079 289.245 485.919 289.576C485.759 289.907 485.679 290.301 485.679 290.76C485.679 291.197 485.759 291.587 485.919 291.928C486.079 292.259 486.303 292.515 486.591 292.696C486.879 292.877 487.221 292.968 487.615 292.968Z" fill="white"/>
</svg>
